<?xml version="1.0" encoding="utf-8"?>
<!-- Generator: Adobe Illustrator 18.0.0, SVG Export Plug-In . SVG Version: 6.00 Build 0)  -->
<!DOCTYPE svg PUBLIC "-//W3C//DTD SVG 1.1//EN" "http://www.w3.org/Graphics/SVG/1.1/DTD/svg11.dtd">
<svg version="1.1" id="Layer_1" xmlns="http://www.w3.org/2000/svg" xmlns:xlink="http://www.w3.org/1999/xlink" x="0px" y="0px"
	 viewBox="0 0 70.1 80.6" enable-background="new 0 0 70.1 80.6" xml:space="preserve">
<g id="clinton-offtopic">
	<path fill="#FFCE6A" d="M49,11.5c0,0,5.2-3.7,13.2-1.4c7.8,2.3,8.4,11.2,7.4,14l-16.8-5.2l-6.1-3L49,11.5z"/>
	<path fill="#FAC05A" d="M56.8,21.2l-5.6-4.8c0,0,5.9-4.3,14,0.8c5.1,3.2,4.9,8.6,4,12c0,0-1.4,5.5-5.7,7.8c-0.3,0.2-0.6,0.3-1,0.4
		L56.8,21.2z"/>
	<path fill="#E6AC4A" d="M63.5,24.1c-2.7-4.3-6.6-2.9-6.6-2.9l-0.9,0.3l4.7,12.3l2.1-1.6C62.7,32.2,66.2,28.4,63.5,24.1z"/>
	<path fill="#F8B3A1" d="M61.2,42.8c0,0,3.4-3.9,2.2-9.3c-1.2-5.4-2.5-14-14.6-18.1c-1.8-0.6-3.5-0.8-5.2-0.8l-29,20.8L9,69
		c0,0,8.3,9.7,21.3,11.2c7.8,0.9,13.3-1,16.4-2.7l0.4-1.9c4.2-0.5,6.4-4.2,7.9-7.5c1.5-3.3,4.6-10.9,4.6-10.9s4.1-5.4,3.3-9.3
		L61.2,42.8z"/>
	<path fill="#5E201C" d="M47.6,59.2c0,0-1.4-1.6-1.6-5.3c0,0,4.6-3.1,9.5-1.6c4.8,1.5,2.3,3.9,2.3,3.9l-0.8,0.9c0,0-2.1,1.9-2.1,4
		c0,2.1-1,3.1-2.7,1.6C50.4,61.1,47.6,59.2,47.6,59.2z"/>
	<path fill="#D3716A" d="M26.9,50.7c0,0-2.3,0.5-4.7-1.6"/>
	<path fill="#D3716A" d="M47.1,75.7c-4.2,0.5-12.5-3.5-12.5-3.5s5.7,3.6,12.2,4.9L47.1,75.7z"/>
	<path fill="none" stroke="#EB2227" stroke-width="9.720900e-02" stroke-miterlimit="10" d="M1.1,43.7"/>
	<path fill="#FFCE6A" d="M2.8,32.8c0,0,0.5-16.2,4.3-20.4C10.9,8.2,23.7-0.4,34.7,0C45.8,0.4,54,11.4,54,11.4L46.7,13
		C46.7,13,11.2,20.9,2.8,32.8z"/>
	<path fill="#FAC05A" d="M6.2,53.6c1.1-2,2.8-3.7,5-5.2c0,0,5.6-3.2,7.5-6.5c0.1-0.2,0.2-0.3,0.3-0.5l-2-4L7,35.7c0,0-5.8,2.8-5.9,8
		c-1.6,2.6-1,4.2-1,4.2l2.4,21H9C9,68.9,0,65.2,6.2,53.6z"/>
	<path fill="#E6AC4A" d="M18.6,62c1.8-5.8,3.3-11.7,3.9-13.7L19,41.4c-0.1,0.2-0.2,0.3-0.3,0.5c-1.9,3.3-7.5,6.5-7.5,6.5
		c-2.1,1.5-3.9,3.2-5,5.2C0,65.2,9,68.9,9,68.9h1.3C10.2,68.9,16.4,69.2,18.6,62z"/>
	<path fill="none" stroke="#EB2427" stroke-width="9.720900e-02" stroke-miterlimit="10" d="M51.3,16.4"/>
	<path fill="#E6AC4A" d="M46.8,29.1c0,0,6.2-3.8,8.9-3.4c1.8,0.3,1.9,1.2,1.7,1.7c0,0,0.8-1.6-0.3-2.8c-1.1-1.2-3.5-0.9-5.5,0.3
		C49.7,26.2,46.8,29.1,46.8,29.1z"/>
	<path fill="#FFFFFF" d="M51.4,33.5c-1.5-0.3-3.8,1.1-3.8,1.1c0.9,0.5,2.5,1.3,3.4,1.6c0.8,0.2,1.9,0.3,2.6,0.4
		C53.3,35.6,52.9,33.8,51.4,33.5z"/>
	<path fill="#66A9B9" d="M50.8,36c0.2,0,0.5-0.1,0.6-0.3c0.4-0.3,0.4-1.1,0.3-1.5c-0.2-0.4-0.8-1.2-1.6-0.8
		c-0.8,0.4-0.8,1.2-0.8,1.2c0,0.4,0.1,0.6,0.2,0.8C50,35.7,50.4,35.9,50.8,36z"/>
	<path fill="#866155" d="M51.2,32.7c-2.3-0.5-4.3,1.5-4.3,1.5s0.2,0.1,0.6,0.3c0,0,2.3-1.2,3.8-0.9c1.5,0.3,2,2,2.2,2.8
		C53.5,36.5,53.5,33.2,51.2,32.7z"/>
	<g>
		<path fill="#F69487" d="M47.7,36.3c0,0,0.3,0.3,0.8,0.6c0.5,0.3,1.1,0.7,1.9,1c0.7,0.3,1.5,0.5,2.1,0.5c0.3,0,0.5,0,0.7,0
			c0.2,0,0.3,0,0.3,0l0,0c0,0-0.1,0-0.3,0.1c-0.2,0-0.4,0.1-0.7,0.1c-0.3,0-0.7,0-1-0.1c-0.4-0.1-0.8-0.2-1.1-0.3
			c-0.4-0.2-0.7-0.4-1-0.6c-0.3-0.2-0.6-0.4-0.8-0.6C47.9,36.7,47.6,36.4,47.7,36.3L47.7,36.3z"/>
	</g>
	<path fill="#F69487" d="M48.9,50.6c0,0,1.7-1.4,2.4-2.5c0.7-1.1,2.3-2,2.8-2.3l-0.2-1c0,0-1.3,0.7-2,1.8c-0.7,1.1-1.2,1.7-1.7,2.4
		L48.9,50.6z"/>
	<path fill="#F69487" d="M58.9,49.7c0,0,0.7,0.4,0.8,1.8c0.2,1.4,0,2.3,0,2.3s0.9-2.8,0.3-4.2C59.4,48.1,58.9,49.7,58.9,49.7z"/>
	<g>
		<path fill="#F69487" d="M53.3,31.3c0,0,0.3,0,0.7,0.2c0.4,0.2,0.8,0.6,1.1,1.1c0.1,0.2,0.3,0.5,0.3,0.8c0.1,0.3,0.1,0.5,0.1,0.7
			c0,0.4,0,0.7,0,0.7l0,0c0,0-0.1-0.3-0.2-0.7c-0.1-0.2-0.1-0.4-0.2-0.7c-0.1-0.2-0.1-0.5-0.2-0.7c-0.2-0.5-0.5-0.9-0.9-1.1
			C53.6,31.3,53.3,31.3,53.3,31.3L53.3,31.3z"/>
	</g>
	<path fill="#E6AC4A" d="M63.3,35.5c0-0.2-0.1-0.4-0.1-0.6c-0.2-0.3-0.4-0.4-0.8-0.4c-1.2,0-2.4,2.5-2.4,2.5s0.5-0.9,1.5-1.2
		c1-0.2,2.1,2.2,2.1,2.2C63.6,37.2,63.5,36.4,63.3,35.5z"/>
	<g>
		<path fill="#F69488" d="M59.3,37.4c0,0,0-0.1,0-0.2c0-0.1,0.1-0.3,0.3-0.4c0.2-0.1,0.4-0.2,0.6-0.3c0.1,0,0.3,0,0.4,0
			c0.1,0,0.1,0,0.2,0c0.1,0,0.1,0,0.2,0.1c0.2,0.1,0.3,0.2,0.4,0.3c0.1,0.1,0.2,0.2,0.2,0.3c0.1,0.2,0.2,0.4,0.3,0.6
			C62,38,62,38.3,62,38.3l0,0c0,0-0.1-0.2-0.2-0.5c-0.1-0.1-0.2-0.3-0.3-0.5c-0.1-0.2-0.3-0.3-0.5-0.4c-0.4-0.1-0.9,0.1-1.2,0.2
			C59.5,37.3,59.3,37.4,59.3,37.4L59.3,37.4z"/>
	</g>
	<path fill="#F2F2F2" d="M61.8,39.5c-0.8-0.6-1.8-0.4-1.8-0.4l-0.1,0.2l1.4,3.3c0.3-0.3,0.8-1.1,1.3-2.1
		C62.3,40,62.1,39.7,61.8,39.5z"/>
	<path fill="#61A2AC" d="M60.8,41.1c0,0,0.5-0.2,0.6-1c0.1-0.8-0.6-1.4-0.6-1.4l-1,0.7l0.8,1.7L60.8,41.1z"/>
	<g>
		<path fill="#F69487" d="M42.1,56.9c-0.2,0.7-0.4,1.5-0.6,2.3c-0.1,0.8-0.2,1.5-0.2,2.3c0,0.8,0,1.5,0.1,2.3c0,0.4,0.1,0.8,0.2,1.1
			c0.1,0.4,0.2,0.7,0.3,1.1c0.1,0.4,0.3,0.7,0.4,1.1c0.1,0.4,0.3,0.7,0.5,1.1c0.2,0.4,0.4,0.7,0.6,1c0.2,0.3,0.4,0.7,0.7,1
			c0.9,1.2,2.1,2.4,3.6,2.8l0,0c1.4,0.2,2.8,0,4.1-0.5l0,0.1c-0.6,0.3-1.3,0.6-2,0.7c-0.4,0.1-0.7,0.1-1.1,0.2c-0.4,0-0.7,0-1.1,0
			l0,0l0,0c-0.8-0.2-1.5-0.6-2.2-1.1c-0.6-0.5-1.2-1.1-1.7-1.7c-0.3-0.3-0.5-0.6-0.7-1c-0.2-0.3-0.5-0.7-0.6-1
			c-0.2-0.4-0.4-0.7-0.5-1.1c-0.1-0.4-0.3-0.8-0.4-1.1c-0.1-0.4-0.2-0.8-0.3-1.2c-0.1-0.4-0.1-0.8-0.2-1.2c-0.1-0.8-0.1-1.6,0-2.4
			c0.1-0.8,0.2-1.6,0.4-2.3C41.5,58.4,41.7,57.6,42.1,56.9L42.1,56.9z"/>
	</g>
	<path fill="none" stroke="#EB2427" stroke-width="9.720900e-02" stroke-miterlimit="10" d="M56.3,54.6"/>
	<path fill="#F2F2F2" d="M48.8,53v0.4c0,0,0,0.3,0.5,0.2c0,0,2.8,0,5.4,1.3c0.7,0.4,1.4,0.8,1.9,1.2l-0.3,0.5l0.6,0.4
		c0,0,0.4,0.2,0.6-0.1c0.2-0.2,0.6-1.8,0.6-1.8l0.2-0.9C58.2,54.3,53.6,50.9,48.8,53z"/>
	<path fill="#E03C27" d="M58.6,53c-1.3-0.9-3.2-1.9-5.4-1.8c-4.3,0.2-7.4,2.6-7.4,2.6l0.5,0.2c0,0,1.8-1.2,5.1-1.2
		c0.5,0,2.1,0,3.5,0.5c0.1,0,0.1,0,0.2,0.1c0,0,0.1,0,0.1,0c1.1,0.4,2.4,1,2.8,1.9c0,0-0.2,0.7-0.3,1.2c1.7-0.5,1.9-1.7,1.9-1.7
		C59.8,53.8,58.6,53,58.6,53z"/>
	<path fill="#D1D2D3" d="M56.5,56.2c0,0,0.4,0.3,0.5,0.4c0,0-0.2,0.3-0.7,0L56.5,56.2z"/>
	<path opacity="0.9" fill="#F69487" d="M46.8,56.8c0,0,0.4-1,1.8-0.8c1.4,0.1,2.4,1.8,2.4,1.8s0.3,0.7,0.5,0.4
		c0.2-0.3,0.5-0.5,0.8-0.3c0.3,0.2,0.5,1.5,0.5,2.4c0,0.4-0.1,0.9-0.3,1.3c0,0-4.1-1.3-5-2.6C46.5,57.8,46.8,56.8,46.8,56.8z"/>
	<path fill="#EE4224" d="M56.9,57.1L56.9,57.1c-0.1-0.1-1.9,1.7-2.4,3.1c-0.3,0.8-0.7,1.4-1.1,1.7c-0.3-0.3-0.6-0.6-0.6-0.6
		c-1.2-1-3.8-1.9-3.8-1.9c-0.4-0.1-0.8-0.3-1.1-0.6c-1.4-1.2-1.6-4.8-1.6-4.8l-0.5-0.2c0,0,0,3.2,0.7,4.4c0.6,1.2,1.7,2.5,3.2,3.3
		c0.4,0.2,0.7,0.5,1,0.8c0,0,1.7,2.1,3.1,2c1.4-0.1,1.6-2.5,1.6-2.5s-0.2-1.8,0.2-2.5C55.7,58.7,56.1,57.9,56.9,57.1z"/>
	<path fill="none" stroke="#EB2427" stroke-width="9.720900e-02" stroke-miterlimit="10" d="M54.6,60.9c-0.1,0.2-0.1,0.4-0.2,0.5
		c-0.5,0.8-0.4,0.9-1.5-0.2"/>
	<path fill="#F8B3A1" d="M25.5,38.4l1.4,12.3c0,0-2.3,0.5-4.7-1.6c0,0-0.1-0.1-0.1-0.1c-1.9-1.8-2.6-3.6-2.6-3.6l-3.7-8.3L25.5,38.4
		z"/>
	<circle fill="#7EC89B" cx="24.5" cy="48.2" r="1.2"/>
	<path fill="#F69487" d="M22.2,49.1L22,50c2.4,1.8,4.9,0.8,4.9,0.8S24.6,51.3,22.2,49.1z"/>
	<g>
		<path fill="#FFCE7B" d="M1.1,43.7"/>
		<path fill="#FFCE6A" d="M23.5,19.7c0,0-19.1,7.9-22.1,15.1c-1.5,3.6-1.2,6.6-0.3,8.9c1-1.7,3-3.7,6.7-6l20.7,2
			c0,0,5.6,1.3,9.5-8.8c3.9-10,4.2-11.2,4.2-11.2l1.2-3.2L23.5,19.7z"/>
	</g>
	<path fill="#FEDC7B" d="M50.2,11.9c-1.8-0.8-17.4-5.7-31.3,3.9C10.5,21.7,5.6,26.3,3,28.9c-0.2,2.3-0.2,3.9-0.2,3.9
		c1.9-2.3,5.7-5.7,13.1-8.2c2.6-0.9,5.5-1.1,8.6-0.7c0,0,12.5,2.1,24.5-8c1-0.8,1.7-1.6,2.2-2.2C51.2,13.7,52,12.8,50.2,11.9z"/>
	<path fill="#815A51" d="M61.5,38.8c-1.1-0.4-2,0-2,0l0.3,0.7C61,39,62,40,62.5,40.7c0.1-0.2,0.2-0.5,0.3-0.7
		C62.5,39.5,62.1,39,61.5,38.8z"/>
	<path fill="#815A51" d="M62.8,40l0.4,1c0,0,0,0.7-0.7-0.3L62.3,40H62.8z"/>
	<path fill="#F0805F" d="M60.9,49.9c0.8-0.6,1.8-1.7,1.8-1.7c0.5-0.5,0.7-0.9,0.5-1.7c-0.2-0.8-1.6-3.7-1.6-3.7
		c-1.4-2.8-3.1-7.6-3.1-7.6s-0.3-0.8-0.6-0.9c-0.3-0.1-0.5,0.5-0.5,0.5c-0.5,2.7-1.1,8.7-1.1,8.7c-0.8-0.1-2.1,0.1-2.5,1.7
		c-0.7,2.6,1.8,3.4,1.8,3.4c1.1,0.4,3.3,1.1,4.3,1.4C59.9,50,60.5,50.2,60.9,49.9z"/>
</g>
</svg>
