<?xml version="1.0" encoding="utf-8"?>
<!-- Generator: Adobe Illustrator 18.0.0, SVG Export Plug-In . SVG Version: 6.00 Build 0)  -->
<!DOCTYPE svg PUBLIC "-//W3C//DTD SVG 1.1//EN" "http://www.w3.org/Graphics/SVG/1.1/DTD/svg11.dtd">
<svg version="1.1" id="Layer_1" xmlns="http://www.w3.org/2000/svg" xmlns:xlink="http://www.w3.org/1999/xlink" x="0px" y="0px"
	 viewBox="0 0 70.1 80.6" enable-background="new 0 0 70.1 80.6" xml:space="preserve">
<g id="clinton">
	<g>
		<g>
			<path fill="#FFCF6A" d="M64,37.1l-0.1-0.8l-2.4-0.8l-8.2,3.9L53,42.2l4.7,2.3l5.5,8.7c1.7-1,3.5-2.8,3.9-6.3
				C68,39.4,64,37.1,64,37.1z"/>
		</g>
	</g>
	<path fill="#FBC15A" d="M58,43.2c0,0,6,5.7,6.8,11.8c0.4,3.1-0.8,5.4-2.1,7.1l-7.5,2.1c0,0-3.5-3.8-3.2-10c0.4-6.2,1-13.5,1-13.5
		L58,43.2z"/>
	<path fill="#E7AD4B" d="M55.2,50c0,0,3.8,2.2,3.5,6.8c-0.3,4.6-1.8,7.7-1.8,7.7l-1.6-0.3c0,0-3.3-3.4-3.2-9.4l0.4-5.8L55.2,50z"/>
	<polygon fill="#E7AD4B" points="27.4,12.5 36.3,12.1 43.1,17.5 42.6,13.2 40.1,9 35.5,5.2 31.3,4.4 27.1,5.5 25.3,8.6 25.6,11.1 	
		"/>
	<path fill="#FFCF6A" d="M42.4,16.3c0,0-3.5-8.1-7.5-10c-4-2-6.5,0.3-6.5,0.3C25.2,8.9,27,12,27,12l0.3,0.5L23,13.9l-1.7-4.1
		c0,0-2.5-3.3,1.9-6.9C27.6-0.7,35-0.7,41.6,1.6C48.3,4,54,13.2,57.9,18.2c3.9,5.1,6.5,10.2,6.3,13.2c-0.1,0.7-0.4,1.6-1,2.4
		L49,28.7l-5.2-9.9L42.4,16.3z"/>
	<g>
		<g>
			<path fill="#FCC15A" d="M13.2,29.2l-1.1,3.7c0,0-0.2,9.8-7.8,12.2c0,0.8,0.1,1.7,0.1,3c0,3.7,2.8,5.7,4.3,6.4
				c1.5,0.8,4,2.3,4,2.3l0.9-9.8c0,0,0.4-0.9-0.5-3.7C12.3,41,12,35.6,13.2,29.2z"/>
		</g>
	</g>
	<path fill="#E7AD4B" d="M12.8,47.3l-0.2,9.4c0,0,0.2,6.8,6.4,9.3c1.7,0.7,3.4,0.8,5,0.6L13.6,47L12.8,47.3z"/>
	<path fill="#7DC89B" d="M14.7,56.7c0,0-0.3-1.2,0.2-2c0.5-0.8,1.9,1.2,1.9,1.2l-0.3,0.6c0,0,0.3,1.5-0.5,1.7
		C15.1,58.4,14.7,56.7,14.7,56.7z"/>
	<path fill="#FFCF6A" d="M2.2,32.9c0,0-1.9-8.4-1-12C2.2,17.3,5.9,9,14,7.7c4.9-0.8,8.5,2.8,10.5,5.7L20,15l-3.6-3.1l-3.8,2.2
		l-2.3,0.5l-0.9,3.1L8,19.4l0.2,5.8l-0.6,4.6l-1,2.8l-1.8,1.6H3L2.2,32.9z"/>
	<path fill="#FFDC79" d="M16.9,9.4C14.6,9,9.9,9.8,7.3,14.7C4.7,19.6,6.4,25,6.4,25c0.2,0.9,0.4,2.8-0.1,5.4c-0.8,4-4.1,2.5-4.1,2.5
		c-0.5,0.5-0.8,1.1-1,1.8c0,0,1.4,1.3,3.3,1.1c2-0.1,4.1-3.8,4.7-8.7c0.6-4.9,0-7.4,3.2-10.6c2.3-2.3,5.6-2.2,7.5-1.6c0,0,0,0,0,0
		c1.1-1.3,1.9-2,1.9-2C21.3,11.6,19.3,9.9,16.9,9.4z"/>
	<path fill="#FFCF6A" d="M12.5,16.6c-3.2,3.2-2.6,5.6-3.2,10.6c-0.6,4.9-2.8,8.6-4.7,8.7c-1.9,0.1-3.3-1.1-3.3-1.1
		c0,0.1-0.1,0.2-0.1,0.3c-0.6,3.9,0.6,4.2,1.9,6.1c0.8,1.3,1.1,2.3,1.2,3.9c7.6-2.4,7.8-12.2,7.8-12.2l1.1-3.7
		c0.2-0.9,0.4-1.9,0.6-2.9C15,21.4,18,17.3,20,15C18,14.3,14.8,14.2,12.5,16.6z"/>
	<path fill="#F9B3A1" d="M53.5,56.9c-0.6-2.9,0-9.9,0-9.9l0.6-8.1l0.3-5.7l-8.2-13.9c0,0-5-4.8-6.9-6.5c-1.9-1.7-4.9-1.4-4.9-1.4
		s-9.3,0.7-11.4,1.1s-4.2,1.8-4.2,1.8c-1,0.8-1.9,1.7-2.4,2.5c-2.1,2.9-4,8.2-4.3,9c-0.3,0.9-0.3,1.8-0.3,1.8l0,2.4
		c-0.1,1.5-0.3,4.9-0.6,7.9c-0.5,6.8,2.3,10.3,2.3,10.3c1.6,7.6,5.6,12.8,5.6,12.8c1.2,3,2.8,5.1,4.4,6.5l2.5,6.4c0,0-2,3.8,1,5.7
		c3,1.9,14.1-2.6,14.1-2.6s14.4-5.5,15.7-12.1C56.6,64.8,54.1,59.8,53.5,56.9z"/>
	<path fill="#D3716A" d="M25.7,73.8L25.7,73.8c0,0-0.2,0.3-0.4,0.9c0.3,1.1,2,3.5,2,3.5L25.7,73.8z"/>
	<path fill="#F2A697" d="M53.3,50.4l1.2,0.1c0,0,1.8,0.1,2.3-2.1l2.9-11.9L54,38.9L53.3,50.4z"/>
	<g>
		<path fill="#D3716A" d="M28.3,70.5c0,0-0.4,0-0.9-0.1c-0.3-0.1-0.6-0.2-0.9-0.3c-0.3-0.1-0.7-0.3-1-0.5c-0.3-0.2-0.6-0.4-0.9-0.7
			c-0.3-0.2-0.5-0.5-0.7-0.7c-0.4-0.4-0.6-0.8-0.6-0.8l0,0c0,0,1.1,1,2.3,1.8c0.6,0.4,1.3,0.7,1.8,0.9C28,70.3,28.3,70.4,28.3,70.5
			L28.3,70.5z"/>
	</g>
	<g>
		<path fill="#F69487" d="M25.6,64.2c0,0,0.1,0.2,0.4,0.5c0.3,0.3,0.7,0.7,1.3,1.1c0.3,0.2,0.6,0.3,1,0.5c0.4,0.1,0.8,0.2,1.2,0.3
			c0.4,0.1,0.9,0.1,1.3,0.1c0.5,0,0.9-0.1,1.4-0.1c1.9-0.2,3.7-0.7,5-1.2c1.3-0.5,2.1-0.9,2.1-0.9l0,0c0,0-0.8,0.6-2.1,1.2
			c-0.7,0.3-1.4,0.6-2.3,0.8c-0.4,0.1-0.9,0.2-1.3,0.3c-0.5,0.1-0.9,0.2-1.4,0.3c-0.5,0.1-1,0.1-1.4,0.1c-0.5,0-1,0-1.4-0.1
			c-0.5-0.1-0.9-0.2-1.3-0.4c-0.4-0.2-0.7-0.4-1.1-0.6c-0.6-0.4-1-0.9-1.2-1.3C25.6,64.4,25.6,64.2,25.6,64.2L25.6,64.2z"/>
	</g>
	<g>
		<path fill="#F69487" d="M42.2,62.7c0,0,0.2-0.2,0.4-0.6c0.2-0.3,0.5-0.8,0.7-1.3c0.5-1,0.6-2.1,0.6-2.1l0,0c0,0,0,0.1,0,0.2
			c0,0.1,0,0.3,0,0.5c0,0.2,0,0.5-0.1,0.7c-0.1,0.3-0.2,0.5-0.3,0.8c-0.1,0.3-0.3,0.5-0.4,0.7c-0.1,0.2-0.3,0.4-0.5,0.6
			c-0.1,0.2-0.3,0.3-0.4,0.3C42.3,62.6,42.2,62.7,42.2,62.7L42.2,62.7z"/>
	</g>
	<g>
		<path fill="#F69487" d="M28.7,59.9c0,0,0.3-0.2,0.9-0.5c0.3-0.1,0.6-0.2,1-0.3c0.4-0.1,0.8-0.2,1.2-0.2c0.4,0,0.8-0.1,1.2-0.1
			c0.4,0,0.7,0,1,0c0.3,0,0.6,0.1,0.7,0.1c0.2,0,0.3,0,0.3,0l0,0c0,0-1.6,0-3.2,0.2c-0.8,0.1-1.6,0.3-2.1,0.4
			C29.1,59.8,28.7,60,28.7,59.9L28.7,59.9z"/>
	</g>
	<g>
		<path fill="#F69487" d="M22.6,53.9c0,0-0.4-0.7-0.8-1.8c-0.2-0.6-0.4-1.2-0.4-2c0-0.7,0-1.5,0.1-2.3c0.1-1.6,0.4-3.1,0.7-4.3
			c0.1-0.6,0.4-1.1,0.6-1.4c0.2-0.3,0.4-0.5,0.4-0.5l0.5,0.7c0,0-0.1,0.1-0.3,0.3c-0.2,0.2-0.4,0.6-0.6,1.1c-0.4,1.1-0.7,2.6-1,4.1
			c-0.1,0.8-0.2,1.5-0.3,2.3c0,0.7,0.1,1.4,0.3,1.9C22.2,53.2,22.6,53.9,22.6,53.9z"/>
	</g>
	<path fill="#F69487" d="M40.1,51.6C40.1,51.6,40.1,51.5,40.1,51.6c0.5-1.4-0.2-2.6-0.2-2.6c-0.5-1.1-1.6-2.9-2.8-4.9
		c-1.7-2.6-3.3-4.4-3.3-4.4l0.2-0.5c0,0,1.8,1.8,3.4,4.2c1.5,2.4,2.3,4.3,2.7,5.3c0,0,0.6,1.3,0.2,2.7
		C40.2,51.4,40.2,51.5,40.1,51.6L40.1,51.6z"/>
	<path fill="#F1F2F2" d="M26.2,49.3c0,0,0,0.5,0.3,1c0,0,0.4,0,0.9,0c0,0,0.2-0.2,0.3-0.4l0.1,0.1c0,0,1,0,1.6-0.1
		c0,0,0.3,0,0.3-0.2l0.1-0.2l0.3,0.3c0,0,1.4,0,1.9-0.3l0.3-0.5l0.3,0.3c0,0,0.6,0,1.1,0c0,0,0.3-0.2,0.4-0.5l0.5,0.3
		c0,0,0.8,0,1.4-0.1c0,0-2.3-2.5-7.1-1.2C28.9,47.9,27,48.4,26.2,49.3z"/>
	<path fill="#E7AD4B" d="M12.6,32.1c0,0,1-3.4,5.4-4.9c2.4-0.8,4.4,0.1,5.7,1.1c0,0,0.2,0.2,0,0.3c-0.2,0.1-1.4,0.7-2.4,0.7
		c0,0-2.2-1.4-4.6-0.4c-1.4,0.5-2.2,1.3-2.6,1.8C14,30.6,13.1,31.6,12.6,32.1z"/>
	<path fill="#E7AD4B" d="M32.7,27c0,0-1.2,0.5-2.8,0.7c0,0-0.2,0.1-0.1-0.3c0.1-0.4,0.6-2.4,3.1-3.1c2.5-0.6,8.1,0.2,10.2,1.9
		c0,0-6.1-2.1-8.8-0.8C33.3,25.9,32.9,26.5,32.7,27L32.7,27z"/>
	<path fill="#FFFFFF" d="M16.7,34.4c0,0,1.2,0.4,2.3,0.1c1.1-0.3,2.3-0.8,2.3-0.8l1.2-0.3c0,0-1.2-1.5-2.7-1.6
		c-1.4-0.2-2.8,0.4-3.2,1.5C16.3,34.3,16.7,34.4,16.7,34.4z"/>
	<path fill="#65AABA" d="M20.2,32c0,0-1.4-0.4-2.4,0.3c0,0-0.3,0.8-0.1,1.3c0.2,0.6,0.7,0.9,1.4,0.9c0.4-0.1,0.8-0.2,1.1-0.4
		c0,0,0.4-0.4,0.4-1.1C20.6,32.4,20.2,32,20.2,32z"/>
	<path fill="#876054" d="M15.7,34.7l1-0.4c0,0,0.1-2,2.1-2.1c2-0.1,2.8,0.4,3.7,1.1l0.3-0.1c0,0-1.6-1.3-1.8-1.5
		c-0.2-0.2-1.5-0.8-2.8-0.4c-1.3,0.4-1.7,0.9-2,1.6C16.1,33.8,15.7,34.7,15.7,34.7z"/>
	<g>
		<path fill="#F69487" d="M19.4,38.6c0,0,0.3-0.1,0.7-0.3c0.4-0.2,1-0.6,1.4-1c0.5-0.4,0.9-1,1.1-1.4c0.1-0.2,0.2-0.4,0.3-0.5
			c0.1-0.1,0.1-0.2,0.1-0.2l0.1,0c0,0,0,0.1,0,0.2c0,0.1,0,0.4-0.1,0.6c-0.1,0.2-0.2,0.5-0.4,0.8c-0.2,0.3-0.4,0.5-0.7,0.8
			c-0.3,0.2-0.6,0.4-0.8,0.6c-0.3,0.2-0.6,0.3-0.8,0.3c-0.2,0.1-0.5,0.1-0.6,0.1C19.5,38.6,19.4,38.6,19.4,38.6L19.4,38.6z"/>
	</g>
	<path fill="#FFFFFF" d="M34.3,31c0,0,1.1,0.7,2.8,0.6c1.8-0.1,3.2-1.3,3.2-1.3s-1.6-2.3-3.8-1.6C34.3,29.4,34.3,31,34.3,31z"/>
	<path fill="#65AABA" d="M35.5,29.5c0,0-0.3,1.6,1.2,1.9c1.5,0.3,2.1-1.5,1.7-2.1C38,28.6,37,28.7,37,28.7S35.7,28.8,35.5,29.5z"/>
	<path fill="#876054" d="M33.7,31.2l0.6-0.2c0,0,0.9-1.6,1.9-2c1-0.3,3,0.4,4.1,1.2l0.7,0c0,0-1.2-2.1-3.4-2.3c-2.2-0.2-3,1.7-3,1.7
		L33.7,31.2z"/>
	<g>
		<path fill="#F69487" d="M33.7,33.2c0,0,0.2,0.3,0.6,0.7c0.4,0.4,1,0.8,1.7,1.1c0.7,0.3,1.4,0.4,2,0.5c0.6,0,0.9,0,0.9,0l0,0.1
			c0,0-0.1,0-0.3,0.1c-0.2,0-0.4,0.1-0.7,0.1c-0.3,0-0.6,0.1-1,0c-0.4-0.1-0.8-0.1-1.2-0.3c-0.4-0.2-0.7-0.4-1-0.6
			c-0.3-0.2-0.5-0.5-0.7-0.8C33.7,33.6,33.6,33.2,33.7,33.2L33.7,33.2z"/>
	</g>
	<path fill="#F2805F" d="M28.5,43.6c0,0-3.4,0.4-4.4-0.1c-1.1-0.5-2-2.2,0.6-5.7c0,0,0.1-6.7,0.5-8.4c0.4-1.6,1.7-1.6,2.4-1.3
		c0.7,0.3,1.3,0.9,1.7,2.1c0.4,1.2,2.5,7.2,2.5,7.2s2.8,1.2,2.6,2.9c0,0.6-0.3,1-0.6,1.5c0,0-0.6,0.5-1.4,0.8
		C31.6,43,28.5,43.6,28.5,43.6z"/>
	<path fill="#FFCF6A" d="M55.5,15l-14.2-0.9c0.7,1.3,1.1,2.2,1.1,2.2l1.3,2.5l5.2,9.9l14.2,5.1c0.5-0.8,0.9-1.7,1-2.4
		c0.3-3-2.4-8.1-6.3-13.2C57.2,17.3,56.4,16.1,55.5,15z"/>
	<path fill="#FBC15A" d="M64.9,35L64.9,35C64.9,35,64.9,34.9,64.9,35C64.9,34.9,64.9,34.9,64.9,35c-0.3-1.4-2.2-3.3-2.2-3.3l0,0
		c-1.6-1.6-4.2-3.2-7.1-3.2c-3.6,0-6.2-2-7.9-3.8c-1.7-1.8-5.3-8.3-5.3-8.3l-0.1-0.2l7.7,14.6c0,0,2,3.7,2.9,4.2l-0.2,4.5l0,0
		c2.1,1.5,5.3-1,7.2-2.7c1.9-1.6,4,0.2,4,0.2c0.5-0.6,0.8-0.9,0.9-1.5C64.9,35.4,64.9,35.2,64.9,35z"/>
	<path fill="#7DC89B" d="M54.6,49.6c0.1,0,0.5,0.2,0.9,0c0,0,0,0,0,0l0,0c0.2-0.2,0.5-0.6,0.5-1.2c0-1.5-1-1.9-1-1.9
		s-1.1-0.3-1.3,1.3C53.7,48.8,54.3,49.4,54.6,49.6z"/>
	<path fill="#5E1F1B" d="M25.9,55.4c0,0-1.4-1-1.2-3.3c0.2-2.3,1.4-4.1,4.6-4.6c3.2-0.5,6.9,0.3,8.7,3.4c0,0-1,4.2-7.5,5.2
		C30.5,56.1,27.7,56.9,25.9,55.4z"/>
	<path fill="#DF3926" d="M25.4,50.6c0.6-1.1,2.1-1.8,2.5-1.9c0.2,0,0.5-0.1,0.8-0.1c0,0,0.4-0.1,0.7-0.2c0.4-0.1,2.4-0.7,4.1-0.3
		c1.7,0.4,3.7,2.1,4.5,2.9c-0.1-0.7-0.8-1.6-0.8-1.6L36,48.2c-0.7-0.7-1.5-1.3-2.7-1.6c-3.1-0.8-4.1,0.3-4.1,0.3s-1.4-0.8-3.5,0.9
		c-2.1,1.7-1.8,3.4-1.6,3.9c0.2,0.6,0.5,1.5,0.5,1.5h0l0.1,0C24.8,53.2,24.8,51.7,25.4,50.6z"/>
	<path fill="#DF867C" d="M27,55.1c0,0-1.3-1.3,0.1-2.7c1.4-1.4,3.9-0.8,4.2-0.5c0,0,1-0.9,2.7-0.9c1.3,0,3.1,0.5,3.8,0.8
		c0,0-2,3.2-6,4.2C27.8,56.8,27,55.1,27,55.1z"/>
	<path opacity="0.9" fill="#D8746C" d="M30.4,52.7c0.4-0.4,0.9-0.8,0.9-0.8c-0.1,0-0.2-0.1-0.3-0.2C30.6,52.1,30.4,52.7,30.4,52.7z"
		/>
	<path fill="#FFFFFF" d="M27,55.1v-0.2c0,0,0.2-0.5,0.5-0.8c0,0,3.6-0.2,5.2-0.5c0.5-0.1,1-0.3,1.5-0.5c0,0,0.2-0.1,0.5,0.1
		c0.2,0.2,0.8,1,0.8,1s-3.4,2.2-6,2c-2.6-0.2-2.4-0.5-2.4-0.5V55.1z"/>
	<path fill="#EF4123" d="M35.8,53.4L35.8,53.4c0,0-0.1,0-0.1,0.1c0,0-0.1,0-0.1,0.1c0,0,0,0,0,0c-4.2,1.9-6.2,1.8-6.2,1.8l0,0
		c-0.1,0-0.1,0-0.1,0s-4,0.3-4.4-2.1l-0.2,0c0,0-0.9,2.8,3,3.9c3.9,1.1,8-1.6,9.8-4.3c0.4-0.6,0.5-1.2,0.7-1.8
		C38,50.9,37.4,52.6,35.8,53.4z"/>
	<path fill="#FFDC79" d="M55.6,23.5c-3.7-2-7.5-9.6-7.5-9.6s-4.5-8.1-9.2-10c-4.7-1.9-12-1.3-14.3,2c-1.6,2.3-0.5,4.9,0.3,6.3
		c0.6-0.1,1.4-0.1,2.1-0.2l0,0c0,0-1.8-3.1,1.3-5.5c0,0,2.5-2.2,6.5-0.3c4,2,7.5,10,7.5,10l0.1,0.2c0,0,3.6,6.5,5.3,8.3
		c1.7,1.8,4.3,3.7,7.9,3.8c2.9,0,5.5,1.6,7.1,3.2c0,0,0.5,0.5,1.1,1.2C63.8,29,59.3,25.4,55.6,23.5z"/>
</g>
</svg>
