<?xml version="1.0" encoding="utf-8"?>
<!-- Generator: Adobe Illustrator 18.0.0, SVG Export Plug-In . SVG Version: 6.00 Build 0)  -->
<!DOCTYPE svg PUBLIC "-//W3C//DTD SVG 1.1//EN" "http://www.w3.org/Graphics/SVG/1.1/DTD/svg11.dtd">
<svg version="1.1" id="Layer_1" xmlns="http://www.w3.org/2000/svg" xmlns:xlink="http://www.w3.org/1999/xlink" x="0px" y="0px"
	 viewBox="0 0 51.8 62.1" enable-background="new 0 0 51.8 62.1" xml:space="preserve">
<g>
	<g>
		<g>
			<path fill="#D8D4C6" d="M48.9,28.8l-0.1-0.6l-1.8-0.6l-6.3,3l-0.3,2.2l3.6,1.8l4.3,6.8c1.4-0.8,2.7-2.2,3-4.9
				C52,30.6,48.9,28.8,48.9,28.8z"/>
		</g>
	</g>
	<path fill="#C4C1B5" d="M44.3,33.5c0,0,4.7,4.4,5.3,9.2c0.3,2.4-0.6,4.2-1.6,5.5l-5.8,1.6c0,0-2.7-3-2.5-7.8
		c0.3-4.8,0.8-10.5,0.8-10.5L44.3,33.5z"/>
	<path fill="#B2AEA3" d="M42.1,38.8c0,0,3,1.7,2.7,5.3c-0.2,3.6-1.4,6-1.4,6l-1.3-0.3c0,0-2.5-2.6-2.5-7.3l0.3-4.5L42.1,38.8z"/>
	<polygon fill="#B2AEA3" points="20.5,9.7 27.4,9.4 32.7,13.6 32.3,10.3 30.3,7 26.8,4 23.5,3.4 20.3,4.3 18.9,6.7 19.1,8.6 	"/>
	<path fill="#D8D4C6" d="M32.1,12.6c0,0-2.7-6.3-5.9-7.8c-3.1-1.5-5.1,0.2-5.1,0.2c-2.4,1.8-1,4.3-1,4.3l0.3,0.4L17,10.8l-1.3-3.2
		c0,0-2-2.5,1.4-5.4c3.4-2.8,9.2-2.8,14.3-1c5.2,1.8,9.6,8.9,12.7,12.9c3,3.9,5.1,7.9,4.9,10.2c-0.1,0.6-0.3,1.2-0.8,1.9l-11-4
		l-4.1-7.7L32.1,12.6z"/>
	<g>
		<g>
			<path fill="#C4C1B5" d="M9.5,22.7l-0.9,2.9c0,0-0.2,7.6-6,9.5c0,0.6,0,1.4,0,2.3c0,2.8,2.1,4.4,3.3,5C7.1,42.9,9,44.1,9,44.1
				l0.7-7.6c0,0,0.3-0.7-0.4-2.8C8.8,31.8,8.5,27.6,9.5,22.7z"/>
		</g>
	</g>
	<path fill="#B2AEA3" d="M9.2,36.7L9,44c0,0,0.2,5.2,4.9,7.2c1.3,0.6,2.7,0.6,3.9,0.5L9.7,36.5L9.2,36.7z"/>
	<path fill="#7DC89B" d="M10.7,44c0,0-0.2-0.9,0.2-1.5c0.4-0.6,1.5,0.9,1.5,0.9l-0.2,0.5c0,0,0.2,1.2-0.4,1.3
		C10.9,45.3,10.7,44,10.7,44z"/>
	<path fill="#D8D4C6" d="M1,25.6c0,0-1.5-6.5-0.8-9.3C0.9,13.4,3.8,7,10.1,5.9c3.8-0.6,6.6,2.1,8.1,4.4l-3.5,1.3L12,9.2l-3,1.7
		l-1.8,0.4l-0.7,2.4l-1,1.3l0.2,4.5l-0.4,3.6l-0.8,2.2L3,26.6H1.6L1,25.6z"/>
	<path fill="#EBE8D8" d="M12.4,7.3C10.6,7,6.9,7.6,4.9,11.4c-2,3.8-0.7,8-0.7,8c0.2,0.7,0.3,2.2-0.1,4.2C3.6,26.8,1,25.6,1,25.6
		C0.6,26,0.3,26.4,0.2,27c0,0,1.1,1,2.6,0.9C4.3,27.7,6,24.9,6.4,21c0.5-3.8,0-5.7,2.5-8.2c1.8-1.8,4.3-1.7,5.9-1.2c0,0,0,0,0,0
		c0.9-1,1.5-1.6,1.5-1.6C15.8,9,14.2,7.6,12.4,7.3z"/>
	<path fill="#D8D4C6" d="M8.9,12.9c-2.5,2.5-2,4.4-2.5,8.2c-0.5,3.8-2.2,6.7-3.7,6.8C1.3,27.9,0.2,27,0.2,27c0,0.1,0,0.2-0.1,0.3
		c-0.5,3,0.5,3.2,1.5,4.7c0.7,1,0.9,1.8,1,3.1c5.9-1.9,6-9.5,6-9.5l0.9-2.9c0.1-0.7,0.3-1.5,0.5-2.2c0.9-3.8,3.3-7,4.8-8.8
		C13.2,11.1,10.7,11,8.9,12.9z"/>
	<path fill="#F9B3A1" d="M40.8,44.2c-0.4-2.3,0-7.7,0-7.7l0.4-6.3l0.2-4.4L35,15c0,0-3.9-3.7-5.3-5c-1.5-1.3-3.8-1.1-3.8-1.1
		S18.6,9.4,17,9.7s-3.3,1.4-3.3,1.4c-0.8,0.6-1.5,1.3-1.9,1.9c-1.6,2.2-3.1,6.3-3.4,7c-0.2,0.7-0.2,1.4-0.2,1.4l0,1.9
		c-0.1,1.2-0.3,3.8-0.4,6.1c-0.4,5.3,1.8,8,1.8,8c1.2,5.9,4.3,9.9,4.3,9.9c0.9,2.3,2.2,3.9,3.4,5.1l1.9,4.9c0,0-1.6,2.9,0.8,4.4
		c2.4,1.5,11-2,11-2s11.2-4.3,12.2-9.4C43.1,50.3,41.2,46.4,40.8,44.2z"/>
	<path fill="#D3716A" d="M19.2,57.3L19.2,57.3c0,0-0.1,0.3-0.3,0.7c0.3,0.8,1.6,2.7,1.6,2.7L19.2,57.3z"/>
	<path fill="#F2A697" d="M40.6,39.2l0.9,0.1c0,0,1.4,0.1,1.8-1.6l2.3-9.3l-4.3,1.8L40.6,39.2z"/>
	<g>
		<path fill="#D3716A" d="M21.2,54.7c0,0-0.3,0-0.8-0.1c-0.2-0.1-0.5-0.1-0.7-0.2c-0.3-0.1-0.5-0.2-0.8-0.4
			c-0.2-0.2-0.5-0.3-0.7-0.5c-0.2-0.2-0.4-0.4-0.5-0.5c-0.3-0.3-0.4-0.6-0.4-0.6l0,0c0,0,0.8,0.8,1.8,1.4c0.5,0.3,1,0.6,1.4,0.7
			C20.9,54.6,21.2,54.7,21.2,54.7L21.2,54.7z"/>
	</g>
	<g>
		<path fill="#F69487" d="M19.1,49.8c0,0,0.1,0.2,0.3,0.4c0.2,0.2,0.5,0.6,1,0.8c0.5,0.3,1.1,0.5,1.7,0.6c0.3,0,0.7,0.1,1,0.1
			c0.4,0,0.7-0.1,1.1-0.1c1.4-0.2,2.8-0.6,3.9-0.9c1-0.4,1.7-0.7,1.7-0.7l0,0c0,0-0.6,0.5-1.6,1c-0.5,0.2-1.1,0.5-1.8,0.7
			c-0.3,0.1-0.7,0.2-1,0.3c-0.4,0.1-0.7,0.2-1.1,0.2c-0.3,0-0.8,0.1-1.1,0.1c-0.4,0-0.8,0-1.1-0.1c-0.7-0.1-1.4-0.4-1.8-0.8
			c-0.5-0.3-0.8-0.7-0.9-1C19.1,50,19,49.8,19.1,49.8L19.1,49.8z"/>
	</g>
	<g>
		<path fill="#F69487" d="M32,48.6c0,0,0.6-0.7,0.9-1.5c0.4-0.8,0.5-1.6,0.5-1.6l0,0c0,0,0.1,0.2,0.1,0.6c0,0.2,0,0.4-0.1,0.6
			c-0.1,0.2-0.1,0.4-0.2,0.6c-0.1,0.2-0.2,0.4-0.3,0.6c-0.1,0.2-0.3,0.3-0.4,0.4c-0.1,0.1-0.3,0.2-0.3,0.3C32,48.6,32,48.7,32,48.6
			L32,48.6z"/>
	</g>
	<g>
		<path fill="#F69487" d="M21.5,46.5c0,0,0.3-0.2,0.7-0.4c0.2-0.1,0.5-0.2,0.8-0.3c0.3-0.1,0.6-0.1,0.9-0.2c0.3,0,0.6-0.1,0.9-0.1
			c0.3,0,0.6,0,0.8,0c0.2,0,0.4,0.1,0.6,0.1c0.1,0,0.2,0,0.2,0l0,0c0,0-1.2,0-2.4,0.2c-0.6,0.1-1.2,0.2-1.7,0.3
			C21.8,46.4,21.5,46.5,21.5,46.5L21.5,46.5z"/>
	</g>
	<g>
		<path fill="#F69487" d="M16.8,41.8c0,0-0.3-0.5-0.6-1.4c-0.2-0.4-0.3-0.9-0.4-1.5c0-0.6,0-1.2,0.1-1.8c0.1-1.2,0.3-2.4,0.5-3.3
			c0.1-0.4,0.3-0.9,0.5-1.1c0.2-0.3,0.4-0.4,0.4-0.4l0.5,0.7c0,0-0.1,0.1-0.2,0.2c-0.1,0.2-0.3,0.4-0.4,0.8c-0.3,0.8-0.6,2-0.8,3.2
			c-0.1,0.6-0.2,1.2-0.2,1.7c0,0.5,0.1,1.1,0.2,1.5C16.5,41.3,16.8,41.8,16.8,41.8z"/>
	</g>
	<path fill="#F69487" d="M30.4,40C30.4,40,30.3,40,30.4,40c0.4-1.1-0.1-2-0.1-2c-0.4-0.8-1.2-2.3-2.2-3.8c-1.3-2-2.6-3.4-2.6-3.4
		l0.2-0.4c0,0,1.4,1.4,2.6,3.3c1.2,1.9,1.8,3.4,2.1,4.1c0,0,0.5,1,0.2,2.1C30.4,39.9,30.4,39.9,30.4,40L30.4,40z"/>
	<path fill="#F1F2F2" d="M19.6,38.3c0,0,0,0.4,0.2,0.8c0,0,0.3,0,0.7,0c0,0,0.2-0.2,0.2-0.3l0.1,0.1c0,0,0.8,0,1.3-0.1
		c0,0,0.2,0,0.3-0.1l0.1-0.2l0.2,0.2c0,0,1.1,0,1.5-0.2l0.2-0.4l0.2,0.2c0,0,0.4,0,0.8,0c0,0,0.2-0.1,0.3-0.4l0.4,0.2
		c0,0,0.6,0,1.1-0.1c0,0-1.8-1.9-5.5-0.9C21.6,37.2,20.2,37.6,19.6,38.3z"/>
	<path fill="#B2AEA3" d="M9,24.9c0,0,0.8-2.6,4.2-3.8c1.9-0.6,3.4,0.1,4.4,0.9c0,0,0.1,0.1,0,0.2c-0.1,0.1-1.1,0.5-1.9,0.5
		c0,0-1.7-1.1-3.5-0.3c-1.1,0.4-1.7,1-2,1.4C10.1,23.8,9.4,24.5,9,24.9z"/>
	<path fill="#B2AEA3" d="M24.6,21c0,0-0.9,0.4-2.1,0.5c0,0-0.2,0.1-0.1-0.3c0.1-0.3,0.5-1.9,2.4-2.4c1.9-0.5,6.3,0.2,7.9,1.5
		c0,0-4.7-1.6-6.9-0.6C25.1,20.1,24.7,20.5,24.6,21L24.6,21z"/>
	<path fill="#FFFFFF" d="M12.2,26.7c0,0,0.9,0.3,1.8,0.1c0.8-0.2,1.8-0.7,1.8-0.7l0.9-0.2c0,0-1-1.1-2.1-1.3
		c-1.1-0.1-2.1,0.3-2.5,1.2C11.9,26.6,12.2,26.7,12.2,26.7z"/>
	<path fill="#65AABA" d="M14.9,24.8c0,0-1.1-0.3-1.9,0.2c0,0-0.2,0.6-0.1,1c0.1,0.4,0.5,0.7,1.1,0.7c0.3-0.1,0.6-0.2,0.9-0.3
		c0,0,0.3-0.3,0.3-0.8C15.2,25.1,14.9,24.8,14.9,24.8z"/>
	<path fill="#876054" d="M11.4,27l0.8-0.3c0,0,0.1-1.5,1.6-1.6c1.5-0.1,2.1,0.3,2.9,0.9l0.3-0.1c0,0-1.2-1-1.4-1.1
		c-0.2-0.2-1.2-0.6-2.1-0.3c-1,0.3-1.3,0.7-1.5,1.2C11.7,26.2,11.4,27,11.4,27z"/>
	<g>
		<path fill="#F69487" d="M14.2,29.9c0,0,0.2-0.1,0.6-0.2c0.3-0.2,0.8-0.5,1.1-0.8c0.4-0.3,0.7-0.7,0.9-1.1c0.2-0.3,0.3-0.6,0.3-0.6
			l0.1,0c0,0,0,0.1,0,0.2c0,0.1,0,0.3-0.1,0.5c-0.1,0.2-0.1,0.4-0.3,0.7c-0.1,0.2-0.3,0.4-0.5,0.6c-0.2,0.2-0.4,0.3-0.7,0.5
			c-0.2,0.1-0.5,0.2-0.7,0.2c-0.2,0.1-0.4,0-0.5,0C14.3,30,14.3,30,14.2,29.9L14.2,29.9z"/>
	</g>
	<path fill="#FFFFFF" d="M25.9,24.1c0,0,0.8,0.5,2.2,0.4c1.4-0.1,2.5-1,2.5-1s-1.3-1.8-3-1.3C25.9,22.8,25.9,24.1,25.9,24.1z"/>
	<path fill="#65AABA" d="M26.8,22.9c0,0-0.2,1.2,0.9,1.5c1.1,0.2,1.7-1.2,1.4-1.7c-0.3-0.5-1.1-0.4-1.1-0.4S27,22.3,26.8,22.9z"/>
	<path fill="#876054" d="M25.4,24.2l0.5-0.1c0,0,0.7-1.3,1.5-1.5c0.8-0.3,2.4,0.3,3.2,1l0.5,0c0,0-0.9-1.7-2.6-1.8s-2.3,1.3-2.3,1.3
		L25.4,24.2z"/>
	<g>
		<path fill="#F69487" d="M25.4,25.7c0,0,0.1,0.3,0.4,0.6c0.3,0.3,0.8,0.6,1.3,0.8c0.5,0.2,1.1,0.3,1.5,0.4c0.4,0,0.7,0,0.7,0l0,0.1
			c0,0-0.1,0-0.2,0.1c-0.1,0-0.3,0.1-0.5,0.2c-0.2,0-0.5,0.1-0.8,0c-0.3,0-0.6-0.1-0.9-0.2c-0.3-0.1-0.6-0.3-0.8-0.5
			c-0.2-0.2-0.4-0.4-0.5-0.6C25.3,26.1,25.3,25.8,25.4,25.7L25.4,25.7z"/>
	</g>
	<path fill="#F2805F" d="M21.3,33.9c0,0-2.6,0.3-3.4-0.1c-0.8-0.4-1.5-1.7,0.4-4.4c0,0,0.1-5.2,0.4-6.5c0.3-1.3,1.3-1.3,1.9-1
		c0.6,0.3,1,0.7,1.4,1.6c0.3,0.9,2,5.6,2,5.6s2.1,1,2,2.3c0,0.4-0.2,0.8-0.5,1.2c0,0-0.4,0.4-1.1,0.6C23.8,33.4,21.3,33.9,21.3,33.9
		z"/>
	<path fill="#D8D4C6" d="M42.3,11.6l-11-0.7c0.5,1,0.8,1.7,0.8,1.7l1,2l4.1,7.7l11,4c0.4-0.6,0.7-1.3,0.8-1.9
		c0.2-2.3-1.8-6.3-4.9-10.2C43.6,13.4,43,12.5,42.3,11.6z"/>
	<path fill="#C4C1B5" d="M49.6,27.1L49.6,27.1C49.6,27.1,49.6,27.1,49.6,27.1C49.6,27.1,49.6,27.1,49.6,27.1
		c-0.2-1.1-1.7-2.5-1.7-2.5l0,0c-1.2-1.3-3.2-2.5-5.5-2.5c-2.8,0-4.8-1.6-6.1-2.9c-1.3-1.4-4.1-6.4-4.1-6.4l-0.1-0.1l6,11.3
		c0,0,1.6,2.9,2.3,3.2l-0.2,3.5l0,0c1.7,1.2,4.1-0.8,5.5-2.1c1.4-1.3,3.1,0.2,3.1,0.2c0.4-0.4,0.6-0.7,0.7-1.2
		C49.6,27.5,49.6,27.3,49.6,27.1z"/>
	<path fill="#7DC89B" d="M41.6,38.5c0,0,0.4,0.2,0.7,0c0,0,0,0,0,0l0,0c0.2-0.2,0.4-0.4,0.4-1c0-1.2-0.8-1.5-0.8-1.5s-0.9-0.2-1,1
		C40.9,37.9,41.3,38.3,41.6,38.5z"/>
	<path fill="#5E1F1B" d="M19.3,43c0,0-1.1-0.7-0.9-2.5c0.2-1.8,1.1-3.1,3.6-3.5c2.5-0.4,5.4,0.2,6.7,2.6c0,0-0.7,3.3-5.9,4
		C22.9,43.6,20.8,44.2,19.3,43z"/>
	<path fill="#DF3926" d="M18.9,39.3c0.5-0.8,1.6-1.4,1.9-1.5c0.1,0,0.4-0.1,0.6-0.1c0,0,0.3,0,0.6-0.2c0.3-0.1,1.8-0.5,3.1-0.2
		c1.3,0.3,2.9,1.6,3.5,2.2c-0.1-0.5-0.7-1.2-0.7-1.2l-0.9-1c-0.5-0.5-1.2-1-2.1-1.3c-2.4-0.6-3.2,0.2-3.2,0.2s-1.1-0.6-2.7,0.7
		c-1.7,1.3-1.4,2.6-1.3,3.1c0.2,0.4,0.4,1.2,0.4,1.2h0l0.1,0C18.5,41.3,18.5,40.1,18.9,39.3z"/>
	<path fill="#DF867C" d="M20.2,42.8c0,0-1-1,0.1-2.1c1.1-1.1,3-0.6,3.3-0.4c0,0,0.8-0.7,2.1-0.7c1,0,2.4,0.4,2.9,0.6
		c0,0-1.5,2.5-4.6,3.2C20.8,44.1,20.2,42.8,20.2,42.8z"/>
	<path opacity="0.9" fill="#D8746C" d="M22.8,40.9c0.3-0.3,0.7-0.6,0.7-0.6c0,0-0.1-0.1-0.3-0.1C22.9,40.5,22.8,40.9,22.8,40.9z"/>
	<path fill="#FFFFFF" d="M20.2,42.8v-0.2c0,0,0.2-0.4,0.4-0.6c0,0,2.8-0.1,4.1-0.4c0.4-0.1,0.8-0.2,1.1-0.4c0,0,0.2-0.1,0.4,0.1
		c0.2,0.2,0.6,0.8,0.6,0.8S24,43.8,22,43.6c-2-0.2-1.9-0.4-1.9-0.4V42.8z"/>
	<path fill="#EF4123" d="M27,41.5L27,41.5C27,41.5,26.9,41.5,27,41.5c-0.1,0.1-0.2,0.1-0.2,0.1c0,0,0,0,0,0C23.5,43,22,42.9,22,42.9
		l0,0c0,0-0.1,0-0.1,0s-3.1,0.2-3.4-1.6l-0.2,0c0,0-0.7,2.2,2.3,3s6.2-1.3,7.6-3.4c0.3-0.4,0.4-0.9,0.5-1.4
		C28.7,39.5,28.2,40.8,27,41.5z"/>
	<path fill="#EBE8D8" d="M42.4,18.2c-2.9-1.5-5.8-7.5-5.8-7.5S33.1,4.5,29.4,3c-3.7-1.5-9.3-1-11.1,1.6c-1.2,1.8-0.4,3.8,0.2,4.9
		c0.5-0.1,1.1-0.1,1.7-0.2l0,0c0,0-1.4-2.4,1-4.3c0,0,2-1.7,5.1-0.2c3.1,1.5,5.9,7.8,5.9,7.8l0.1,0.1c0,0,2.8,5.1,4.1,6.4
		c1.3,1.4,3.3,2.9,6.1,2.9c2.2,0,4.2,1.2,5.5,2.5c0,0,0.4,0.4,0.8,0.9C48.8,22.5,45.3,19.8,42.4,18.2z"/>
</g>
</svg>
