<?xml version="1.0" encoding="utf-8"?>
<!-- Generator: Adobe Illustrator 18.0.0, SVG Export Plug-In . SVG Version: 6.00 Build 0)  -->
<!DOCTYPE svg PUBLIC "-//W3C//DTD SVG 1.1//EN" "http://www.w3.org/Graphics/SVG/1.1/DTD/svg11.dtd">
<svg version="1.1" id="Layer_1" xmlns="http://www.w3.org/2000/svg" xmlns:xlink="http://www.w3.org/1999/xlink" x="0px" y="0px"
	 viewBox="0 0 160 130" enable-background="new 0 0 160 130" xml:space="preserve">
<g>
	<path fill="#00427A" d="M69.2,129.7h86.8c-1.2-10.4-3.9-25.3-9.9-39.7c-2-4.8-3.9-9.3-5.8-13.6c0,0-3.9-9.3-6.2-12
		c-2.3-2.7-6.3-2.3-6.3-2.3H89.1l-9.2,6.3c0,0-6.6,5.5-16.9,7.2v30.4c0,0-0.7,6.4,2.7,11.6C67.4,120.1,68.6,124.8,69.2,129.7z"/>
	<g>
		<g>
			<path fill="#00427A" d="M29.8,100.4c0.8-0.2,2.5,0.3,2.5,0.3c1.5,0.4,3.4,1,6,1.8c0.7,0.2,1.3,0.4,1.9,0.7
				c0.7-0.2,1.8-0.5,3.3-0.4l0.1-0.1c7.3-4.3,12.5-18.5,12.5-18.5c0.5-1.4,1.1-2.8,1.6-3.9c1.2-2.5,2.8-4.3,5.2-4.7l3.3,4.6
				L65.8,114c0,0,0.2,1.5-0.7,2.4c-1,0.9-8,8.3-17.2,8.4c-3.3,0-7.1-0.4-10.6-0.9c0,0,0,0,0,0c-1.9,0.9-3.9,0.2-7.6-3.6
				c-5.3-5.5-5.6-8.1-5.6-8.1C21.9,104.4,28.9,100.6,29.8,100.4z"/>
			<path fill="none" d="M37.3,123.9c0.8-0.4,1.6-1.1,2.5-1.9"/>
			<path fill="none" d="M49.4,108.7c0,0-3.4-3.4-9.2-5.7"/>
			<path fill="#4B6F89" d="M36,123c0,0,4,0.3,4.2-7.5c0.1-7.7-5.2-12.1-6.1-13c-0.9-0.8-5.4-3.1-5.4-3.1l-2.4-0.3l-3.3,5.5l-0.9,5.4
				l2.2,0.9c0,0,0.5,2.2,3.1,5.2c2.7,3,6,5.8,6,5.8S34.5,122.9,36,123z"/>
			<path fill="#F8B3A1" d="M8.6,98.5c0.6-0.7,0.3-2,0.3-2c-0.1-0.6-0.2-1.2-0.2-1.5c0-1.1,1.3-1.9,2.5-2.4c1.3-0.6,3.3-1.1,3.3-1.1
				l0.5-0.5c-0.4-0.4-1.7-1.8-1.7-1.8c-1.1-0.9-1.9-1.7-2.4-2.3c-1.6-2.1-1.8-6.2,0.2-6.4c2-0.3,3.6,2.9,3.6,2.9
				c0.7,0.7,2.4,2.3,3.2,3.2c0.8,1,2.3,1.3,2.3,1.3s1,0.1,2.4,1.4C23.9,90.5,26,94,26,94c0.9,1.2,1,2.9,1,2.9c0,0.5,0.1,1,0.2,1.1
				c0.3,0.6,1.5,1.4,1.5,1.4s4.5,2.3,5.4,3.1c0.9,0.8,6.2,5.2,6.1,13c0,3.2-0.8,5-1.6,6.1c-3.3-1.8-15.9-11.1-15.9-11.1l-0.4,0.2
				c0,0-4.3,1.8-6,1.8c-1.6,0-2.9-0.6-4-1.2c-1-0.6-1.2-1.7-1.2-1.7s0-0.4-0.1-1.1c-0.1-0.7-0.8-1.2-1.5-2c-0.7-0.8-0.6-1.7-0.6-2.4
				c0-0.7-0.8-1.5-0.8-1.5c-0.3-0.3-0.7-0.8-0.8-1.5C7.3,99.9,8,99.2,8.6,98.5z"/>
			<g>
				<path fill="#F59386" d="M23,105.9c0.3,0,0.7,0.1,0.9,0.3c0.1,0.1,0.3,0.2,0.4,0.4c0.1,0.2,0.1,0.3,0.1,0.5l0,0
					c-0.1,0.9-0.4,1.8-0.8,2.6l0,0c-0.2,0.3-0.4,0.7-0.8,0.9l0-0.1c0.1-0.2,0.2-0.3,0.3-0.5c0.1-0.2,0.1-0.4,0.2-0.5l0,0
					c0.1-0.2,0.1-0.4,0.2-0.6c0.1-0.2,0.1-0.4,0.2-0.6c0.1-0.2,0.1-0.4,0.2-0.6l0.1-0.3l0-0.3l0-0.1c0-0.1,0-0.1,0-0.2
					c0-0.1-0.1-0.2-0.2-0.3c-0.1-0.1-0.2-0.2-0.3-0.3C23.3,106.1,23.1,106,23,105.9L23,105.9z"/>
			</g>
			<g>
				<path fill="#D2716A" d="M22,98.9c0,0-2.6-0.2-5.2-0.4c-0.6-0.1-1.3-0.1-1.9-0.2c-0.6-0.1-1.1-0.3-1.6-0.4
					c-0.9-0.2-1.6-0.4-1.6-0.4l0-0.1c0,0,0.2,0,0.5,0c0.3,0,0.7,0,1.2,0c0.5,0,1.1,0.1,1.6,0.2c0.3,0,0.5,0,0.9,0.1
					c0.3,0,0.6,0,1,0.1c1.3,0.1,2.6,0.3,3.5,0.6c0.5,0.1,0.9,0.3,1.1,0.3C21.9,98.8,22,98.9,22,98.9L22,98.9z"/>
			</g>
			<g>
				<path fill="#D2716A" d="M21.5,103l-4.9,0.8l0,0l0,0c-0.5,0-0.9,0-1.4,0c-0.2,0-0.5-0.1-0.7-0.2c-0.2-0.1-0.4-0.1-0.7-0.2
					c-0.4-0.1-0.9-0.3-1.4-0.4c-0.5-0.1-0.9-0.2-1.4-0.3l0-0.1c0.5-0.1,1,0,1.5,0c0.5,0,1,0.1,1.4,0.2c0.1,0,0.2,0,0.4,0.1
					c0.1,0,0.2,0.1,0.4,0.1c0.1,0,0.3,0.1,0.3,0.1l0.3,0c0.4,0,0.9,0,1.3,0l0,0c0.8-0.1,1.6-0.2,2.5-0.2c0.4,0,0.8,0,1.2,0
					C20.7,102.9,21.1,102.9,21.5,103L21.5,103z"/>
			</g>
			<g>
				<path fill="#D2716A" d="M23,105.9l-1.6,0.8l0,0l0,0c-1.5,0.4-3.1,0.8-4.6,1.2c-0.4,0.1-0.8,0.2-1.2,0.2c-0.4,0.1-0.8,0-1.2-0.1
					c-0.8-0.2-1.5-0.4-2.3-0.6l0-0.1c0.4,0,0.8,0.1,1.2,0.1l1.2,0.1c0.2,0,0.4,0,0.5,0l0.3,0c0,0,0.1,0,0.2,0l1.1-0.3
					c1.5-0.4,3.1-0.7,4.7-0.9l-0.1,0c0.3-0.1,0.6-0.2,0.9-0.2C22.4,106,22.6,105.9,23,105.9L23,105.9z"/>
			</g>
			<polyline fill="#F59386" points="14.5,91.4 15.5,91.3 15,90.9 14.5,91.3 			"/>
			<path fill="none" d="M43.8,102.6c2.2-0.8,5.8-1.3,10.5,0.6c8.4,3.3,10.5,9,10.5,9"/>
			<g>
				<path fill="#F59386" d="M14.3,92.2c0,0,0.8,0.2,2.1,0.5c0.6,0.2,1.4,0.4,2.1,0.7c0.8,0.3,1.5,0.7,2.3,1.2c0.7,0.5,1.5,1,2.1,1.5
					c0.3,0.3,0.6,0.6,0.7,0.9c0.1,0.4,0.3,0.7,0.2,1c0,0.3-0.2,0.6-0.5,0.7c-0.3,0.1-0.5,0.1-0.7,0.1c-0.4,0-0.6,0-0.6,0l0-0.1
					c0,0,0.2,0,0.6-0.1c0.2,0,0.4-0.1,0.6-0.2c0.1-0.1,0.1-0.1,0.2-0.2c0-0.1,0.1-0.2,0.1-0.3c0-0.2-0.1-0.5-0.3-0.9
					c-0.1-0.2-0.4-0.4-0.7-0.7c-0.6-0.5-1.3-0.9-2-1.4c-0.4-0.2-0.7-0.5-1.1-0.7c-0.3-0.2-0.7-0.4-1.1-0.5c-0.7-0.3-1.4-0.6-2-0.8
					c-0.6-0.2-1.1-0.5-1.5-0.6C14.4,92.4,14.2,92.3,14.3,92.2L14.3,92.2z"/>
			</g>
			<g>
				<path fill="#F59386" d="M22,98.9c0,0,0.3,0.1,0.8,0.5c0.2,0.2,0.4,0.4,0.6,0.7c0.2,0.3,0.2,0.7,0.1,1.1
					c-0.1,0.7-0.6,1.3-1.1,1.6c-0.5,0.3-0.8,0.3-0.8,0.3l0-0.1c0,0,0.1-0.1,0.2-0.2c0.1-0.1,0.3-0.2,0.5-0.4
					c0.2-0.2,0.3-0.4,0.5-0.6c0.1-0.2,0.2-0.5,0.2-0.8c0-0.1,0-0.2,0-0.2c0-0.1,0-0.1,0-0.2c0-0.1,0-0.2-0.1-0.4
					c-0.1-0.2-0.2-0.5-0.3-0.7c-0.2-0.2-0.3-0.4-0.4-0.5C22.1,99,22,98.9,22,98.9L22,98.9z"/>
			</g>
			<g>
				<path fill="#F59386" d="M21.5,103c0,0,0.3-0.1,0.8-0.1c0.2,0,0.5,0,0.8,0.1c0.3,0.1,0.6,0.3,0.7,0.6c0.2,0.6,0,1.4-0.3,1.8
					c-0.3,0.4-0.6,0.5-0.6,0.5l0,0c0,0,0-0.1,0.1-0.2c0.1-0.1,0.2-0.3,0.3-0.5c0.1-0.2,0.1-0.4,0.1-0.7c0-0.1,0-0.2,0-0.3
					c0,0,0-0.1,0-0.2c0,0,0-0.1,0-0.1l0-0.1c0-0.2-0.1-0.3-0.4-0.4c-0.2-0.1-0.5-0.2-0.7-0.2c-0.2,0-0.4-0.1-0.6-0.1
					C21.6,103,21.5,103,21.5,103L21.5,103z"/>
			</g>
			<path fill="#FFCE69" d="M78.2,19.9c0,0-3.8-2.7-9.7-1c-5.7,1.7-6.1,8.2-5.4,10.2l12.3-3.8l4.5-2.2L78.2,19.9z"/>
			<path fill="#FBC059" d="M72.4,27.1l4.1-3.5c0,0-4.3-3.2-10.3,0.6c-3.8,2.4-3.6,6.3-2.9,8.8c0,0,1,4,4.2,5.8
				c0.2,0.1,0.5,0.2,0.7,0.3L72.4,27.1z"/>
			<path fill="#E6AC4A" d="M67.6,29.2c2-3.1,4.9-2.1,4.9-2.1l0.7,0.2l-3.5,9l-1.5-1.2C68.1,35.1,65.6,32.3,67.6,29.2z"/>
			<path fill="none" stroke="#FFFFFF" stroke-miterlimit="10" d="M123.7,67.7c0,0-2.8,10.4-1.5,16c0.5,2.1,1.7,5.8,3,9.5
				c0,0,2.9,8.9,2.2,15.6l5.3,21.2"/>
			<path fill="none" stroke="#FFFFFF" stroke-miterlimit="10" d="M95.3,130l-1.7-57.8c0,0,0.2-1.6-1.6-1.9c-1.9-0.3-6.2-1.5-6.2-1.5
				"/>
			<g>
				
					<ellipse transform="matrix(-0.871 -0.4914 0.4914 -0.871 108.1431 278.3738)" fill="#7DC79A" cx="90.6" cy="125" rx="1.6" ry="2.1"/>
			</g>
			<g>
				
					<ellipse transform="matrix(-0.871 -0.4913 0.4913 -0.871 118.4745 232.4345)" fill="#7DC79A" cx="89.8" cy="100.7" rx="1.6" ry="2.1"/>
			</g>
			<g>
				
					<ellipse transform="matrix(-0.871 -0.4913 0.4913 -0.871 128.7749 186.4921)" fill="#7DC79A" cx="88.9" cy="76.3" rx="1.6" ry="2.1"/>
			</g>
			<path fill="#F8B3A1" d="M69.3,42.9c0,0-2.5-2.9-1.6-6.8c0.9-4,1.8-10.3,10.7-13.3c1.3-0.4,2.6-0.6,3.8-0.6l21.3,15.3l4.1,24.6
				c0,0-6.1,7.1-15.6,8.2c-5.8,0.7-9.8-0.7-12.1-2L79.6,67c-3.1-0.4-4.7-3.1-5.8-5.5c-1.1-2.4-3.4-8-3.4-8s-3-4-2.5-6.8L69.3,42.9z"
				/>
			<path fill="#5E1F1B" d="M79.3,54.9c0,0,1-1.1,1.2-3.9c0,0-3.4-2.3-6.9-1.1c-3.5,1.1-1.7,2.8-1.7,2.8l0.6,0.7c0,0,1.5,1.4,1.5,2.9
				c0,1.5,0.8,2.3,2,1.2C77.2,56.3,79.3,54.9,79.3,54.9z"/>
			<path fill="#D2716A" d="M94.4,48.7c0,0,1.7,0.4,3.5-1.2"/>
			<path fill="#D2716A" d="M79.6,67c3.1,0.4,9.2-2.6,9.2-2.6s-4.2,2.6-9,3.6L79.6,67z"/>
			<path fill="none" stroke="#EC1C24" stroke-width="9.720900e-02" stroke-miterlimit="10" d="M113.3,43.6"/>
			<path fill="#FFCE69" d="M112.1,35.6c0,0-0.4-11.9-3.1-15c-2.8-3.1-12.2-9.4-20.3-9.1c-8.1,0.3-14.2,8.4-14.2,8.4l5.4,1.2
				C79.9,21,105.9,26.8,112.1,35.6z"/>
			<path fill="#FBC059" d="M109.6,50.8c-0.8-1.5-2.1-2.7-3.6-3.8c0,0-4.1-2.4-5.5-4.8c-0.1-0.1-0.1-0.2-0.2-0.4l1.5-2.9l7.3-1.3
				c0,0,4.2,2.1,4.3,5.9c1.2,1.9,0.7,3.1,0.7,3.1l-1.8,15.4h-4.7C107.6,62.1,114.2,59.3,109.6,50.8z"/>
			<path fill="#E6AC4A" d="M100.5,57c-1.3-4.3-2.5-8.6-2.8-10.1l2.5-5c0.1,0.1,0.1,0.2,0.2,0.4c1.4,2.4,5.5,4.8,5.5,4.8
				c1.6,1.1,2.9,2.4,3.6,3.8c4.6,8.5-2,11.3-2,11.3h-0.9C106.7,62.1,102.1,62.3,100.5,57z"/>
			<path fill="none" stroke="#EC1E24" stroke-width="9.720900e-02" stroke-miterlimit="10" d="M76.5,23.5"/>
			<path fill="#E6AC4A" d="M79.8,32.9c0,0-4.6-2.8-6.5-2.5c-1.3,0.2-1.4,0.9-1.3,1.3c0,0-0.6-1.2,0.2-2c0.8-0.8,2.6-0.6,4,0.2
				C77.7,30.7,79.8,32.9,79.8,32.9z"/>
			<path fill="#FFFFFF" d="M76.5,36.1c1.1-0.2,2.8,0.8,2.8,0.8c-0.6,0.3-1.8,0.9-2.5,1.2c-0.6,0.2-1.4,0.2-1.9,0.3
				C75,37.6,75.3,36.3,76.5,36.1z"/>
			<path fill="#65A9B9" d="M76.9,37.9c-0.2,0-0.3-0.1-0.5-0.2c-0.3-0.2-0.3-0.8-0.2-1.1c0.1-0.3,0.6-0.9,1.1-0.6
				C78,36.3,78,37,78,37c0,0.3-0.1,0.5-0.1,0.6C77.5,37.7,77.2,37.9,76.9,37.9z"/>
			<path fill="#866054" d="M76.6,35.5c1.7-0.4,3.1,1.1,3.1,1.1s-0.2,0.1-0.4,0.2c0,0-1.7-0.9-2.8-0.7c-1.1,0.2-1.5,1.5-1.6,2.1
				C74.9,38.3,74.9,35.8,76.6,35.5z"/>
			<g>
				<path fill="#F59386" d="M79.2,38.2c0,0-0.9,0.8-1.9,1.2c-0.5,0.2-1.1,0.3-1.5,0.4c-0.2,0-0.4,0-0.5,0c-0.1,0-0.2,0-0.2,0l0,0
					c0,0,0.1,0,0.2-0.1c0.1,0,0.3-0.1,0.5-0.1c0.2,0,0.4-0.1,0.7-0.2c0.2-0.1,0.5-0.2,0.7-0.3c0.3-0.1,0.5-0.2,0.7-0.3
					c0.2-0.1,0.5-0.2,0.6-0.3C78.9,38.3,79.2,38.2,79.2,38.2L79.2,38.2z"/>
			</g>
			<path fill="#F59386" d="M78.3,48.6c0,0-1.3-1.1-1.8-1.8c-0.5-0.8-1.7-1.5-2.1-1.7l0.1-0.8c0,0,0.9,0.5,1.5,1.3
				c0.5,0.8,0.9,1.3,1.3,1.7L78.3,48.6z"/>
			<path fill="#F59386" d="M70.9,48c0,0-0.5,0.3-0.6,1.3c-0.1,1,0,1.7,0,1.7s-0.6-2.1-0.2-3.1C70.6,46.8,70.9,48,70.9,48z"/>
			<g>
				<path fill="#F59386" d="M75,34.5c0,0-0.2,0-0.4,0.2c-0.2,0.2-0.5,0.5-0.6,0.8c-0.1,0.2-0.1,0.4-0.2,0.5
					c-0.1,0.2-0.1,0.3-0.1,0.5c-0.1,0.3-0.2,0.5-0.2,0.5l0,0c0,0-0.1-0.2-0.1-0.5c0-0.2,0-0.3,0.1-0.5c0.1-0.2,0.1-0.4,0.3-0.6
					c0.2-0.4,0.5-0.7,0.8-0.8C74.8,34.4,75,34.4,75,34.5L75,34.5z"/>
			</g>
			<path fill="#E6AC4A" d="M67.7,37.5c0-0.1,0.1-0.3,0.1-0.5c0.1-0.2,0.3-0.3,0.6-0.3c0.9,0,1.8,1.8,1.8,1.8s-0.4-0.7-1.1-0.9
				c-0.7-0.2-1.5,1.6-1.5,1.6C67.5,38.8,67.5,38.2,67.7,37.5z"/>
			<g>
				<path fill="#F59387" d="M70.6,39c0,0-0.1,0-0.2,0.1c-0.1,0-0.2,0-0.3,0c-0.1,0-0.2-0.1-0.3-0.1c-0.1,0-0.1,0-0.2,0
					c0,0-0.1,0,0,0c0,0-0.1,0-0.1,0c0,0-0.1,0-0.1,0c-0.1,0-0.1,0.1-0.2,0.1c-0.1,0.1-0.2,0.2-0.3,0.3c-0.2,0.2-0.3,0.3-0.3,0.3l0,0
					c0,0,0.1-0.2,0.2-0.4c0.1-0.2,0.3-0.5,0.6-0.7c0.3-0.1,0.7,0.1,0.9,0.2C70.5,38.8,70.6,38.9,70.6,39L70.6,39z"/>
			</g>
			<path fill="#F1F1F2" d="M68.8,40.5c0.6-0.4,1.3-0.3,1.3-0.3l0.1,0.2l-1.1,2.4c-0.2-0.2-0.6-0.8-0.9-1.6
				C68.4,40.9,68.6,40.6,68.8,40.5z"/>
			<path fill="#60A1AC" d="M69.5,41.6c0,0-0.4-0.1-0.5-0.7c-0.1-0.6,0.4-1,0.4-1l0.7,0.5L69.5,41.6L69.5,41.6z"/>
			<g>
				<path fill="#F59386" d="M83.3,53.3c0.4,1.1,0.6,2.2,0.6,3.4c0,1.1-0.1,2.3-0.4,3.4c-0.1,0.3-0.2,0.5-0.3,0.8
					c-0.1,0.3-0.2,0.5-0.4,0.8c-0.1,0.3-0.3,0.5-0.4,0.7c-0.1,0.2-0.3,0.5-0.5,0.7c-0.7,0.9-1.5,1.7-2.7,2.1l0,0c-1,0.2-2.1,0-3-0.4
					l0-0.1c0.5,0.1,1,0.2,1.5,0.2c0.2,0,0.5,0,0.7,0c0.2,0,0.5,0,0.7-0.1l0,0c0.5-0.2,0.9-0.5,1.3-0.9c0.4-0.3,0.7-0.8,1.1-1.2
					c0.2-0.2,0.3-0.5,0.4-0.7c0.1-0.2,0.3-0.5,0.4-0.7c0.1-0.2,0.3-0.5,0.3-0.7c0.1-0.3,0.2-0.5,0.3-0.8c0.1-0.3,0.2-0.5,0.2-0.8
					c0-0.3,0.1-0.5,0.1-0.8c0.1-0.5,0.2-1.1,0.2-1.6c0-0.6,0-1.1,0-1.7C83.5,54.4,83.4,53.9,83.3,53.3L83.3,53.3z"/>
			</g>
			<path fill="none" stroke="#EC1E24" stroke-width="9.720900e-02" stroke-miterlimit="10" d="M72.8,51.6"/>
			<path fill="#F1F1F2" d="M78.4,50.4v0.3c0,0,0,0.2-0.4,0.2c0,0-2.1,0-3.9,0.9c-0.5,0.3-1,0.6-1.4,0.9l0.2,0.3l-0.4,0.3
				c0,0-0.3,0.1-0.4-0.1c-0.2-0.2-0.4-1.3-0.4-1.3l-0.2-0.7C71.4,51.3,74.8,48.8,78.4,50.4z"/>
			<path fill="#DF3926" d="M71.2,50.4c1-0.7,2.4-1.4,4-1.3c3.1,0.1,5.4,1.9,5.4,1.9l-0.4,0.1c0,0-1.3-0.9-3.8-0.9
				c-0.4,0-1.5,0-2.6,0.3c-0.1,0-0.1,0-0.2,0.1c0,0-0.1,0-0.1,0c-0.8,0.3-1.8,0.7-2,1.4c0,0,0.1,0.5,0.3,0.9
				c-1.3-0.4-1.4-1.3-1.4-1.3C70.3,51,71.2,50.4,71.2,50.4z"/>
			<path fill="#D0D2D3" d="M72.7,52.7c0,0-0.3,0.2-0.4,0.3c0,0,0.1,0.2,0.5,0L72.7,52.7z"/>
			<path opacity="0.9" fill="#F59386" d="M79.8,53.2c0,0-0.3-0.7-1.3-0.6c-1.1,0.1-1.8,1.3-1.8,1.3s-0.2,0.5-0.4,0.3
				c-0.1-0.2-0.4-0.4-0.6-0.2c-0.2,0.2-0.3,1.1-0.3,1.8c0,0.3,0.1,0.7,0.2,1c0,0,3-0.9,3.7-1.9C80,53.9,79.8,53.2,79.8,53.2z"/>
			<path fill="#EE4023" d="M72.4,53.4L72.4,53.4c0.1-0.1,1.4,1.2,1.7,2.2c0.2,0.6,0.5,1,0.8,1.2c0.2-0.2,0.5-0.4,0.5-0.4
				c0.9-0.7,2.8-1.4,2.8-1.4c0.3-0.1,0.6-0.2,0.8-0.4c1-0.9,1.2-3.6,1.2-3.6l0.4-0.1c0,0,0,2.3-0.5,3.3c-0.5,0.9-1.3,1.8-2.3,2.4
				c-0.3,0.1-0.5,0.4-0.7,0.6c0,0-1.2,1.5-2.3,1.5c-1.1-0.1-1.2-1.8-1.2-1.8s0.1-1.3-0.1-1.8C73.3,54.6,73,54,72.4,53.4z"/>
			<path fill="none" stroke="#EC1E24" stroke-width="9.720900e-02" stroke-miterlimit="10" d="M74.1,56.2c0,0.1,0.1,0.3,0.2,0.4
				c0.4,0.6,0.3,0.6,1.1-0.1"/>
			<path fill="#F8B3A1" d="M95.5,39.7l-1.1,9.1c0,0,1.7,0.4,3.5-1.2c0,0,0.1-0.1,0.1-0.1c1.4-1.3,1.9-2.6,1.9-2.6l2.7-6.1L95.5,39.7
				z"/>
			<circle fill="#7DC79A" cx="96.2" cy="46.9" r="0.9"/>
			<path fill="#F59386" d="M97.9,47.5l0.2,0.6c-1.8,1.3-3.6,0.6-3.6,0.6S96.1,49.1,97.9,47.5z"/>
			<g>
				<path fill="#FFCE7A" d="M113.3,43.6"/>
				<path fill="#FFCE69" d="M96.9,26c0,0,14,5.8,16.3,11.1c1.1,2.6,0.9,4.9,0.2,6.5c-0.8-1.2-2.2-2.7-4.9-4.4l-15.2,1.5
					c0,0-4.1,0.9-7-6.4c-2.9-7.4-3.1-8.2-3.1-8.2l-0.9-2.3L96.9,26z"/>
			</g>
			<path fill="#FFDC79" d="M77.3,20.2c1.3-0.6,12.8-4.2,23,2.9c6.2,4.3,9.8,7.6,11.7,9.6c0.1,1.7,0.2,2.9,0.2,2.9
				c-1.4-1.7-4.2-4.2-9.6-6.1c-1.9-0.7-4-0.8-6.3-0.5c0,0-9.2,1.5-18-5.9c-0.7-0.6-1.3-1.1-1.6-1.6C76.6,21.5,76,20.9,77.3,20.2z"/>
			<path fill="#805950" d="M69,39.9c0.8-0.3,1.4,0,1.4,0l-0.2,0.5c-0.8-0.3-1.5,0.4-1.9,0.9c-0.1-0.2-0.2-0.3-0.2-0.5
				C68.3,40.5,68.6,40.1,69,39.9z"/>
			<path fill="#805950" d="M68.1,40.8l-0.3,0.8c0,0,0,0.5,0.5-0.2l0.2-0.5H68.1z"/>
			<path fill="#F1805F" d="M69.5,48.1c-0.6-0.5-1.3-1.2-1.3-1.2c-0.4-0.4-0.5-0.6-0.4-1.2c0.1-0.6,1.2-2.7,1.2-2.7
				c1-2,2.3-5.6,2.3-5.6s0.2-0.6,0.4-0.6c0.2,0,0.4,0.3,0.4,0.3c0.4,1.9,0.8,6.4,0.8,6.4c0.6-0.1,1.5,0,1.9,1.2
				c0.5,1.9-1.3,2.5-1.3,2.5c-0.8,0.3-2.4,0.8-3.2,1C70.2,48.2,69.8,48.4,69.5,48.1z"/>
		</g>
		<path fill="none" stroke="#FFFFFF" stroke-miterlimit="10" d="M59.3,116.5c0,0-1.2-9.8-15.8-13.7c-14.6-3.9-3.8-0.5-3.8-0.5"/>
	</g>
</g>
</svg>
