<?xml version="1.0" encoding="utf-8"?>
<!-- Generator: Adobe Illustrator 18.0.0, SVG Export Plug-In . SVG Version: 6.00 Build 0)  -->
<!DOCTYPE svg PUBLIC "-//W3C//DTD SVG 1.1//EN" "http://www.w3.org/Graphics/SVG/1.1/DTD/svg11.dtd">
<svg version="1.1" id="Layer_1" xmlns="http://www.w3.org/2000/svg" xmlns:xlink="http://www.w3.org/1999/xlink" x="0px" y="0px"
	 viewBox="0 0 160 130" enable-background="new 0 0 160 130" xml:space="preserve">
<g>
	<g>
		<g>
			<path fill="#D7D3C5" d="M72.3,46.3l-0.1-0.6L70.4,45l-6.3,3l-0.3,2.2l3.6,1.8l4.3,6.8c1.4-0.8,2.7-2.2,3-4.9
				C75.4,48.1,72.3,46.3,72.3,46.3z"/>
		</g>
	</g>
	<path fill="#C3C0B4" d="M67.7,51c0,0,4.7,4.4,5.3,9.2c0.3,2.4-0.6,4.2-1.6,5.5l-5.8,1.6c0,0-2.7-3-2.5-7.8
		c0.3-4.8,0.8-10.5,0.8-10.5L67.7,51z"/>
	<path fill="#B1ADA2" d="M65.5,56.3c0,0,3,1.7,2.7,5.3c-0.2,3.6-1.4,6-1.4,6l-1.3-0.3c0,0-2.5-2.6-2.5-7.3l0.3-4.5L65.5,56.3z"/>
	<path fill="#00427A" d="M124.5,101.3c0,0-4.8-8.6-12.2-15.2c-7.4-6.7-11.7-9.1-11.7-9.1c-2.4-6.9-6.8-12.6-14.7-12.9
		C65,63.2,42.3,74.1,42.3,74.1L32,79c0,0-3.8,2.2-5.8,6.4c-1.9,4.2-1,8-1,8l0.6,2.6c0,0,1.9,7.6,2.4,14.4c0.5,6.8,1.6,19.6,1.6,19.6
		h76.8l-5.1-21.4l1.4,0.7c2,1,5.8,2.7,9.4,3.5c3.9,0.8,9,1.3,12.2-0.5C130.1,109,124.5,101.3,124.5,101.3z"/>
	<path fill="none" stroke="#FFFFFF" stroke-miterlimit="10" d="M49,77.9c-0.4,0.8-3.1,1.5-3.1,1.5c-1.4,0.2-1.5,1.5-1.5,1.5
		l-3.5,29.9l1.5,19.3"/>
	<line fill="none" stroke="#FFFFFF" stroke-miterlimit="10" x1="84.6" y1="99.9" x2="102.6" y2="109.5"/>
	<path fill="#7DC79A" d="M49,82.2c0.1-1-0.6-1.7-1.5-1.7c-1,0-1.8,0.8-1.9,1.7c-0.1,1,0.6,1.7,1.5,1.7C48,84,48.9,83.2,49,82.2z"/>
	<path fill="#7DC79A" d="M46.7,101.3c0.1-1-0.6-1.7-1.5-1.7c-1,0-1.8,0.8-1.9,1.7c-0.1,1,0.6,1.7,1.5,1.7
		C45.8,103,46.6,102.3,46.7,101.3z"/>
	<polygon fill="#B1ADA2" points="43.9,27.2 50.8,26.9 56.1,31.1 55.7,27.8 53.7,24.5 50.2,21.6 46.9,20.9 43.7,21.8 42.3,24.2 
		42.5,26.1 	"/>
	<path fill="#D7D3C5" d="M55.5,30.1c0,0-2.7-6.3-5.9-7.8c-3.1-1.5-5.1,0.2-5.1,0.2c-2.4,1.8-1,4.3-1,4.3l0.3,0.4l-3.4,1.1l-1.3-3.2
		c0,0-2-2.5,1.4-5.4c3.4-2.8,9.2-2.8,14.3-1c5.2,1.8,9.6,8.9,12.7,12.9c3,3.9,5.1,7.9,4.9,10.2c-0.1,0.6-0.3,1.2-0.8,1.9l-11-4
		l-4.1-7.7L55.5,30.1z"/>
	<g>
		<g>
			<path fill="#C3C0B4" d="M32.9,40.2L32,43c0,0-0.2,7.6-6,9.5c0,0.6,0,1.4,0,2.3c0,2.8,2.1,4.4,3.3,5c1.2,0.6,3.1,1.8,3.1,1.8
				l0.7-7.6c0,0,0.3-0.7-0.4-2.8C32.2,49.3,32,45.1,32.9,40.2z"/>
		</g>
	</g>
	<path fill="#B1ADA2" d="M32.6,54.2l-0.2,7.3c0,0,0.2,5.2,4.9,7.2c1.3,0.6,2.7,0.6,3.9,0.5L33.2,54L32.6,54.2z"/>
	<path fill="#7DC79A" d="M34.1,61.5c0,0-0.2-0.9,0.2-1.5c0.4-0.6,1.5,0.9,1.5,0.9l-0.2,0.5c0,0,0.2,1.2-0.4,1.3
		C34.4,62.9,34.1,61.5,34.1,61.5z"/>
	<path fill="#D7D3C5" d="M24.4,43.1c0,0-1.5-6.5-0.8-9.3c0.7-2.8,3.6-9.2,9.9-10.3c3.8-0.6,6.6,2.1,8.1,4.4l-3.5,1.3l-2.8-2.4
		l-3,1.7l-1.8,0.4l-0.7,2.4l-1,1.3l0.2,4.5l-0.4,3.6l-0.8,2.2l-1.4,1.2H25L24.4,43.1z"/>
	<path fill="#EAE7D7" d="M35.8,24.8c-1.8-0.3-5.5,0.3-7.5,4.1c-2,3.8-0.7,8-0.7,8c0.2,0.7,0.3,2.2-0.1,4.2c-0.6,3.1-3.2,1.9-3.2,1.9
		c-0.4,0.4-0.6,0.9-0.8,1.4c0,0,1.1,1,2.6,0.9c1.5-0.1,3.2-2.9,3.7-6.8c0.5-3.8,0-5.7,2.5-8.2c1.8-1.8,4.3-1.7,5.9-1.2c0,0,0,0,0,0
		c0.9-1,1.5-1.6,1.5-1.6C39.2,26.5,37.6,25.2,35.8,24.8z"/>
	<path fill="#D7D3C5" d="M32.3,30.4c-2.5,2.5-2,4.4-2.5,8.2c-0.5,3.8-2.2,6.7-3.7,6.8c-1.5,0.1-2.6-0.9-2.6-0.9c0,0.1,0,0.2-0.1,0.3
		c-0.5,3,0.5,3.2,1.5,4.7c0.7,1,0.9,1.8,1,3.1c5.9-1.9,6-9.5,6-9.5l0.9-2.9c0.1-0.7,0.3-1.5,0.5-2.2c0.9-3.8,3.3-7,4.8-8.8
		C36.6,28.6,34.1,28.5,32.3,30.4z"/>
	<path fill="#00427A" d="M131.8,93.3c-0.2-0.5-0.5-1.4-0.8-2.5c0,0-3.6-10.5-5.6-13c-0.3-0.4-0.9-0.7-1.5-1
		c-1.3-0.3-3.9-0.7-7.2,0.3c-4.7,1.4-4.8,3.6-4.8,4.8l0,13.6c0,0-3.9,7.7-2.6,10.7c1.3,3,4.1,6.4,10.8,7.1c6.7,0.7,12-9,12.5-12.7
		C132.5,100.7,132.9,96.1,131.8,93.3z"/>
	<path fill="#4B6F89" d="M113.4,82.5c0,0,0,6.1,6.3,11.6l-5.9-13.3L113.4,82.5z"/>
	<path fill="#F8B3A1" d="M64.2,61.7c-0.4-2.3,0-7.7,0-7.7l0.4-6.3l0.2-4.4l-6.4-10.8c0,0-3.9-3.7-5.3-5c-1.5-1.3-3.8-1.1-3.8-1.1
		s-7.2,0.6-8.8,0.8c-1.6,0.3-3.3,1.4-3.3,1.4c-0.8,0.6-1.5,1.3-1.9,1.9c-1.6,2.2-3.1,6.3-3.4,7c-0.2,0.7-0.2,1.4-0.2,1.4l0,1.9
		c-0.1,1.2-0.3,3.8-0.4,6.1c-0.4,5.3,1.8,8,1.8,8c1.2,5.9,4.3,9.9,4.3,9.9c0.9,2.3,2.2,3.9,3.4,5.1l1.9,4.9c0,0-1.6,2.9,0.8,4.4
		c2.4,1.5,11-2,11-2s11.2-4.3,12.2-9.4C66.5,67.8,64.6,64,64.2,61.7z"/>
	<path fill="#D2716A" d="M42.6,74.8L42.6,74.8c0,0-0.1,0.3-0.3,0.7c0.3,0.8,1.6,2.7,1.6,2.7L42.6,74.8z"/>
	<path fill="#F1A596" d="M64,56.7l0.9,0.1c0,0,1.4,0.1,1.8-1.6l2.3-9.3l-4.3,1.8L64,56.7z"/>
	<g>
		<path fill="#D2716A" d="M44.6,72.2c0,0-0.3,0-0.8-0.1c-0.2-0.1-0.5-0.1-0.7-0.2c-0.3-0.1-0.5-0.2-0.8-0.4
			c-0.2-0.2-0.5-0.3-0.7-0.5c-0.2-0.2-0.4-0.4-0.5-0.5c-0.3-0.3-0.4-0.6-0.4-0.6l0,0c0,0,0.8,0.8,1.8,1.4c0.5,0.3,1,0.6,1.4,0.7
			C44.3,72.1,44.6,72.2,44.6,72.2L44.6,72.2z"/>
	</g>
	<g>
		<path fill="#F59386" d="M42.5,67.3c0,0,0.1,0.2,0.3,0.4c0.2,0.2,0.5,0.6,1,0.8c0.5,0.3,1.1,0.5,1.7,0.6c0.3,0,0.7,0.1,1,0.1
			c0.4,0,0.7-0.1,1.1-0.1c1.4-0.2,2.8-0.6,3.9-0.9c1-0.4,1.7-0.7,1.7-0.7l0,0c0,0-0.6,0.5-1.6,1c-0.5,0.2-1.1,0.5-1.8,0.7
			c-0.3,0.1-0.7,0.2-1,0.3c-0.4,0.1-0.7,0.2-1.1,0.2c-0.3,0-0.8,0.1-1.1,0.1c-0.4,0-0.8,0-1.1-0.1c-0.7-0.1-1.4-0.4-1.8-0.8
			c-0.5-0.3-0.8-0.7-0.9-1C42.5,67.5,42.5,67.3,42.5,67.3L42.5,67.3z"/>
	</g>
	<g>
		<path fill="#F59386" d="M55.4,66.1c0,0,0.6-0.7,0.9-1.5c0.4-0.8,0.5-1.6,0.5-1.6l0,0c0,0,0.1,0.2,0.1,0.6c0,0.2,0,0.4-0.1,0.6
			c-0.1,0.2-0.1,0.4-0.2,0.6c-0.1,0.2-0.2,0.4-0.3,0.6c-0.1,0.2-0.3,0.3-0.4,0.4c-0.1,0.1-0.3,0.2-0.3,0.3
			C55.5,66.1,55.4,66.2,55.4,66.1L55.4,66.1z"/>
	</g>
	<g>
		<path fill="#F59386" d="M44.9,64c0,0,0.3-0.2,0.7-0.4c0.2-0.1,0.5-0.2,0.8-0.3c0.3-0.1,0.6-0.1,0.9-0.2c0.3,0,0.6-0.1,0.9-0.1
			c0.3,0,0.6,0,0.8,0c0.2,0,0.4,0.1,0.6,0.1c0.1,0,0.2,0,0.2,0l0,0c0,0-1.2,0-2.4,0.2c-0.6,0.1-1.2,0.2-1.7,0.3
			C45.2,63.9,44.9,64,44.9,64L44.9,64z"/>
	</g>
	<g>
		<path fill="#F59386" d="M40.2,59.3c0,0-0.3-0.5-0.6-1.4c-0.2-0.4-0.3-0.9-0.4-1.5c0-0.6,0-1.2,0.1-1.8c0.1-1.2,0.3-2.4,0.5-3.3
			c0.1-0.4,0.3-0.9,0.5-1.1c0.2-0.3,0.4-0.4,0.4-0.4l0.5,0.7c0,0-0.1,0.1-0.2,0.2c-0.1,0.2-0.3,0.4-0.4,0.8c-0.3,0.8-0.6,2-0.8,3.2
			c-0.1,0.6-0.2,1.2-0.2,1.7c0,0.5,0.1,1.1,0.2,1.5C39.9,58.8,40.2,59.3,40.2,59.3z"/>
	</g>
	<path fill="#F59386" d="M53.8,57.5C53.8,57.5,53.7,57.5,53.8,57.5c0.4-1.1-0.1-2-0.1-2c-0.4-0.8-1.2-2.3-2.2-3.8
		c-1.3-2-2.6-3.4-2.6-3.4l0.2-0.4c0,0,1.4,1.4,2.6,3.3c1.2,1.9,1.8,3.4,2.1,4.1c0,0,0.5,1,0.2,2.1C53.8,57.4,53.8,57.5,53.8,57.5
		L53.8,57.5z"/>
	<path fill="#F1F1F2" d="M43,55.8c0,0,0,0.4,0.2,0.8c0,0,0.3,0,0.7,0c0,0,0.2-0.2,0.2-0.3l0.1,0.1c0,0,0.8,0,1.3-0.1
		c0,0,0.2,0,0.3-0.1l0.1-0.2l0.2,0.2c0,0,1.1,0,1.5-0.2l0.2-0.4l0.2,0.2c0,0,0.4,0,0.8,0c0,0,0.2-0.1,0.3-0.4l0.4,0.2
		c0,0,0.6,0,1.1-0.1c0,0-1.8-1.9-5.5-0.9C45.1,54.7,43.6,55.1,43,55.8z"/>
	<path fill="#B1ADA2" d="M32.4,42.4c0,0,0.8-2.6,4.2-3.8c1.9-0.6,3.4,0.1,4.4,0.9c0,0,0.1,0.1,0,0.2c-0.1,0.1-1.1,0.5-1.9,0.5
		c0,0-1.7-1.1-3.5-0.3c-1.1,0.4-1.7,1-2,1.4C33.5,41.3,32.8,42,32.4,42.4z"/>
	<path fill="#B1ADA2" d="M48,38.5c0,0-0.9,0.4-2.1,0.5c0,0-0.2,0.1-0.1-0.3c0.1-0.3,0.5-1.9,2.4-2.4c1.9-0.5,6.3,0.2,7.9,1.5
		c0,0-4.7-1.6-6.9-0.6C48.5,37.6,48.1,38,48,38.5L48,38.5z"/>
	<path fill="#FFFFFF" d="M35.6,44.2c0,0,0.9,0.3,1.8,0.1c0.8-0.2,1.8-0.7,1.8-0.7l0.9-0.2c0,0-1-1.1-2.1-1.3
		c-1.1-0.1-2.1,0.3-2.5,1.2C35.3,44.1,35.6,44.2,35.6,44.2z"/>
	<path fill="#65A9B9" d="M38.3,42.3c0,0-1.1-0.3-1.9,0.2c0,0-0.2,0.6-0.1,1c0.1,0.4,0.5,0.7,1.1,0.7c0.3-0.1,0.6-0.2,0.9-0.3
		c0,0,0.3-0.3,0.3-0.8C38.6,42.6,38.3,42.3,38.3,42.3z"/>
	<path fill="#866054" d="M34.8,44.5l0.8-0.3c0,0,0.1-1.5,1.6-1.6c1.5-0.1,2.1,0.3,2.9,0.9l0.3-0.1c0,0-1.2-1-1.4-1.1
		c-0.2-0.2-1.2-0.6-2.1-0.3c-1,0.3-1.3,0.7-1.5,1.2C35.1,43.7,34.8,44.5,34.8,44.5z"/>
	<g>
		<path fill="#F59386" d="M37.7,47.4c0,0,0.2-0.1,0.6-0.2c0.3-0.2,0.8-0.5,1.1-0.8c0.4-0.3,0.7-0.7,0.9-1.1c0.2-0.3,0.3-0.6,0.3-0.6
			l0.1,0c0,0,0,0.1,0,0.2c0,0.1,0,0.3-0.1,0.5c-0.1,0.2-0.1,0.4-0.3,0.7c-0.1,0.2-0.3,0.4-0.5,0.6c-0.2,0.2-0.4,0.3-0.7,0.5
			c-0.2,0.1-0.5,0.2-0.7,0.2c-0.2,0.1-0.4,0-0.5,0C37.7,47.5,37.7,47.5,37.7,47.4L37.7,47.4z"/>
	</g>
	<path fill="#FFFFFF" d="M49.3,41.6c0,0,0.8,0.5,2.2,0.4c1.4-0.1,2.5-1,2.5-1s-1.3-1.8-3-1.3C49.3,40.3,49.3,41.6,49.3,41.6z"/>
	<path fill="#65A9B9" d="M50.2,40.4c0,0-0.2,1.2,0.9,1.5c1.1,0.2,1.7-1.2,1.4-1.7c-0.3-0.5-1.1-0.4-1.1-0.4S50.4,39.8,50.2,40.4z"/>
	<path fill="#866054" d="M48.8,41.7l0.5-0.1c0,0,0.7-1.3,1.5-1.5c0.8-0.3,2.4,0.3,3.2,1l0.5,0c0,0-0.9-1.7-2.6-1.8
		c-1.7-0.2-2.3,1.3-2.3,1.3L48.8,41.7z"/>
	<g>
		<path fill="#F59386" d="M48.8,43.2c0,0,0.1,0.3,0.4,0.6c0.3,0.3,0.8,0.6,1.3,0.8c0.5,0.2,1.1,0.3,1.5,0.4c0.4,0,0.7,0,0.7,0l0,0.1
			c0,0-0.1,0-0.2,0.1c-0.1,0-0.3,0.1-0.5,0.2c-0.2,0-0.5,0.1-0.8,0c-0.3,0-0.6-0.1-0.9-0.2c-0.3-0.1-0.6-0.3-0.8-0.5
			c-0.2-0.2-0.4-0.4-0.5-0.6C48.7,43.6,48.7,43.3,48.8,43.2L48.8,43.2z"/>
	</g>
	<path fill="#F8B3A1" d="M111.2,76.7l4.5,11.9c0,0,1.4,4.2,5.7,6.7c4.3,2.5,5.6-0.2,6.3-2.1c0.7-2,0.3-7.9-0.8-11
		c-0.3-0.9-0.8-2-1.4-3.2c0,0-1-2.5-1.4-3.6L111.2,76.7z"/>
	<path fill="#F8B3A1" d="M111.4,77.2c-1.9-0.9-5.1-2.5-5.1-2.5s-0.9-0.4-1.3-0.6c-0.3-0.1-0.9-0.5-1.3-1.1c-0.4-0.6-0.9-1-2.4-1.5
		c-1.5-0.4-4.7-0.8-5-2.9c-0.3-2.1,2.8-2.9,4.6-2.7c1.9,0.2,3.8,1.5,4.5,1.8c0,0,1.5-0.1,2.5-0.5c0,0,0.2-0.1,0.4-0.4
		c0,0,1.9-4.7,2.3-6.3c0,0-0.2-7,0.7-9.3c0.8-2.3,2.2-3,3.2-2.6c0.9,0.4,1.6,2.4,1,5.4l0.5,5.7c0,0,0.6-0.1,1.3-0.2
		c0,0,0.8-4.5,2.5-7.3c0,0,1.3-6.3,4.1-5.8c2.9,0.5,1.1,4.4,0.8,5.3l-0.9,2.8c0,0-1.1,4.4-2.1,6.3c0,0,0.4,0.2,0.8,0.3
		c0,0,1.3-2.5,3.3-4.1c0,0,2.6-4.7,4.6-3.3c1.9,1.4,0,5.2-2.5,7.7c0,0-0.3,1.2-1.8,2.8c0,0,0.3,0.4,0.8,0.6c0,0,2.4-1.7,3.7-2
		c0.1,0,0.3-0.1,0.5-0.1c0,0,1.5-0.5,2.2-0.7c0.7-0.1,2.3-0.1,2.3-0.1s0.9,0,1.2,0.9c0.2,0.9-1,2.2-3,2.8c0,0-2.8,1.4-4.1,2.1
		c0,0-0.5,0.5-0.7,0.9c0,0-2.6,4.7-3.4,5.7c-0.2,0.3-0.7,0.7-1.2,1.2L111.4,77.2z"/>
	<g>
		<path fill="#F59386" d="M105.4,67.7c0,0,0.8,0.4,1.6,0.7c0.8,0.3,1.7,0.5,1.7,0.5l0,0.1c0,0-0.1,0-0.2,0.1c-0.1,0-0.3,0.1-0.4,0.1
			c-0.2,0-0.4,0-0.6,0c-0.2,0-0.4-0.1-0.6-0.2c-0.2-0.1-0.4-0.2-0.6-0.3c-0.2-0.1-0.3-0.3-0.5-0.4c-0.1-0.1-0.2-0.3-0.3-0.3
			C105.4,67.8,105.4,67.8,105.4,67.7L105.4,67.7z"/>
	</g>
	<g>
		<path fill="#F59386" d="M114.1,78c0,0,0,0.1-0.1,0.1c-0.1,0-0.2,0.1-0.4,0.2c-0.1,0-0.3,0.1-0.5,0.1c-0.2,0-0.4-0.1-0.6-0.1
			c-0.2-0.1-0.3-0.2-0.5-0.2c-0.2-0.1-0.3-0.2-0.4-0.3c-0.1-0.1-0.2-0.2-0.2-0.3c0-0.1-0.1-0.1-0.1-0.1l0,0c0,0,0.6,0.3,1.3,0.5
			c0.3,0.1,0.7,0.2,0.9,0.2C113.9,78,114.1,78,114.1,78L114.1,78z"/>
	</g>
	<g>
		<path fill="#D2716A" d="M124.2,75.7c0,0-0.1,0.1-0.2,0.4c-0.1,0.2-0.3,0.5-0.6,0.9c-0.3,0.3-0.6,0.8-0.9,1.2
			c-0.2,0.2-0.4,0.4-0.6,0.6c-0.2,0.2-0.5,0.5-0.7,0.6c-0.6,0.3-1.2,0.5-1.8,0.6c-0.3,0-0.6,0-0.9-0.1c-0.3-0.1-0.5-0.1-0.7-0.2
			c-0.2-0.1-0.4-0.2-0.6-0.3c-0.2-0.1-0.3-0.2-0.4-0.3c-0.2-0.2-0.3-0.3-0.3-0.3l0,0c0,0,0.1,0.1,0.3,0.2c0.1,0.1,0.2,0.1,0.4,0.2
			c0.2,0.1,0.3,0.2,0.5,0.2c0.2,0.1,0.4,0.1,0.7,0.1c0.2,0,0.5,0,0.8,0c0.5-0.1,1.1-0.3,1.6-0.6c0.5-0.3,0.9-0.7,1.3-1.1
			c0.4-0.4,0.7-0.8,1-1.1C123.7,76.1,124.1,75.7,124.2,75.7L124.2,75.7z"/>
	</g>
	<path fill="#F1805F" d="M44.7,51.4c0,0-2.6,0.3-3.4-0.1c-0.8-0.4-1.5-1.7,0.4-4.4c0,0,0.1-5.2,0.4-6.5c0.3-1.3,1.3-1.3,1.9-1
		c0.6,0.3,1,0.7,1.4,1.6c0.3,0.9,2,5.6,2,5.6s2.1,1,2,2.3c0,0.4-0.2,0.8-0.5,1.2c0,0-0.4,0.4-1.1,0.6C47.2,50.9,44.7,51.4,44.7,51.4
		z"/>
	<path fill="#D7D3C5" d="M65.7,29.1l-11-0.7c0.5,1,0.8,1.7,0.8,1.7l1,2l4.1,7.7l11,4c0.4-0.6,0.7-1.3,0.8-1.9
		c0.2-2.3-1.8-6.3-4.9-10.2C67,30.9,66.4,30,65.7,29.1z"/>
	<path fill="#C3C0B4" d="M73,44.7L73,44.7C73,44.6,73,44.6,73,44.7C73,44.6,73,44.6,73,44.7c-0.2-1.1-1.7-2.5-1.7-2.5l0,0
		c-1.2-1.3-3.2-2.5-5.5-2.5c-2.8,0-4.8-1.6-6.1-2.9c-1.3-1.4-4.1-6.4-4.1-6.4l-0.1-0.1l6,11.3c0,0,1.6,2.9,2.3,3.2l-0.2,3.5l0,0
		c1.7,1.2,4.1-0.8,5.5-2.1c1.4-1.3,3.1,0.2,3.1,0.2c0.4-0.4,0.6-0.7,0.7-1.2C73,45,73,44.8,73,44.7z"/>
	<path fill="#7DC79A" d="M65,56c0,0,0.4,0.2,0.7,0c0,0,0,0,0,0l0,0c0.2-0.2,0.4-0.4,0.4-1c0-1.2-0.8-1.5-0.8-1.5s-0.9-0.2-1,1
		C64.3,55.4,64.7,55.8,65,56z"/>
	<path fill="#5E1F1B" d="M42.7,60.5c0,0-1.1-0.7-0.9-2.5c0.2-1.8,1.1-3.1,3.6-3.5c2.5-0.4,5.4,0.2,6.7,2.6c0,0-0.7,3.3-5.9,4
		C46.3,61.1,44.2,61.7,42.7,60.5z"/>
	<path fill="#DF3926" d="M42.3,56.8c0.5-0.8,1.6-1.4,1.9-1.5c0.1,0,0.4-0.1,0.6-0.1c0,0,0.3,0,0.6-0.2c0.3-0.1,1.8-0.5,3.1-0.2
		c1.3,0.3,2.9,1.6,3.5,2.2c-0.1-0.5-0.7-1.2-0.7-1.2l-0.9-1c-0.5-0.5-1.2-1-2.1-1.3c-2.4-0.6-3.2,0.2-3.2,0.2s-1.1-0.6-2.7,0.7
		c-1.7,1.3-1.4,2.6-1.3,3.1c0.2,0.4,0.4,1.2,0.4,1.2h0l0.1,0C41.9,58.8,41.9,57.6,42.3,56.8z"/>
	<path fill="#DE857C" d="M43.6,60.3c0,0-1-1,0.1-2.1c1.1-1.1,3-0.6,3.3-0.4c0,0,0.8-0.7,2.1-0.7c1,0,2.4,0.4,2.9,0.6
		c0,0-1.5,2.5-4.6,3.2C44.2,61.6,43.6,60.3,43.6,60.3z"/>
	<path opacity="0.9" fill="#D7746C" d="M46.2,58.4c0.3-0.3,0.7-0.6,0.7-0.6c0,0-0.1-0.1-0.3-0.1C46.4,58,46.2,58.4,46.2,58.4z"/>
	<path fill="#FFFFFF" d="M43.6,60.3v-0.2c0,0,0.2-0.4,0.4-0.6c0,0,2.8-0.1,4.1-0.4c0.4-0.1,0.8-0.2,1.1-0.4c0,0,0.2-0.1,0.4,0.1
		c0.2,0.2,0.6,0.8,0.6,0.8s-2.7,1.7-4.7,1.5c-2-0.2-1.9-0.4-1.9-0.4V60.3z"/>
	<path fill="#EE4023" d="M50.4,59L50.4,59C50.4,59,50.4,59,50.4,59c-0.1,0.1-0.2,0.1-0.2,0.1c0,0,0,0,0,0c-3.3,1.4-4.8,1.4-4.8,1.4
		l0,0c0,0-0.1,0-0.1,0s-3.1,0.2-3.4-1.6l-0.2,0c0,0-0.7,2.2,2.3,3s6.2-1.3,7.6-3.4c0.3-0.4,0.4-0.9,0.5-1.4
		C52.1,57.1,51.6,58.4,50.4,59z"/>
	<path fill="#EAE7D7" d="M65.8,35.7c-2.9-1.5-5.8-7.5-5.8-7.5s-3.5-6.3-7.2-7.7c-3.7-1.5-9.3-1-11.1,1.6c-1.2,1.8-0.4,3.8,0.2,4.9
		c0.5-0.1,1.1-0.1,1.7-0.2l0,0c0,0-1.4-2.4,1-4.3c0,0,2-1.7,5.1-0.2c3.1,1.5,5.9,7.8,5.9,7.8l0.1,0.1c0,0,2.8,5.1,4.1,6.4
		c1.3,1.4,3.3,2.9,6.1,2.9c2.2,0,4.2,1.2,5.5,2.5c0,0,0.4,0.4,0.8,0.9C72.2,40,68.7,37.3,65.8,35.7z"/>
</g>
</svg>
