<?xml version="1.0" encoding="utf-8"?>
<!-- Generator: Adobe Illustrator 18.0.0, SVG Export Plug-In . SVG Version: 6.00 Build 0)  -->
<!DOCTYPE svg PUBLIC "-//W3C//DTD SVG 1.1//EN" "http://www.w3.org/Graphics/SVG/1.1/DTD/svg11.dtd">
<svg version="1.1" id="Layer_1" xmlns="http://www.w3.org/2000/svg" xmlns:xlink="http://www.w3.org/1999/xlink" x="0px" y="0px"
	 viewBox="0 0 70.1 80.6" enable-background="new 0 0 70.1 80.6" xml:space="preserve">
<g id="trump">
	<polygon fill="#F68A48" points="2.1,34.4 2.4,35.1 4.7,35.1 4.2,32.9 3.1,32.9 	"/>
	<path fill="#F68A48" d="M2.3,34.6c-1.1-3.9-1.4-9.4-0.7-14c0.7-4.9,3.4-5.2,3.4-5.2h4.2L9.9,16l-1,31.9l-0.6,0.4L4.1,34.6H2.3z"/>
	<path fill="#F9A670" d="M1.4,20.6c0.7-4.9,3.4-5.2,3.4-5.2H9L9.9,16l-0.1,3.8c-0.6,0-2.4,0.1-4.1,2.3C4.2,23.9,3,27,1.1,29.4
		C1,26.5,1,23.4,1.4,20.6z"/>
	<path fill="#F37D31" d="M8.9,47.8l-0.6,0.4L4.1,34.6l0.1,0.7l1.3-0.7c2.3-4.1,3.9-4.4,3.9-4.4L8.9,47.8z"/>
	<path fill="#E2847D" d="M52.5,36.4c0,0,1-0.4,0.8,1.3c-0.1,1.7-0.8,8.6-0.8,8.6s-0.7,2.4-2.4,2.8l1.1-12.8L52.5,36.4z"/>
	<path fill="#FAB483" stroke="#FFFFFF" stroke-width="3.751200e-02" stroke-opacity="0" d="M51.6,39.7l-4.8-15.1l4.1-1.8
		c0,0,3,0.4,2.8,3.5C53.4,29.4,53,39.5,51.6,39.7z"/>
	<path fill="#F6916C" d="M51.6,39.7l-1.3,18.1c0,0,0.8,13-10.2,18.9c0,0-9.3,5.9-16.5,1c-5.9-3.9-10.2-8.5-12.8-14.2
		c0,0-2.8-6.1-2.8-10l1-37.9l40.3,7.9L51.6,39.7z"/>
	<path fill="#F69588" d="M5.5,34.6H2.3c0,0-2.3-0.1-2.3,2.1C0.1,38.8,1.4,44,1.4,44s1.3,6.5,3.8,7.6c1.4,0.6,2.8,0.6,4.1,0.1
		l-0.6-3.9L5.5,34.6z"/>
	<path fill="#F68A48" stroke="#FFFFFF" stroke-width="3.751200e-02" stroke-opacity="0" d="M54.4,21.6l10.4-2c0,0-12.4,7.5-23.8,6.9
		c-3.4-0.1-7.3-1.3-11.1-2.7c0,0-6.9-2.8-9.3-3.9c-2.3-1.1-10.2-3.7-17.1-3.9c0,0-1.3-0.4-1.3-2.4c0-1,1.3-2,2.4-2.7
		c0,0,2.5-1.4,3.8-3.7c1.4-2,8.3-8.3,22.8-7.1c14.5,1.4,22.4,11,22.4,11s2.7,2.3,7.3,1.7c0,0-6.3,2.8-13.1,0.8c0,0,7.1,3.9,21,0.3
		C69,14,65,18.8,54.4,21.6z"/>
	<path fill="#FDD1B0" stroke="#FFFFFF" stroke-width="3.751200e-02" stroke-opacity="0" d="M47.5,32.3c0,0-1-2.5-5.1-2.7
		c-1.8-0.1-3.4,0.8-4.7,1.8c0,0-1,1-1,1.6c0,0-0.3,0.3,0.8,0.4s3.9,0,3.9,0s3-1.8,3.5-1.6c0.1,0.1,0.3,0.1,0.4,0.3l1.3,0.4
		C47,32.6,47.8,33,47.5,32.3z"/>
	<path fill="#FDD1B0" stroke="#FFFFFF" stroke-width="3.751200e-02" stroke-opacity="0" d="M27.2,27.4c0,0-0.8,0.6-2,0.6
		c-1.1,0.1-2.4,0.4-3.2,1c-0.8,0.6-2.5,1.7-4.5,1.7c-0.4,0-0.7-0.1-1-0.3c0,0,0.3-0.8,1.8-1.7c1.6-0.8,1.8-1.3,2.4-1.8
		c0.6-0.4,2.3-1.8,3.8-1.8S27.2,25.8,27.2,27.4z"/>
	<path fill="#FFFFFF" d="M45.6,35.8c0,0-1.8,1.3-3.2,1.4c-1.4,0.1-3.1-0.1-4.1-0.6l0.6-0.3c0,0,1.7-2.5,4.1-1.8
		C45.3,35.3,45.6,35.8,45.6,35.8z"/>
	<path fill="#7EB9C7" d="M40.5,36.3c0-1,1-1.3,1-1.3s0.7-0.3,1.6,0.4c0.6,0.6,0.4,1.4,0.4,1.7c-0.4,0.1-0.7,0.3-1.1,0.3
		c-0.6,0.1-1,0.1-1.6,0C40.6,37.1,40.5,36.7,40.5,36.3z"/>
	<path fill="#FFFFFF" d="M28.5,37.5c0,0-1.3,1.3-3.8,1.3c-1.1,0-2-0.3-2.4-0.6c0,0-1-0.4-1.7-0.3H20c0,0,2.3-2.3,4.8-2
		C27.4,36.3,28.5,37.5,28.5,37.5z"/>
	<path fill="#7EB9C7" d="M23.1,36.4c0.3-0.1,1.4-0.3,1.4-0.3s1.1,0.3,1.3,1.3c0.1,0.7-0.1,1.1-0.4,1.4c-0.3,0-0.4,0-0.7,0
		c-1,0-1.7-0.1-2.1-0.4c-0.1-0.3-0.1-0.6-0.1-0.8C22.4,36.8,23.1,36.4,23.1,36.4z"/>
	<g>
		<path fill="#DC7970" d="M28.9,39.4c-0.7,1.3-1.8,2.3-3.2,2.8c-1.4,0.4-3,0.1-4.4-0.1l0,0c-0.6,0-1.1-0.1-1.7-0.6
			c-0.4-0.3-0.8-0.8-1-1.4h0.1c0.1,0.3,0.3,0.4,0.4,0.7c0.1,0.1,0.4,0.3,0.6,0.4c0.3,0.1,0.4,0.1,0.7,0.1s0.6,0,0.7,0l0,0h0.1
			c0.7,0.1,1.4,0.3,2.1,0.3h1c0.1,0,0.3,0,0.4,0c0.1,0,0.3,0,0.4-0.1c0.1,0,0.3-0.1,0.4-0.1l0.4-0.1c0.3-0.1,0.6-0.3,0.8-0.4
			C27.8,40.2,28.3,39.8,28.9,39.4L28.9,39.4z"/>
	</g>
	<g>
		<path fill="#DC7970" d="M46.5,38c0,0,0,0.7-0.7,1.4c-0.3,0.4-0.8,0.7-1.3,1c-0.6,0.3-1.1,0.6-1.7,0.7c-0.7,0.1-1.3,0-1.8-0.1
			c-0.6-0.1-1.1-0.6-1.4-0.8c-0.6-0.7-1-1.3-1-1.3l0,0c0,0,0.1,0.1,0.4,0.3c0.1,0.1,0.3,0.1,0.4,0.3c0.1,0.1,0.3,0.3,0.4,0.4
			c0.3,0.3,0.7,0.4,1.3,0.6c0.3,0,0.6,0.1,0.8,0.1c0.1,0,0.3,0,0.4,0s0.1,0,0.3,0c0.4,0,1-0.3,1.6-0.6c0.3-0.1,0.6-0.3,0.7-0.4
			c0.3-0.1,0.4-0.3,0.6-0.4c0.3-0.3,0.6-0.6,0.7-0.7C46.4,38.1,46.4,38,46.5,38L46.5,38z"/>
	</g>
	<path fill="#DC7970" d="M45.6,61.1c0,0-0.6-2.5-0.8-4.8c-0.3-2.3-0.6-2.8-1.3-3.7c-0.7-0.8-3.1-3.4-3.5-5.2c0,0,2,2,3.4,2.8
		c1.3,0.8,1.8,2.5,1.8,4.4C45.3,56.3,45.4,59.4,45.6,61.1z"/>
	<path fill="#DC7970" d="M30,49.1c0,0-3.9,1.6-6.2,4.2c-1.6,1.7-2.5,4.9-3.2,6.9c0,0,0.6-5.4,2.1-7.3c1.7-2,3.5-3.4,7.1-4.1L30,49.1
		z"/>
	<path fill="#3D292F" d="M25.5,57.1c0.3-0.4,1.1-0.1,1.1-0.1s2.7,1,7.8,0.4c5.1-0.6,6.8-1.6,6.8-1.6c0.7-0.4,0.6,0.1,0.3,0.8
		c0,0-0.4,0.8-1.3,1.8l0,0c-0.4,0.4-1,1.1-1.7,2c-1.6,1.8-5.4,1.6-5.4,1.6c-3.9-0.1-6.8-3-7.3-3.4C25.2,58.1,25.2,57.6,25.5,57.1z"
		/>
	<path fill="#FFFFFF" d="M29.5,60.7c0,0,1.3,0.7,4.1,0.8c2.8,0,3.8-1,3.8-1c0.3-0.3,0.6-0.1,0.6-0.1c0.1,0.1,0.3,0.4,0.4,0.6
		c-1.7,1.4-5.2,1.1-5.2,1.1c-1.8,0-3.4-0.7-4.7-1.4C29.1,60.4,29.5,60.7,29.5,60.7z"/>
	<path fill="#DC7970" d="M36.9,68.3c0,0-0.7-3-3.1-2.8s-3.4,1.1-4.7,2.5C29.2,68,34.1,66.2,36.9,68.3z"/>
	<path fill="#C6615A" d="M24.5,59.1c2.4,3.1,5.1,5.9,10,5.9s7.3-5.9,7.3-5.9s-1.8,6.2-7.3,6.5c-5.4,0.3-8.2-3.7-8.2-3.7L24.5,59.1z"
		/>
	<g>
		<path fill="#DC7970" d="M43.4,67.3c0,0-0.3,0.3-0.6,0.7c-0.4,0.4-0.8,1.1-1.3,2.1c-1,1.8-3.1,3.9-5.8,4.8
			c-1.3,0.4-2.7,0.6-4.1,0.6c-1.3-0.1-2.5-0.6-3.4-1c-1-0.4-1.7-1-2.1-1.4c-0.4-0.4-0.7-0.6-0.7-0.6v-0.1c0,0,0.3,0.1,0.8,0.4
			c0.6,0.3,1.3,0.7,2.3,1c1,0.4,2.1,0.6,3.2,0.7c0.3,0,0.6,0,0.8,0H33h0.1h0.4c0.6-0.1,1.3-0.3,1.8-0.4c1.1-0.4,2.3-1,3.2-1.8
			c1-0.7,1.8-1.6,2.3-2.4c0.3-0.4,0.6-0.8,0.8-1.1c0.3-0.3,0.6-0.6,0.7-0.8C43,67.4,43.3,67.2,43.4,67.3L43.4,67.3z"/>
	</g>
	<path fill="#C6615A" d="M39.9,76.7c-1.1,0.7-5.1,2.7-9.3,2.7c-3.8-0.1-6.6-4.7-6.6-4.7c1.3,1,3,2,5.5,2.8
		C34.1,79.4,38.4,77.6,39.9,76.7z"/>
	<path fill="#F37D31" stroke="#FFFFFF" stroke-width="3.751200e-02" stroke-opacity="0" d="M4.7,11c0,0,0.3-0.1,0.6-0.4
		c13-5.2,24.3,6.6,32.2,9.6s17.1,1.3,17.1,1.3l10.4-2c0,0-12.4,7.5-23.8,6.9c-3.4-0.1-7.3-1.3-11.1-2.7c0,0-6.9-2.8-9.3-3.9
		c-2.3-1.1-10.2-3.7-17.1-3.9c0,0-1.3-0.4-1.3-2.4C2.3,12.7,3.5,11.7,4.7,11z"/>
	<path fill="#F7985C" d="M10.4,6.2c0,0-1.8,1.3-2.7,2.3l0,0C8,8.2,8.3,7.8,8.6,7.4c1.3-2.1,8.2-8.5,22.7-7.2
		c14.5,1.4,22.4,11,22.4,11s2.5,2.3,7.3,1.7c0,0-6.3,2.8-13.1,0.8c0,0-4.2-2.1-8.3-5.6C35.8,4.8,21.9-1.2,10.4,6.2z"/>
	<path fill="#8D4E4B" d="M42,34.2c-1.4-0.1-2.5,0.6-2.8,1.3c-0.4,0.8-1.6,1.1-1.6,1.1l0.1,0.4l0.7-0.1c0.7-0.1,1.1-1,1.1-1
		c0.4-0.4,1.1-0.8,2.1-1c2.3-0.3,4.2,1.4,4.2,1.4l0.7-0.1C46.7,36.1,45.4,34.6,42,34.2z"/>
	<path fill="#8D4E4B" d="M29.2,38.1c0,0-2.4-1.7-4.7-1.8c-1.8-0.1-3.9,1.8-4.5,2.4l-0.6-0.4c0,0,2.1-2.3,5.2-2.4
		c1.8-0.1,3.8,1,5.2,2L29.2,38.1z"/>
	<path fill="#F37D31" stroke="#FFFFFF" stroke-width="3.751200e-02" stroke-opacity="0" d="M64.9,19.6c0,0-8.5,6.9-22.3,6.9
		l-5.2-2.3L55.6,23L64.9,19.6z"/>
	<path fill="#EF6C62" d="M35.3,51.1c0,0,3-0.7,3.9-1.3c0,0,0.8-0.7,0.1-2.3c-0.1-0.3-0.3-0.6-0.4-0.7c0,0-2.3-7.3-4.1-11.4
		c-0.4-0.8-0.8-1.3-1.4-1.3c0,0-0.8,0.1-1,1.1c-0.1,1.1-1,7.9-2.3,12.1C30,47.7,30,48,29.9,48.1c0,0-0.8,1.6,1,2.4
		C32.7,51.2,35.3,51.1,35.3,51.1z"/>
</g>
</svg>
