<?xml version="1.0" encoding="utf-8"?>
<!-- Generator: Adobe Illustrator 18.0.0, SVG Export Plug-In . SVG Version: 6.00 Build 0)  -->
<!DOCTYPE svg PUBLIC "-//W3C//DTD SVG 1.1//EN" "http://www.w3.org/Graphics/SVG/1.1/DTD/svg11.dtd">
<svg version="1.1" id="Layer_1" xmlns="http://www.w3.org/2000/svg" xmlns:xlink="http://www.w3.org/1999/xlink" x="0px" y="0px"
	 viewBox="0 0 48.3 56.7" enable-background="new 0 0 48.3 56.7" xml:space="preserve">
<g>
	<polygon fill="#F68A46" points="1.5,24.4 1.7,24.9 3.3,24.9 3,23.3 2.2,23.3 	"/>
	<path fill="#F68A46" d="M1.6,24.5c-0.8-2.8-1-6.7-0.5-9.9c0.5-3.5,2.4-3.7,2.4-3.7h3L7,11.3L6.3,33.9l-0.4,0.3l-3-9.7H1.6z"/>
	<path fill="#F9A56F" d="M1,14.6c0.5-3.5,2.4-3.7,2.4-3.7h3L7,11.3L6.9,14c-0.4,0-1.7,0.1-2.9,1.6c-1,1.3-1.9,3.5-3.2,5.2
		C0.7,18.8,0.7,16.6,1,14.6z"/>
	<path fill="#F47D32" d="M6.3,33.9l-0.4,0.3l-3-9.7L3,25l0.9-0.5c1.6-2.9,2.8-3.1,2.8-3.1L6.3,33.9z"/>
	<path fill="#E2847D" d="M37.2,25.8c0,0,0.7-0.3,0.6,0.9c-0.1,1.2-0.6,6.1-0.6,6.1s-0.5,1.7-1.7,2l0.8-9.1L37.2,25.8z"/>
	<path fill="#FAB383" stroke="#FFFFFF" stroke-width="3.751200e-02" stroke-opacity="0" d="M36.6,28.1l-3.4-10.7l2.9-1.3
		c0,0,2.1,0.3,2,2.5C37.9,20.8,37.6,28,36.6,28.1z"/>
	<path fill="#F6906B" d="M36.6,28.1l-0.9,12.8c0,0,0.6,9.2-7.2,13.4c0,0-6.6,4.2-11.7,0.7c-4.2-2.8-7.2-6-9.1-10.1c0,0-2-4.3-2-7.1
		l0.7-26.9L35,16.5L36.6,28.1z"/>
	<path fill="#F69487" d="M3.9,24.5H1.6c0,0-1.6-0.1-1.6,1.5c0.1,1.5,1,5.2,1,5.2s0.9,4.6,2.7,5.4c1,0.4,2,0.4,2.9,0.1l-0.4-2.8
		L3.9,24.5z"/>
	<path fill="#F68A46" stroke="#FFFFFF" stroke-width="3.751200e-02" stroke-opacity="0" d="M38.6,15.3l7.4-1.4c0,0-8.8,5.3-16.9,4.9
		c-2.4-0.1-5.2-0.9-7.9-1.9c0,0-4.9-2-6.6-2.8c-1.6-0.8-7.2-2.6-12.1-2.8c0,0-0.9-0.3-0.9-1.7c0-0.7,0.9-1.4,1.7-1.9
		c0,0,1.8-1,2.7-2.6C7,3.7,11.9-0.8,22.2,0.1c10.3,1,15.9,7.8,15.9,7.8s1.9,1.6,5.2,1.2c0,0-4.5,2-9.3,0.6c0,0,5,2.8,14.9,0.2
		C48.9,9.9,46.1,13.3,38.6,15.3z"/>
	<path fill="#FDD0AF" stroke="#FFFFFF" stroke-width="3.751200e-02" stroke-opacity="0" d="M33.7,22.9c0,0-0.7-1.8-3.6-1.9
		c-1.3-0.1-2.4,0.6-3.3,1.3c0,0-0.7,0.7-0.7,1.1c0,0-0.2,0.2,0.6,0.3c0.8,0.1,2.8,0,2.8,0s2.1-1.3,2.5-1.1c0.1,0.1,0.2,0.1,0.3,0.2
		l0.9,0.3C33.3,23.1,33.9,23.4,33.7,22.9z"/>
	<path fill="#FDD0AF" stroke="#FFFFFF" stroke-width="3.751200e-02" stroke-opacity="0" d="M19.3,19.4c0,0-0.6,0.4-1.4,0.4
		c-0.8,0.1-1.7,0.3-2.3,0.7c-0.6,0.4-1.8,1.2-3.2,1.2c-0.3,0-0.5-0.1-0.7-0.2c0,0,0.2-0.6,1.3-1.2c1.1-0.6,1.3-0.9,1.7-1.3
		c0.4-0.3,1.6-1.3,2.7-1.3C18.5,17.7,19.3,18.3,19.3,19.4z"/>
	<path fill="#FFFFFF" d="M32.3,25.4c0,0-1.3,0.9-2.3,1c-1,0.1-2.2-0.1-2.9-0.4l0.4-0.2c0,0,1.2-1.8,2.9-1.3
		C32.1,25,32.3,25.4,32.3,25.4z"/>
	<path fill="#7CB8C7" d="M28.7,25.7c0-0.7,0.7-0.9,0.7-0.9s0.5-0.2,1.1,0.3c0.4,0.4,0.3,1,0.3,1.2c-0.3,0.1-0.5,0.2-0.8,0.2
		c-0.4,0.1-0.7,0.1-1.1,0C28.8,26.3,28.7,26,28.7,25.7z"/>
	<path fill="#FFFFFF" d="M20.2,26.6c0,0-0.9,0.9-2.7,0.9c-0.8,0-1.4-0.2-1.7-0.4c0,0-0.7-0.3-1.2-0.2l-0.4,0c0,0,1.6-1.6,3.4-1.4
		C19.4,25.7,20.2,26.6,20.2,26.6z"/>
	<path fill="#7CB8C7" d="M16.4,25.8c0.2-0.1,1-0.2,1-0.2s0.8,0.2,0.9,0.9c0.1,0.5-0.1,0.8-0.3,1c-0.2,0-0.3,0-0.5,0
		c-0.7,0-1.2-0.1-1.5-0.3c-0.1-0.2-0.1-0.4-0.1-0.6C15.9,26.1,16.4,25.8,16.4,25.8z"/>
	<g>
		<path fill="#DC7970" d="M20.5,27.9c-0.5,0.9-1.3,1.6-2.3,2c-1,0.3-2.1,0.1-3.1-0.1l0,0c-0.4,0-0.8-0.1-1.2-0.4
			c-0.3-0.2-0.6-0.6-0.7-1l0.1,0c0.1,0.2,0.2,0.3,0.3,0.5c0.1,0.1,0.3,0.2,0.4,0.3c0.2,0.1,0.3,0.1,0.5,0.1c0.2,0,0.4,0,0.5,0l0,0
			l0.1,0c0.5,0.1,1,0.2,1.5,0.2l0.7,0c0.1,0,0.2,0,0.3,0c0.1,0,0.2,0,0.3-0.1c0.1,0,0.2-0.1,0.3-0.1l0.3-0.1
			c0.2-0.1,0.4-0.2,0.6-0.3C19.7,28.5,20.1,28.2,20.5,27.9L20.5,27.9z"/>
	</g>
	<g>
		<path fill="#DC7970" d="M33,26.9c0,0,0,0.5-0.5,1c-0.2,0.3-0.6,0.5-0.9,0.7c-0.4,0.2-0.8,0.4-1.2,0.5c-0.5,0.1-0.9,0-1.3-0.1
			c-0.4-0.1-0.8-0.4-1-0.6c-0.4-0.5-0.7-0.9-0.7-0.9l0,0c0,0,0.1,0.1,0.3,0.2c0.1,0.1,0.2,0.1,0.3,0.2c0.1,0.1,0.2,0.2,0.3,0.3
			c0.2,0.2,0.5,0.3,0.9,0.4c0.2,0,0.4,0.1,0.6,0.1c0.1,0,0.2,0,0.3,0c0.1,0,0.1,0,0.2,0c0.3,0,0.7-0.2,1.1-0.4
			c0.2-0.1,0.4-0.2,0.5-0.3c0.2-0.1,0.3-0.2,0.4-0.3c0.2-0.2,0.4-0.4,0.5-0.5C32.9,27,32.9,26.9,33,26.9L33,26.9z"/>
	</g>
	<path fill="#DC7970" d="M32.3,43.3c0,0-0.4-1.8-0.6-3.4c-0.2-1.6-0.4-2-0.9-2.6c-0.5-0.6-2.2-2.4-2.5-3.7c0,0,1.4,1.4,2.4,2
		c0.9,0.6,1.3,1.8,1.3,3.1C32.1,39.9,32.2,42.1,32.3,43.3z"/>
	<path fill="#DC7970" d="M21.3,34.8c0,0-2.8,1.1-4.4,3c-1.1,1.2-1.8,3.5-2.3,4.9c0,0,0.4-3.8,1.5-5.2c1.2-1.4,2.5-2.4,5-2.9
		L21.3,34.8z"/>
	<path fill="#3D282E" d="M18.1,40.5c0.2-0.3,0.8-0.1,0.8-0.1s1.9,0.7,5.5,0.3c3.6-0.4,4.8-1.1,4.8-1.1c0.5-0.3,0.4,0.1,0.2,0.6
		c0,0-0.3,0.6-0.9,1.3c0,0,0,0,0,0c-0.3,0.3-0.7,0.8-1.2,1.4c-1.1,1.3-3.8,1.1-3.8,1.1c-2.8-0.1-4.8-2.1-5.2-2.4
		C17.9,41.2,17.9,40.8,18.1,40.5z"/>
	<path fill="#FFFFFF" d="M20.9,43c0,0,0.9,0.5,2.9,0.6c2,0,2.7-0.7,2.7-0.7c0.2-0.2,0.4-0.1,0.4-0.1c0.1,0.1,0.2,0.3,0.3,0.4
		C26,44.2,23.5,44,23.5,44c-1.3,0-2.4-0.5-3.3-1C20.6,42.8,20.9,43,20.9,43z"/>
	<path fill="#DC7970" d="M26.2,48.4c0,0-0.5-2.1-2.2-2c-1.7,0.1-2.4,0.8-3.3,1.8C20.7,48.2,24.2,46.9,26.2,48.4z"/>
	<path fill="#C66159" d="M17.4,41.9c1.7,2.2,3.6,4.2,7.1,4.2c3.5,0,5.2-4.2,5.2-4.2s-1.3,4.4-5.2,4.6c-3.8,0.2-5.8-2.6-5.8-2.6
		L17.4,41.9z"/>
	<g>
		<path fill="#DC7970" d="M30.8,47.7c0,0-0.2,0.2-0.4,0.5c-0.3,0.3-0.6,0.8-0.9,1.5c-0.7,1.3-2.2,2.8-4.1,3.4
			c-0.9,0.3-1.9,0.4-2.9,0.4c-0.9-0.1-1.8-0.4-2.4-0.7c-0.7-0.3-1.2-0.7-1.5-1c-0.3-0.3-0.5-0.4-0.5-0.4l0-0.1c0,0,0.2,0.1,0.6,0.3
			c0.4,0.2,0.9,0.5,1.6,0.7c0.7,0.3,1.5,0.4,2.3,0.5c0.2,0,0.4,0,0.6,0l0.2,0l0.1,0l0.3,0c0.4-0.1,0.9-0.2,1.3-0.3
			c0.8-0.3,1.6-0.7,2.3-1.3c0.7-0.5,1.3-1.1,1.6-1.7c0.2-0.3,0.4-0.6,0.6-0.8c0.2-0.2,0.4-0.4,0.5-0.6
			C30.5,47.8,30.7,47.6,30.8,47.7L30.8,47.7z"/>
	</g>
	<path fill="#C66159" d="M28.3,54.4c-0.8,0.5-3.6,1.9-6.6,1.9C19,56.2,17,53,17,53c0.9,0.7,2.1,1.4,3.9,2
		C24.2,56.3,27.2,55,28.3,54.4z"/>
	<path fill="#F47D32" stroke="#FFFFFF" stroke-width="3.751200e-02" stroke-opacity="0" d="M3.3,7.8c0,0,0.2-0.1,0.4-0.3
		c9.2-3.7,17.2,4.7,22.8,6.8s12.1,0.9,12.1,0.9l7.4-1.4c0,0-8.8,5.3-16.9,4.9c-2.4-0.1-5.2-0.9-7.9-1.9c0,0-4.9-2-6.6-2.8
		c-1.6-0.8-7.2-2.6-12.1-2.8c0,0-0.9-0.3-0.9-1.7C1.6,9,2.5,8.3,3.3,7.8z"/>
	<path fill="#F7975B" d="M7.4,4.4c0,0-1.3,0.9-1.9,1.6c0,0,0,0,0,0c0.2-0.2,0.4-0.5,0.6-0.8C7,3.7,11.9-0.8,22.2,0.1
		c10.3,1,15.9,7.8,15.9,7.8s1.8,1.6,5.2,1.2c0,0-4.5,2-9.3,0.6c0,0-3-1.5-5.9-4C25.4,3.4,15.5-0.9,7.4,4.4z"/>
	<path fill="#8C4D4A" d="M29.8,24.2c-1-0.1-1.8,0.4-2,0.9c-0.3,0.6-1.1,0.8-1.1,0.8l0.1,0.3l0.5-0.1c0.5-0.1,0.8-0.7,0.8-0.7
		c0.3-0.3,0.8-0.6,1.5-0.7c1.6-0.2,3,1,3,1l0.5-0.1C33.1,25.6,32.2,24.5,29.8,24.2z"/>
	<path fill="#8C4D4A" d="M20.7,27c0,0-1.7-1.2-3.3-1.3c-1.3-0.1-2.8,1.3-3.2,1.7l-0.4-0.3c0,0,1.5-1.6,3.7-1.7
		c1.3-0.1,2.7,0.7,3.7,1.4L20.7,27z"/>
	<path fill="#F47D32" stroke="#FFFFFF" stroke-width="3.751200e-02" stroke-opacity="0" d="M46,13.9c0,0-6,4.9-15.8,4.9l-3.7-1.6
		l12.9-0.9L46,13.9z"/>
	<path fill="#EF6C62" d="M25,36.2c0,0,2.1-0.5,2.8-0.9c0,0,0.6-0.5,0.1-1.6c-0.1-0.2-0.2-0.4-0.3-0.5c0,0-1.6-5.2-2.9-8.1
		c-0.3-0.6-0.6-0.9-1-0.9c0,0-0.6,0.1-0.7,0.8c-0.1,0.8-0.7,5.6-1.6,8.6c-0.1,0.2-0.1,0.4-0.2,0.5c0,0-0.6,1.1,0.7,1.7
		C23.2,36.3,25,36.2,25,36.2z"/>
</g>
</svg>
