<?xml version="1.0" encoding="utf-8"?>
<!-- Generator: Adobe Illustrator 18.0.0, SVG Export Plug-In . SVG Version: 6.00 Build 0)  -->
<!DOCTYPE svg PUBLIC "-//W3C//DTD SVG 1.1//EN" "http://www.w3.org/Graphics/SVG/1.1/DTD/svg11.dtd">
<svg version="1.1" id="Layer_1" xmlns="http://www.w3.org/2000/svg" xmlns:xlink="http://www.w3.org/1999/xlink" x="0px" y="0px"
	 viewBox="0 0 71.8 76.9" enable-background="new 0 0 71.8 76.9" xml:space="preserve">
<g id="trump">
	<path fill="#F47D32" stroke="#FFFFFF" stroke-width="0.1033" stroke-opacity="0" d="M7.3,43.5c0,0-1-3.3-1-3.5c0,0-0.1-0.1-0.2-0.2
		c2.4-2.8,5.3-4.5,7-5c3.6-1,5.5-3.4,5.5-3.4l-2.4,10.7l-5.1-0.7l0.3,3.3L9.2,57.2L6.6,56c-0.9-0.6-1.6-1.4-2.2-2.2
		c0.2-5.2,2.1-8.7,2.1-8.7L7.3,43.5z"/>
	<g>
		<g>
			<path fill="#F47D32" d="M2.2,49.9c0-4.2,1.7-7.6,3.8-10.1C6.2,39.9,6.2,40,6.2,40c0.1,0.3,1,3.5,1,3.5l-0.8,1.6
				c0,0-1.9,3.5-2.1,8.7c-0.7-1-1.1-1.8-1.1-1.8C2.9,51.4,2.5,50.6,2.2,49.9z"/>
		</g>
		<g>
			<path fill="#F47D32" d="M2.2,49.9c0-4.2,1.7-7.6,3.8-10.1C6.2,39.9,6.2,40,6.2,40c0.1,0.3,1,3.5,1,3.5l-0.8,1.6
				c0,0-1.9,3.5-2.1,8.7c-0.7-1-1.1-1.8-1.1-1.8C2.9,51.4,2.5,50.6,2.2,49.9z"/>
		</g>
		<g opacity="0">
			<path fill="none" stroke="#FFFFFF" stroke-width="0.1033" d="M2.2,49.9c0-4.2,1.7-7.6,3.8-10.1C6.2,39.9,6.2,40,6.2,40
				c0.1,0.3,1,3.5,1,3.5l-0.8,1.6c0,0-1.9,3.5-2.1,8.7c-0.7-1-1.1-1.8-1.1-1.8C2.9,51.4,2.5,50.6,2.2,49.9z"/>
		</g>
	</g>
	<path fill="#FAB383" stroke="#FFFFFF" stroke-width="0.1033" stroke-opacity="0" d="M48.6,16.3h4.7c0,0,6.2,6.9,0.8,18.9
		c-0.4,1-0.8,1.8-1.2,2.4C52,32.8,49,18.3,48.6,16.3z"/>
	<line fill="none" stroke="#FFFFFF" stroke-width="0.6884" stroke-miterlimit="10" x1="0.1" y1="62.4" x2="0.1" y2="81.5"/>
	<polygon fill="none" stroke="#ED1F24" stroke-width="8.604900e-02" stroke-miterlimit="10" points="7.4,58.3 9.3,62.4 9.3,62.4 	
		"/>
	<path fill="#F69487" d="M8.8,59.2L33.5,76h5.2c0,0,6-3.4,9.6-7.4c0,0,0-0.1,0.1-0.2c4.3-2.3,5-6.7,5-6.7l1.8-16.8
		c0,0,0.9-4.9-0.5-8.4c0,0-1-1.8-0.6-4.5l0.7-2.9c0,0,1.1-2.2-2.4-8.3c-0.8-1.3-2.1-3.2-3.6-5.4L17,13.3l-1,4.5L8.8,59.2z"/>
	<g>
		<path fill="#C66159" d="M33.6,64.8c0.5,1.1,1.9,2.3,1.9,2.3c2.2,1.5,4.8,2.6,7.6,2.5c2.2-0.1,3.9-0.6,5.3-1.3
			c-0.1,0.1-0.1,0.2-0.1,0.2c-0.3,0.3-0.6,0.6-0.9,0.9c-0.4,0.1-0.8,0.3-1.2,0.4l-1.4,0.3l-1.5,0.1l-0.2,0l0,0l0,0l0,0l0,0l-0.1,0
			l-0.3,0c-0.2,0-0.5,0-0.7,0c-0.5-0.1-1-0.1-1.5-0.3c-0.5-0.1-0.9-0.3-1.4-0.4c-0.2-0.1-0.4-0.2-0.7-0.3c-0.2-0.1-0.4-0.2-0.6-0.3
			L37,68.6c-0.2-0.1-0.4-0.3-0.6-0.4c-0.4-0.3-0.8-0.6-1.1-0.8l0,0c-0.2-0.2-0.4-0.4-0.5-0.6c-0.2-0.2-0.3-0.4-0.5-0.6
			c-0.1-0.1-0.1-0.2-0.2-0.3c-0.1-0.1-0.1-0.2-0.2-0.3c-0.1-0.1-0.1-0.2-0.2-0.3L33.6,64.8L33.6,64.8z"/>
		<polygon fill="#C66159" points="33.6,64.8 33.6,64.8 33.6,64.8 		"/>
	</g>
	<path fill="none" d="M0.3,32.6c0,0,1.4-12.7,2.2-14.6c0.8-1.8,2.3-1.5,2.3-1.5c2.2,0.3,6.4,1.9,6.4,1.9c1.3,0.5,2.6,0.9,4.1,1.1
		c2,0.3,4,0.5,5.9,0.6l-4.9,22.1l-5.1-0.7l0.3,3.3L9.2,57.2L6.6,56c-2-1.3-3.4-4-3.4-4C-1.3,44.1,0.3,32.6,0.3,32.6z"/>
	<path fill="none" stroke="#ED1F24" stroke-width="8.604900e-02" stroke-miterlimit="10" d="M56.7,15.3c0,0-1.2,0.5-3.4,1"/>
	<path opacity="0.4" fill="#ED1F24" d="M42.1,46.3h4.8c0,0,0.4-0.1,0.7-0.2c0.3-0.2,1.6-1.3,1.6-1.3s1.5-0.8-0.3-4.8l-3-7.8
		c0,0-0.6-1.5-2.1-1.2c-1.4,0.3-1.2,2.2-1.2,2.2l0.3,5.8c0,0,0.1,2.3-0.3,2.8c0,0-0.5,0.5-0.7,0.6c-0.2,0.1-1.7,1.1-1.4,2.7
		C40.8,46.3,42.1,46.3,42.1,46.3z"/>
	<path fill="#FDD0AF" stroke="#FFFFFF" stroke-width="0.1033" stroke-opacity="0" d="M37.4,30.4c0,0-5.1-1.6-9,0.6
		c0,0,5.6-5.4,7.7-2.5c0,0,1.2-1.2,1.8-0.8c0.5,0.4,0.1,0.7,0.1,0.7s1.5-1,2-0.2c0.2,0.3,0,0.5-0.3,0.8L37.4,30.4z"/>
	<path fill="#FDD0AF" stroke="#FFFFFF" stroke-width="0.1033" stroke-opacity="0" d="M54.7,29c0,0,1-2.1,0-3.1
		c-0.2-0.2-0.5-0.1-0.9,0.3c0,0,0.1-1.7-2-0.9c-0.7,0.3-1.3,0.9-1.8,1.5c0,0,0.3-1.5-1-0.4c-1.3,1-2.5,3.4-2.9,4.9
		C46,31.4,51.1,25.8,54.7,29z"/>
	<g opacity="0.5">
		<path fill="#C66159" d="M51,36.8c0,0-0.3,0-0.6-0.2c-0.4-0.1-0.8-0.3-1.3-0.6c-0.4-0.3-0.8-0.7-1-1c-0.1-0.2-0.2-0.3-0.2-0.4
			c-0.1-0.1-0.1-0.2-0.1-0.2l0,0c0,0,0.1,0,0.2,0.1c0.1,0.1,0.2,0.2,0.4,0.3c0.1,0.1,0.3,0.2,0.5,0.4c0.2,0.1,0.3,0.3,0.5,0.4
			c0.2,0.1,0.4,0.3,0.5,0.4c0.2,0.1,0.3,0.3,0.5,0.4C50.8,36.5,51,36.7,51,36.8L51,36.8z"/>
	</g>
	<g opacity="0.5">
		<path fill="#C66159" d="M38.3,35.9c0,0,0,0.1,0,0.4c0,0.2-0.1,0.6-0.2,1c-0.1,0.2-0.2,0.4-0.3,0.6c-0.2,0.2-0.3,0.4-0.6,0.5
			c-0.2,0.2-0.5,0.3-0.7,0.4c-0.3,0.1-0.5,0.2-0.8,0.3c-0.6,0.2-1.2,0.2-1.7,0c-0.5-0.1-1-0.4-1.3-0.6c-0.4-0.2-0.6-0.5-0.8-0.7
			c-0.2-0.2-0.3-0.3-0.3-0.3l0,0c0,0,0.1,0.1,0.3,0.2c0.2,0.1,0.5,0.3,0.9,0.5c0.4,0.2,0.8,0.3,1.3,0.4c0.2,0,0.5,0.1,0.7,0.1
			c0.1,0,0.2,0,0.4,0c0.1,0,0.2-0.1,0.4-0.1c0.3,0,0.5-0.1,0.7-0.2c0.2-0.1,0.4-0.2,0.6-0.3c0.2-0.1,0.4-0.3,0.5-0.4
			c0.1-0.2,0.3-0.3,0.4-0.5c0.2-0.3,0.3-0.7,0.4-0.9C38.3,36,38.3,35.9,38.3,35.9L38.3,35.9z"/>
	</g>
	<path fill="#FFFFFF" d="M52.9,32.7c0,0-0.4,1.8-2.2,1.7c-1.8-0.1-2.4-0.8-2.8-1.4c0,0,1.2-1.2,3-1C52.7,32.2,52.9,32.7,52.9,32.7z"
		/>
	<path fill="#7CB8C7" d="M52,32.3c0,0-0.3,1.4-1.4,1.4c-1.1,0-1.4-1.3-1.4-1.3S49.9,31.6,52,32.3z"/>
	<g opacity="0.5">
		<path fill="#C66159" d="M54,31.4c0,0-0.1,1-0.3,2c-0.1,0.5-0.3,1-0.5,1.3c-0.2,0.3-0.3,0.5-0.3,0.5l0,0c0,0,0-0.1,0-0.2
			c0-0.1,0-0.3,0.1-0.5c0-0.2,0-0.4,0.1-0.6c0.1-0.2,0.1-0.5,0.1-0.7c0.1-0.2,0.2-0.5,0.2-0.7c0.1-0.2,0.2-0.4,0.2-0.6
			c0.1-0.2,0.2-0.3,0.2-0.4C53.9,31.5,54,31.4,54,31.4L54,31.4z"/>
	</g>
	<path fill="#FFFFFF" d="M37.8,34.2c0,0-1.3,1.5-3.3,1.6c-1.7,0.1-2.9-1-3.2-1.3c0,0,2.1-1.2,4.5-1C38.2,33.7,37.8,34.2,37.8,34.2z"
		/>
	<path fill="#7CB8C7" d="M36.3,33.7c0,0-0.1,1.3-1.4,1.5c-1.3,0.2-2-1.3-2-1.3S35,33.3,36.3,33.7z"/>
	<g opacity="0.5">
		<path fill="#C66159" d="M49.2,46.5c0,0,0.8,0.8,1.4,1.7c0.3,0.5,0.5,1,0.5,1.4c0,0.2,0.1,0.4,0.1,0.5c0,0.1,0,0.2,0,0.2l-0.1,0
			c0,0,0-0.1-0.1-0.2c0-0.1-0.2-0.3-0.2-0.4c-0.1-0.2-0.2-0.4-0.3-0.6c-0.1-0.2-0.2-0.4-0.4-0.6c-0.1-0.2-0.2-0.5-0.4-0.7
			c-0.1-0.2-0.2-0.4-0.3-0.6c-0.1-0.2-0.2-0.4-0.2-0.5C49.2,46.6,49.2,46.5,49.2,46.5L49.2,46.5z"/>
	</g>
	<g opacity="0.5">
		<path fill="#C66159" d="M39.5,47.3c0,0-0.1,0.2-0.3,0.5c-0.2,0.3-0.5,0.8-0.8,1.3c-0.3,0.6-0.6,1.2-0.8,1.9
			c-0.1,0.4-0.1,0.7-0.2,1.1c0,0.4-0.1,0.8-0.1,1.2c-0.1,1.7-0.2,3.3-0.2,4.6c0,0.3,0,0.6,0,0.8c0,0.2,0.1,0.4,0.1,0.6
			c0.1,0.4,0.2,0.6,0.2,0.6l-0.1,0c0,0-0.1-0.2-0.3-0.5c-0.1-0.2-0.2-0.4-0.3-0.6c-0.1-0.3-0.1-0.5-0.2-0.9c-0.2-1.3-0.2-3-0.1-4.7
			c0.1-0.9,0.1-1.7,0.4-2.5c0.3-0.8,0.7-1.4,1.1-1.9C38.9,47.8,39.5,47.2,39.5,47.3L39.5,47.3z"/>
	</g>
	<g opacity="0.5">
		<path fill="#C66159" d="M41.3,62.3c0,0-0.1,0-0.1-0.1c-0.1-0.1-0.2-0.1-0.4-0.2c-0.1-0.1-0.3-0.2-0.5-0.4
			c-0.2-0.1-0.4-0.3-0.5-0.4c-0.2-0.2-0.4-0.3-0.5-0.4c-0.2-0.1-0.3-0.3-0.5-0.4c-0.1-0.1-0.2-0.2-0.3-0.3c-0.1-0.1-0.1-0.1-0.1-0.1
			l0,0c0,0,0.2,0.1,0.5,0.3c0.3,0.2,0.7,0.4,1.1,0.8C40.7,61.5,41.3,62.3,41.3,62.3L41.3,62.3z"/>
	</g>
	<g opacity="0.5">
		<path fill="#C66159" d="M23.9,41.4c0,0,0,0.1,0.1,0.2c0,0.1,0.1,0.3,0.1,0.5c0,0.2,0.2,0.4,0.2,0.7c0.1,0.2,0.2,0.5,0.3,0.8
			c0.1,0.3,0.2,0.5,0.3,0.8c0.1,0.2,0.2,0.5,0.2,0.7c0.1,0.2,0.1,0.4,0.2,0.5c0,0.1,0,0.2,0,0.2l0,0c0,0-0.2-0.2-0.4-0.6
			c-0.2-0.4-0.5-0.9-0.7-1.4c-0.2-0.6-0.3-1.1-0.3-1.6C23.8,41.7,23.8,41.4,23.9,41.4L23.9,41.4z"/>
	</g>
	<g opacity="0.5">
		<path fill="#C66159" d="M44.4,70.8c0,0-2.1,0.9-4.3,1.2c-1.1,0.1-2.3-0.1-3.1-0.3c-0.8-0.3-1.3-0.5-1.3-0.5l0,0
			c0,0,0.6,0.1,1.4,0.2c0.2,0,0.4,0.1,0.7,0.1c0.2,0,0.5,0,0.7,0.1c0.5,0,1,0,1.6-0.1c0.5,0,1.1-0.1,1.6-0.2c0.5-0.1,1-0.1,1.4-0.2
			c0.4-0.1,0.8-0.1,1-0.2C44.2,70.8,44.4,70.8,44.4,70.8L44.4,70.8z"/>
	</g>
	<g opacity="0.5">
		<path fill="#C66159" d="M33.3,73.2c0,0-0.8-0.3-1.8-1c-1-0.7-2.3-1.8-3.2-3.3c-0.2-0.3-0.4-0.7-0.6-1.1c-0.2-0.4-0.3-0.8-0.5-1.1
			C27,66.4,27,66,26.9,65.7c-0.1-0.3-0.1-0.7-0.2-1c0-0.3-0.1-0.6-0.1-0.9c0-0.3,0-0.5,0-0.7c0-0.4,0-0.6,0-0.6l0.1,0
			c0,0,0,0.2,0.1,0.6c0,0.2,0,0.4,0.1,0.7c0,0.3,0.1,0.5,0.2,0.8c0.1,0.3,0.1,0.6,0.2,1c0.1,0.3,0.2,0.7,0.4,1
			c0.1,0.3,0.3,0.7,0.5,1.1c0.2,0.3,0.4,0.7,0.6,1c0.2,0.3,0.4,0.7,0.7,1c0.2,0.3,0.5,0.6,0.8,0.9c0.3,0.3,0.5,0.5,0.8,0.8
			c0.3,0.2,0.5,0.5,0.7,0.7c0.5,0.4,0.9,0.7,1.2,0.9C33.2,73.1,33.3,73.2,33.3,73.2L33.3,73.2z"/>
	</g>
	<g opacity="0.5">
		<path fill="#C66159" d="M26.7,65.4c0,0-0.3-0.2-0.7-0.6c-0.4-0.4-0.9-0.9-1.4-1.5c-0.5-0.6-0.8-1.2-1.1-1.7
			c-0.1-0.3-0.2-0.5-0.3-0.6c-0.1-0.2-0.1-0.2-0.1-0.2s0,0.1,0.1,0.2c0.1,0.1,0.2,0.4,0.3,0.6c0.3,0.5,0.7,1.1,1.2,1.6
			c0.5,0.5,1,1,1.5,1.3C26.7,64.8,27,65,27,65L26.7,65.4z"/>
	</g>
	<g>
		<path fill="#C66159" d="M14.8,52.3c0,0,0.1,0.2,0.1,0.5c0.1,0.3,0.2,0.8,0.2,1.4c0,0.3,0.1,0.6,0.1,0.9l0,0.3l0,0.2
			c0,0.2,0.1,0.3,0.1,0.5c0.1,0.7,0.3,1.4,0.6,2.1c0.1,0.4,0.2,0.7,0.4,1c0.1,0.3,0.3,0.7,0.4,1c0.3,0.6,0.6,1.2,0.8,1.7
			c0.3,0.5,0.5,0.9,0.6,1.2c0.2,0.3,0.2,0.5,0.2,0.5l-0.1,0.1c0,0-0.1-0.1-0.3-0.4c-0.2-0.2-0.5-0.6-0.9-1.1c-0.3-0.5-0.7-1-1-1.7
			c-0.3-0.6-0.6-1.4-0.9-2.1c-0.2-0.7-0.4-1.5-0.5-2.2c-0.1-0.7-0.1-1.4-0.1-2C14.7,53.1,14.7,52.3,14.8,52.3L14.8,52.3z"/>
	</g>
	<g opacity="0.5">
		<path fill="#C66159" d="M29.4,35.4c0,0,0,0-0.1,0.1c-0.1,0.1-0.1,0.2-0.2,0.3c-0.1,0.1-0.2,0.3-0.3,0.4c-0.1,0.1-0.3,0.3-0.4,0.4
			c-0.1,0.1-0.3,0.3-0.4,0.4c-0.1,0.1-0.3,0.2-0.4,0.3c-0.1,0.1-0.2,0.1-0.3,0.2c-0.1,0.1-0.1,0.1-0.1,0.1l0,0c0,0,0.1-0.2,0.3-0.4
			c0.2-0.2,0.5-0.5,0.8-0.8C28.8,35.9,29.4,35.4,29.4,35.4L29.4,35.4z"/>
	</g>
	<g opacity="0.5">
		<path fill="#C66159" d="M29,34.7c0,0-0.2,0.1-0.6,0.3c-0.2,0-0.4,0.1-0.6,0.1c-0.2,0-0.5,0-0.8,0c-0.3,0-0.5-0.1-0.7-0.2
			c-0.2-0.1-0.4-0.2-0.6-0.3c-0.3-0.2-0.4-0.5-0.4-0.5l0,0c0,0,0.1,0,0.1,0.1c0.1,0.1,0.2,0.1,0.4,0.2c0.3,0.2,0.8,0.3,1.3,0.4
			C28.1,34.9,29,34.7,29,34.7L29,34.7z"/>
	</g>
	<g opacity="0.5">
		<path fill="#C66159" d="M27.4,34.8c0,0,0.1,0.2,0.2,0.5c0.1,0.2,0.2,0.3,0.2,0.5c0.1,0.2,0.2,0.4,0.3,0.6c0.1,0.2,0.2,0.4,0.3,0.6
			c0.1,0.2,0.2,0.4,0.3,0.5c0.1,0.1,0.1,0.3,0.2,0.4C29,37.9,29,38,29,38l0,0c0,0-0.7-0.6-1.1-1.4c-0.2-0.4-0.3-0.8-0.4-1.2
			C27.4,35.1,27.4,34.8,27.4,34.8L27.4,34.8z"/>
	</g>
	<g>
		<g>
			<g>
				<path fill="#F47D32" d="M0.1,34.8C0.1,34.8,0.1,34.8,0.1,34.8L0.1,34.8c0.1-1.4,0.2-2.2,0.2-2.2s0.3-2.5,0.7-5.4
					c2.9-4.6,6.7-7.3,6.7-7.3c1.2-0.8,2.2-1.3,3-1.7c0.3,0.1,0.5,0.2,0.5,0.2c1.3,0.5,2.6,0.9,4.1,1.1c0.1,0,0.1,0,0.2,0
					c-0.9,0.3-2,0.7-3.2,1.3c0,0-8.7,5.1-12,13.5C0.2,34.5,0.1,34.6,0.1,34.8z"/>
				<path fill="#F47D32" d="M0.1,34.8C0.1,34.8,0.1,34.8,0.1,34.8L0.1,34.8c0.1-1.4,0.2-2.2,0.2-2.2s0.3-2.5,0.7-5.4
					c2.9-4.6,6.7-7.3,6.7-7.3c1.2-0.8,2.2-1.3,3-1.7c0.3,0.1,0.5,0.2,0.5,0.2c1.3,0.5,2.6,0.9,4.1,1.1c0.1,0,0.1,0,0.2,0
					c-0.9,0.3-2,0.7-3.2,1.3c0,0-8.7,5.1-12,13.5C0.2,34.5,0.1,34.6,0.1,34.8z"/>
			</g>
		</g>
		<g>
			<g>
				<path fill="#F9A56F" d="M0.1,34.8C0.1,34.8,0.1,34.8,0.1,34.8L0.1,34.8c0.1-1.4,0.2-2.2,0.2-2.2s0.3-2.5,0.7-5.4
					c2.9-4.6,6.7-7.3,6.7-7.3c1.2-0.8,2.2-1.3,3-1.7c0.3,0.1,0.5,0.2,0.5,0.2c1.3,0.5,2.6,0.9,4.1,1.1c0.1,0,0.1,0,0.2,0
					c-0.9,0.3-2,0.7-3.2,1.3c0,0-8.7,5.1-12,13.5C0.2,34.5,0.1,34.6,0.1,34.8z"/>
				<path opacity="0" fill="none" stroke="#FFFFFF" stroke-width="0.1033" d="M0.1,34.8C0.1,34.8,0.1,34.8,0.1,34.8L0.1,34.8
					c0.1-1.4,0.2-2.2,0.2-2.2s0.3-2.5,0.7-5.4c2.9-4.6,6.7-7.3,6.7-7.3c1.2-0.8,2.2-1.3,3-1.7c0.3,0.1,0.5,0.2,0.5,0.2
					c1.3,0.5,2.6,0.9,4.1,1.1c0.1,0,0.1,0,0.2,0c-0.9,0.3-2,0.7-3.2,1.3c0,0-8.7,5.1-12,13.5C0.2,34.5,0.1,34.6,0.1,34.8z"/>
			</g>
		</g>
		<g opacity="0">
			<g>
				<path fill="none" stroke="#FFFFFF" stroke-width="0.1033" d="M0.1,34.8C0.1,34.8,0.1,34.8,0.1,34.8L0.1,34.8
					c0.1-1.4,0.2-2.2,0.2-2.2s0.3-2.5,0.7-5.4c2.9-4.6,6.7-7.3,6.7-7.3c1.2-0.8,2.2-1.3,3-1.7c0.3,0.1,0.5,0.2,0.5,0.2
					c1.3,0.5,2.6,0.9,4.1,1.1c0.1,0,0.1,0,0.2,0c-0.9,0.3-2,0.7-3.2,1.3c0,0-8.7,5.1-12,13.5C0.2,34.5,0.1,34.6,0.1,34.8z"/>
				<path fill="none" stroke="#FFFFFF" stroke-width="0.1033" d="M0.1,34.8C0.1,34.8,0.1,34.8,0.1,34.8L0.1,34.8
					c0.1-1.4,0.2-2.2,0.2-2.2s0.3-2.5,0.7-5.4c2.9-4.6,6.7-7.3,6.7-7.3c1.2-0.8,2.2-1.3,3-1.7c0.3,0.1,0.5,0.2,0.5,0.2
					c1.3,0.5,2.6,0.9,4.1,1.1c0.1,0,0.1,0,0.2,0c-0.9,0.3-2,0.7-3.2,1.3c0,0-8.7,5.1-12,13.5C0.2,34.5,0.1,34.6,0.1,34.8z"/>
			</g>
		</g>
	</g>
	<path fill="#F9A56F" stroke="#FFFFFF" stroke-width="0.1033" stroke-opacity="0" d="M4.8,16.5c1.8,0.2,4.8,1.3,5.9,1.7
		c-0.9,0.4-1.9,0.9-3,1.7c0,0-3.8,2.6-6.7,7.3l0,0C1.4,23.4,2.1,19,2.5,18C3.3,16.2,4.8,16.5,4.8,16.5z"/>
	<path fill="#F7975B" d="M21.1,20c-1.9-0.1-3.8-0.2-5.8-0.6c-1.4-0.2-2.8-0.6-4.1-1.1c0,0-4.1-1.6-6.4-1.9c0,0,4.9-13.8,22.4-14.9
		c7.9-0.5,14.4,1.5,19.2,3.9h-2.4c0,0,1.8,1.4,3.1,3c0,0,1.1,0.9,2.8,1.4c1.7,0.6,7.3,2.9,10.7,7.3c0,0-2.7,1.1-5.8,1.4
		c-0.8-1.6-1.5-2.5-1.5-2.5c-4.9,1.2-14.8,2.6-27.3-0.5c0,0,3.4,1.7,9.5,2.8C35.5,18.6,29.2,20.3,21.1,20L21.1,20z"/>
	<path fill="#F47D32" stroke="#FFFFFF" stroke-width="0.1033" stroke-opacity="0" d="M21.1,20L21.1,20c-1.9-0.1-3.8-0.2-5.8-0.6
		c-1.4-0.2-2.8-0.6-4.1-1.1c0,0-4.1-1.6-6.4-1.9c3.4-3.2,9.4-2.1,16.2,0c6.8,2.1,14.5,2.1,14.5,2.1S29.2,20.3,21.1,20z"/>
	<g>
		<g>
			<path fill="#F7975B" d="M24.3,7.3C19.1,7,15,7.7,11.9,8.9c-1.1,0.4-2.2,0.9-3.2,1.5l0,0C12.9,7.3,19.1,4.6,27.8,5
				C44,5.7,51.3,13.7,52.9,15.8c-0.7,0-1.5,0.1-2.3,0.1C48.7,14.2,40.6,8.3,24.3,7.3z"/>
		</g>
		<g opacity="0">
			<path fill="none" stroke="#FFFFFF" stroke-width="0.1033" d="M24.3,7.3C19.1,7,15,7.7,11.9,8.9c-1.1,0.4-2.2,0.9-3.2,1.5l0,0
				C12.9,7.3,19.1,4.6,27.8,5C44,5.7,51.3,13.7,52.9,15.8c-0.7,0-1.5,0.1-2.3,0.1C48.7,14.2,40.6,8.3,24.3,7.3z"/>
		</g>
	</g>
	<path fill="#8C4D4A" d="M53.6,33.3c0,0-0.9-0.9-3.1-0.9c-1,0-2.1,0.4-3,0.9v-0.5c0,0,2.1-1.5,4.7-0.9c0.8,0.2,1.4,0.6,1.8,1.2
		L53.6,33.3z"/>
	<path fill="#8C4D4A" d="M38.3,34.7c0,0-0.7-0.9-3.1-0.9c-1,0-2.1,0.3-3.1,0.7c0,0-1,0.4-1.7,0.5v-0.5c0.8-0.1,1.7-0.5,1.7-0.5
		c1.2-0.6,2.1-0.9,3.1-0.9c1.7,0,2.5,0.6,2.9,0.9l0.6,0.5L38.3,34.7z"/>
	<path d="M48.2,54.5c0,0,1.7-3.2-0.3-3.2c-2,0-7,2.4-7,4.5c-0.1,2.1,3.4,3.1,4.6,2.7C46.7,58.1,49.4,57.9,48.2,54.5z"/>
	<path fill="#E6E7E8" d="M47.3,51.9v0.7c0,0,0,0.2-0.2,0.2c0,0-3.1,0.3-3.5,0.6l-0.2-0.2C43.3,53.1,45.6,51.3,47.3,51.9z"/>
	<path fill="#FFFFFF" d="M41.5,55.4c0.8-0.3,2.3-0.3,3.5-0.4c1.2,0,2.3-0.3,2.3-0.3c0.2,0.3,0.3,0.9,0.3,0.9s0,0,0,0l0.4,1
		c-0.3,0.2-0.7,0.3-1.2,0.5c-3.3,1.2-5.4-1.4-5.4-1.4L41.5,55.4z"/>
	<path fill="#ED1F24" d="M48.6,53.8c0,0,3,4.1-1.5,6.1c-4.6,2-7.1-3.6-6.8-4.6l0.9-0.1c0,0,1.5,1.7,3.3,2c0,0,1.3,0.2,2.4-0.6
		c0,0,0.7-0.4,0.7-1.1c0-0.7,0-1,0.4-1.5L48.6,53.8z"/>
	<path fill="#D71F26" d="M47.9,54c0.6-1,0.7-2-0.6-2.1c-2.6-0.1-6,3.3-6,3.3h0l-0.9,0.1c0.9-2.2,4-3.8,4.5-4.1
		c0.5-0.2,3.2-1.4,4.3-0.4c1,0.9-0.5,3-0.5,3L47.9,54z"/>
	<path fill="#F47D32" stroke="#FFFFFF" stroke-width="0.1033" stroke-opacity="0" d="M4.8,16.5c0,0,0.2-0.5,0.6-1.3
		c6.1-4.9,20.7,0.6,20.7,0.6s3.4,1.7,9.5,2.8c0,0-7.8,0-14.5-2.1C14.2,14.4,8.2,13.3,4.8,16.5z"/>
	<g opacity="0.5">
		<path fill="#C66159" d="M10.3,50.9c0,0,0.1,0,0.3,0.1c0.2,0.1,0.5,0.1,0.8,0.2c0.6,0.2,1.5,0.3,2.3,0.4c0.2,0,0.4,0.1,0.6,0.1
			c0.1,0,0.3,0,0.3,0c0.1,0,0.2,0,0.2,0c0.3,0,0.5-0.1,0.7-0.2c0.2-0.1,0.3-0.4,0.3-0.6c0-0.2,0.1-0.3,0.1-0.3l0.1,0
			c0,0,0,0.1,0.1,0.3c0,0.2,0.1,0.5-0.1,0.8c-0.1,0.3-0.5,0.6-1,0.7c-0.4,0.1-0.9,0-1.4-0.1c-0.9-0.1-1.8-0.4-2.4-0.8
			C10.6,51.3,10.2,51,10.3,50.9L10.3,50.9z"/>
	</g>
	<path fill="#F68A46" stroke="#FFFFFF" stroke-width="0.1033" stroke-opacity="0" d="M21.1,20L21.1,20C21.1,20,21.1,20,21.1,20
		L21.1,20l-4.9,22.1l-4.3-0.6l3.8-22C17.5,19.8,19.4,20,21.1,20z"/>
	<path fill="#F47D32" stroke="#FFFFFF" stroke-width="0.1033" stroke-opacity="0" d="M18.6,31.4c0,0-1.9,2.4-5.5,3.4
		c-1.6,0.5-4.3,2-6.6,4.5c0,0,0,0,0,0c1.1-2.6,2.7-4.9,4.7-5.9c2.7-1.3,5.6-2.8,7.8-4L18.6,31.4z"/>
	<path fill="#F47D32" stroke="#FFFFFF" stroke-width="0.1033" stroke-opacity="0" d="M2.2,49.9c-0.4-4.8,2.7-12,2.7-12
		s3.5-6.7,8.8-8.4c5.3-1.7,6.1-3.7,6.1-3.7L19,29.5c-2.2,1.2-5,2.6-7.8,4c-2,1-3.6,3.3-4.7,5.9c0,0,0,0,0,0
		c-0.1,0.2-0.3,0.3-0.4,0.5c0,0,0,0,0,0c-0.1,0.2-0.3,0.3-0.4,0.5c0,0,0,0,0,0c-0.1,0.2-0.3,0.3-0.4,0.5c0,0,0,0,0,0
		C5.1,41,5,41.2,4.9,41.4c0,0,0,0,0,0.1c-0.1,0.2-0.2,0.3-0.3,0.5c0,0,0,0.1-0.1,0.1c-0.1,0.2-0.2,0.3-0.3,0.5c0,0,0,0.1-0.1,0.1
		c-0.1,0.2-0.2,0.3-0.3,0.5c0,0,0,0.1-0.1,0.1c-0.1,0.2-0.2,0.3-0.2,0.5c0,0.1-0.1,0.1-0.1,0.2c-0.1,0.2-0.1,0.3-0.2,0.5
		c0,0.1-0.1,0.1-0.1,0.2c-0.1,0.2-0.1,0.3-0.2,0.5C3,45.1,3,45.2,3,45.3c0,0.2-0.1,0.3-0.1,0.5c0,0.1-0.1,0.2-0.1,0.3
		c0,0.1-0.1,0.3-0.1,0.5c0,0.1,0,0.2-0.1,0.3c0,0.1-0.1,0.3-0.1,0.5c0,0.1,0,0.2-0.1,0.3c0,0.2,0,0.3-0.1,0.5c0,0.1,0,0.2,0,0.3
		c0,0.2,0,0.4,0,0.5c0,0.1,0,0.2,0,0.3C2.2,49.3,2.2,49.6,2.2,49.9C2.2,49.9,2.2,49.9,2.2,49.9L2.2,49.9z"/>
	<path fill="#F47D32" stroke="#FFFFFF" stroke-width="0.1033" stroke-opacity="0" d="M13,34.8c3.6-1,5.5-3.4,5.5-3.4l-1,4.5
		c0,0-1.9,1.6-4.9,2.1l-1.4-2.4C12,35.2,12.5,35,13,34.8z"/>
	<path fill="#F68A46" stroke="#FFFFFF" stroke-width="0.1033" stroke-opacity="0" d="M0.1,39.5c0.1,1.9,0.3,4.1,0.8,6.3
		c0-0.2,0.1-0.5,0.1-0.7c0,0.2-0.1,0.5-0.1,0.7c0.3,1.4,0.8,2.8,1.3,4.2c-0.4-4.8,2.7-12,2.7-12s3.5-6.7,8.8-8.4
		c5.3-1.7,6.1-3.7,6.1-3.7l0.8-3.6c0,0-7.1,0.6-12.9,7.1c-1.1,1.3-2.3,2.7-3.4,4.1C4.3,33.6,4,34,3.6,34.9C4,34,4.3,33.6,4.3,33.5
		c1.1-1.4,2.2-2.9,3.4-4.1c5.8-6.5,12.9-7.1,12.9-7.1l0.5-2.2c-1.8-0.1-3.7-0.2-5.7-0.5c-0.9,0.3-2,0.7-3.2,1.3c0,0-8.7,5.1-12,13.5
		c-0.1,0.2-0.1,0.3-0.2,0.5C0,36,0,37.6,0.1,39.5z M1.3,42.8c0.4-2.1,0.8-3.9,1.3-5.3C2.1,38.9,1.7,40.7,1.3,42.8z M2.6,37.5
		c0.4-1.1,0.7-2,1-2.6C3.3,35.5,3,36.4,2.6,37.5z M1,44.9c0.1-0.7,0.2-1.4,0.3-2C1.2,43.6,1.1,44.2,1,44.9z"/>
	<path fill="#F69487" d="M15.9,50.7L12,35.4c0,0-3.1-0.6-5.6,0.1c-2.4,0.7-1.2,6.3-1.2,6.3S7,48,10.2,51c1.1,1,2.6,1.4,4.3,1.5
		C14.5,52.5,16.4,52.5,15.9,50.7z"/>
	<path fill="#D67B74" d="M8.1,37.8c1.1-0.3,4.5,0.2,4.6,0.2l2.8,10.9l0,0c-2-1.9-4.6-0.3-4.6-0.3c-1-1-3.1-4-3.7-7.2
		C6.5,38.2,8.1,37.8,8.1,37.8z"/>
	<path fill="#F69487" d="M12,35.4c0,0,0.7,0.1,1.1,0.2L12.7,38l-1.2-2.1L12,35.4z"/>
	<path fill="#F7975B" d="M54.8,18.8c0,0,9.6-0.9,16-8c0,0-11.5,3.2-23.3-2C47.5,8.8,53.5,14,54.8,18.8z"/>
	<path fill="#F7975B" d="M13.1,6.3c0,0,18-13.2,39.3-1.4c1.5,0.9,3,1.8,4.2,2.7c0,0-6.7,2.2-18.4-1C26.6,3.5,21.4,4.2,21.4,4.2
		L13.1,6.3z"/>
	<path fill="#F68A46" stroke="#FFFFFF" stroke-width="0.1033" stroke-opacity="0" d="M5.4,15.2c6.1-4.9,20.7,0.6,20.7,0.6
		c12.4,3,22.3,1.6,27.3,0.5c2.2-0.5,3.4-1,3.4-1s-3.8,0.8-9.1,0.4c1.1,0.1,2.1,0.1,3,0.1c-1.9-1.6-9.9-7.5-26.3-8.5
		C19.1,7,15,7.7,11.9,8.9c-1.1,0.4-2.2,0.9-3.2,1.5c-0.5,0.6-0.9,1.2-1.3,1.7C6.4,13.3,5.8,14.4,5.4,15.2z M12.8,8.6
		C12.8,8.6,12.8,8.6,12.8,8.6C12.8,8.6,12.8,8.6,12.8,8.6z M13.8,8.3C13.8,8.3,13.8,8.3,13.8,8.3C13.8,8.3,13.8,8.3,13.8,8.3z
		 M14.8,8.1C14.8,8.1,14.7,8.1,14.8,8.1C14.7,8.1,14.8,8.1,14.8,8.1z M15.8,7.9C15.7,7.9,15.7,7.9,15.8,7.9
		C15.7,7.9,15.7,7.9,15.8,7.9z M16.7,7.8C16.7,7.8,16.7,7.8,16.7,7.8C16.7,7.8,16.7,7.8,16.7,7.8z M18.6,7.7
		C18.6,7.7,18.5,7.7,18.6,7.7C18.5,7.7,18.6,7.7,18.6,7.7z M19.5,7.7C19.5,7.7,19.5,7.7,19.5,7.7C19.5,7.7,19.5,7.7,19.5,7.7z
		 M20.4,7.7C20.4,7.7,20.4,7.7,20.4,7.7C20.4,7.7,20.4,7.7,20.4,7.7z M21.3,7.8C21.3,7.8,21.3,7.8,21.3,7.8
		C21.3,7.8,21.3,7.8,21.3,7.8z M23,8C23,8,23,8,23,8C23,8,23,8,23,8z M23.9,8.1C23.9,8.1,23.8,8.1,23.9,8.1
		C23.8,8.1,23.9,8.1,23.9,8.1z M24.7,8.3C24.7,8.3,24.7,8.3,24.7,8.3C24.7,8.3,24.7,8.3,24.7,8.3z M25.5,8.5
		C25.5,8.5,25.5,8.5,25.5,8.5C25.5,8.5,25.5,8.5,25.5,8.5z M26.9,8.9C26.9,8.9,26.9,8.9,26.9,8.9C26.9,8.9,26.9,8.9,26.9,8.9z
		 M27.6,9.1C27.6,9.1,27.6,9.1,27.6,9.1C27.6,9.1,27.6,9.1,27.6,9.1z M28.3,9.3C28.3,9.3,28.3,9.3,28.3,9.3
		C28.3,9.3,28.3,9.3,28.3,9.3z M28.9,9.5C28.9,9.5,28.9,9.5,28.9,9.5C28.9,9.5,28.9,9.5,28.9,9.5z M30.5,10.1
		C30.5,10.1,30.5,10.1,30.5,10.1C30.5,10.1,30.5,10.1,30.5,10.1z M31,10.3C31,10.3,31,10.3,31,10.3C31,10.3,31,10.3,31,10.3z
		 M31.4,10.5C31.4,10.5,31.4,10.5,31.4,10.5C31.4,10.5,31.4,10.5,31.4,10.5z M31.8,10.7C31.8,10.7,31.8,10.7,31.8,10.7
		C31.8,10.7,31.8,10.7,31.8,10.7z M32.1,10.8C32.1,10.8,32.1,10.8,32.1,10.8C32.1,10.8,32.1,10.8,32.1,10.8z M32.3,11
		C32.3,11,32.3,11,32.3,11C32.3,11,32.3,11,32.3,11z M32.5,11.1C32.5,11.1,32.5,11.1,32.5,11.1C32.5,11.1,32.5,11.1,32.5,11.1z
		 M32.7,11.2C32.7,11.2,32.7,11.2,32.7,11.2C32.7,11.2,32.7,11.2,32.7,11.2z M32.8,11.2C32.8,11.2,32.8,11.2,32.8,11.2
		C32.8,11.2,32.8,11.2,32.8,11.2z M47.4,15.7c-0.1,0-0.3,0-0.5,0C47.1,15.7,47.2,15.7,47.4,15.7z M40.3,14.4c-0.1,0-0.2-0.1-0.3-0.1
		C40.1,14.4,40.2,14.4,40.3,14.4z M41.1,14.7c-0.1,0-0.2-0.1-0.3-0.1C40.9,14.6,41,14.6,41.1,14.7z M42,14.9c-0.1,0-0.2-0.1-0.4-0.1
		C41.7,14.8,41.8,14.8,42,14.9z M42.8,15.1c-0.1,0-0.2-0.1-0.4-0.1C42.5,15,42.7,15,42.8,15.1z M43.6,15.2c-0.1,0-0.2,0-0.4-0.1
		C43.3,15.2,43.4,15.2,43.6,15.2z M44.4,15.4c-0.1,0-0.3,0-0.4-0.1C44.1,15.3,44.2,15.3,44.4,15.4z M45.1,15.5c-0.1,0-0.3,0-0.4-0.1
		C44.9,15.4,45,15.5,45.1,15.5z M45.9,15.6c-0.1,0-0.3,0-0.4-0.1C45.6,15.5,45.8,15.6,45.9,15.6z M46.6,15.7c-0.1,0-0.3,0-0.4,0
		C46.4,15.6,46.5,15.7,46.6,15.7z"/>
	<path fill="#F68A46" stroke="#FFFFFF" stroke-width="0.1033" stroke-opacity="0" d="M56.7,15.3c0,0-25.1-16.6-48.4-4.5l17,0.9
		L47,16.8L56.7,15.3z"/>
</g>
</svg>
