<?xml version="1.0" encoding="utf-8"?>
<!-- Generator: Adobe Illustrator 18.0.0, SVG Export Plug-In . SVG Version: 6.00 Build 0)  -->
<!DOCTYPE svg PUBLIC "-//W3C//DTD SVG 1.1//EN" "http://www.w3.org/Graphics/SVG/1.1/DTD/svg11.dtd">
<svg version="1.1" id="Layer_1" xmlns="http://www.w3.org/2000/svg" xmlns:xlink="http://www.w3.org/1999/xlink" x="0px" y="0px"
	 viewBox="0 0 160 130" enable-background="new 0 0 160 130" xml:space="preserve">
<g>
	<path fill="#DC7970" d="M5.6,50.4c0,0-1.5-1-2.9-1.3c0,0-1.1-0.2-1.1-0.8c0.1-0.5,0.8-1.8,2.1-1.7l2.4,4L5.6,50.4z"/>
	<path fill="#231F20" d="M34.5,80.2c6.8-5.6,8-12.8,9.1-17.9c1.1-5.1,3.9-5.8,3.9-5.8c12.3-3.8,22.4-6.2,30.9-7.4
		c2.1-3.5,4-4.8,4-4.8l0.1,4.3c10.8-1.1,19.2-0.3,27.3,1.5l0.4-2.3l1.1,2.6c14.7,3.7,29.2,12.3,31.5,14c2.3,1.8,2.5,5.9,2.5,5.9
		c2,8.5,8.3,36.3,8.3,36.3l-19.9,6L133,130H49.9l-1-29.3L31.5,82.8C31.6,82.7,32.4,82,34.5,80.2z"/>
	
		<polyline fill="none" stroke="#FFFFFF" stroke-width="0.6884" stroke-linecap="round" stroke-linejoin="round" stroke-miterlimit="10" points="
		99.3,114.4 114.9,83.3 111.5,79.7 122,75.6 110.1,47.9 	"/>
	
		<path fill="none" stroke="#FFFFFF" stroke-width="0.6884" stroke-linecap="round" stroke-linejoin="round" stroke-miterlimit="10" d="
		M82.3,44.4c0,0-2.3,1.5-4.7,6l-9.5,16.9l12.1,8.4L72,81l12.4,33.4"/>
	<path fill="#FFFFFF" d="M95.8,130l13.7-76.1c0,0,0.3-2.6-0.7-3.1c-1.1-0.5-26.7-5.6-26.7-5.6l3,84.8H95.8z"/>
	<path fill="#D71F26" d="M97.7,65.9c0,0,4-4.5,4.3-5.7c0.3-1.1-3.8-2.7-3.8-2.7l-3.3-0.4l-4.7,1.8l0.7,2.1c0,0,2,3.1,3.4,4.5
		L97.7,65.9z"/>
	<polygon fill="#EC1E24" points="97.7,65.9 101.1,103.5 95.8,130 85.1,130 84.3,110.8 94.3,65.5 	"/>
	
		<line fill="none" stroke="#FFFFFF" stroke-width="0.6884" stroke-linecap="round" stroke-linejoin="round" stroke-miterlimit="10" x1="140" y1="71.6" x2="135.8" y2="106.3"/>
	
		<line fill="none" stroke="#FFFFFF" stroke-width="0.6884" stroke-linecap="round" stroke-linejoin="round" stroke-miterlimit="10" x1="47.8" y1="58.9" x2="58.2" y2="90.9"/>
	<path fill="#231F20" d="M56.1,95.9c0,0-11.1,16.2-26.3,17.2c0,0-13.4-3.6-14.1-37.2c0,0-4.1-6.4,2.1-14.6c0,0,13.1-4.8,14.3,0.7
		l7.5,27.3"/>
	<path fill="#59595C" d="M15.4,68.7c1.1-5.8,4.2-8.1,4.2-8.1c2.7-0.8,8-2.1,10.8-0.8c3.4,3.6-1.6,9-1.6,9
		c-4.5,5.4-11.6,7.4-11.6,7.4h0C15.9,74.2,14.8,71.6,15.4,68.7z"/>
	<path fill="#FFFFFF" d="M17.6,62.9c1-1.6,2-2.3,2-2.3c2.7-0.8,8-2.1,10.8-0.8c3.4,3.6-1.6,9-1.6,9c-3.2,4-7.9,6.1-10.3,6.9
		L17.6,62.9z"/>
	<path fill="#F58F6B" d="M1.4,40.7c0.5-0.3,1.1-0.3,1.7-0.1c0,0-0.8-1.9,0.5-2.6c1.3-0.7,2.3,0.1,3.7,2.1l5.6,6.2
		c0,0-2.4-5.1-3.4-6.5c0,0-2-2.2-0.6-3.4c1.4-1.2,3.2,1,3.9,2l5.2,8.1c0,0-1.7-4.6-2.5-6.4c-0.8-1.7-1.1-2.4-0.1-2.9
		c1-0.5,3,0.6,4.1,2.8c0.3,0.6,0.7,1.4,1.1,2.3c0,0,1,1.8,2,3.8c0,0,3.3,1.2,6,6.6c1.6,3.2,1.9,6.6,1.9,6.6v1.7v3.2c0,0,0,0,0,0
		s-0.7,1.4-2.4,2.6c0,0-2.9,2.2-3.3,4.5c0,0-0.5-2.3-2.7-3.7c-1-0.6-1.8-1.5-2.5-2.3c0,0-0.7-0.8-1.1-2.2c0,0-0.7-2.6-2.7-4.4
		c-2-1.8-2.9-2.5-2.9-2.5s-2.7-0.8-4.1-1.8c0,0-1.2-0.7-1.9-2.2l-5.2-8.5C1.7,43.8,0.1,41.6,1.4,40.7z"/>
	<path fill="#59595C" d="M30.4,64.4v-3.2C31.3,62.6,30.5,64.2,30.4,64.4z"/>
	<g>
		<path fill="#C66159" d="M12.9,46.4c0,0,0.2,0.2,0.4,0.5c0.1,0.2,0.2,0.3,0.3,0.6c0.1,0.2,0.2,0.4,0.3,0.7c0.1,0.2,0.2,0.5,0.2,0.7
			c0.1,0.2,0.1,0.5,0.1,0.6c0.1,0.4,0,0.7,0,0.7l0,0c0,0-0.4-0.9-0.8-1.9C13.2,47.4,12.9,46.4,12.9,46.4L12.9,46.4z"/>
	</g>
	<line fill="#F58F6B" x1="18.1" y1="46.6" x2="18.5" y2="47.7"/>
	<g>
		<path fill="#C66159" d="M9.5,50.9c0,0-1.6-2.5-3.3-5.1C4.6,43.2,3,40.7,3,40.7l0,0c0,0,0.1,0.1,0.4,0.4c0.2,0.3,0.5,0.6,0.9,1.1
			c0.3,0.5,0.8,1,1.1,1.6c0.4,0.6,0.8,1.2,1.2,1.8c0.4,0.6,0.8,1.3,1.1,1.9c0.4,0.6,0.7,1.2,0.9,1.7c0.3,0.5,0.5,0.9,0.6,1.2
			C9.5,50.7,9.6,50.8,9.5,50.9L9.5,50.9z"/>
	</g>
	<g>
		<path fill="#C66159" d="M22.1,53.1c-0.5,0.1-1,0.2-1.5,0.1c-0.5-0.1-1-0.3-1.4-0.1c-0.5,0.1-0.9,0.4-1.4,0.5
			c-0.5,0.2-1,0.2-1.5,0.1c-0.2,0-0.5-0.1-0.7-0.2c-0.2-0.1-0.5-0.1-0.6,0.1c-0.4,0.3-0.7,0.7-1.1,1c-0.4,0.3-1,0.3-1.5,0.2
			c-0.5-0.1-1-0.2-1.4,0l0,0c-0.7,0.4-1.5,0.2-2.1-0.3l0-0.1c0.3,0.1,0.7,0.2,1,0.2c0.2,0,0.3,0,0.5-0.1c0.1,0,0.1-0.1,0.2-0.1
			c0.1,0,0.1-0.1,0.1-0.1l0,0c0.3-0.2,0.6-0.2,0.9-0.3c0.3,0,0.6,0,0.8,0c0.4,0,0.8,0,1-0.2c0.1-0.1,0.3-0.2,0.4-0.4
			c0.2-0.2,0.3-0.4,0.6-0.6c0.1-0.1,0.4-0.2,0.6-0.3c0.3,0,0.5,0,0.6,0.1c0.3,0.1,0.4,0.1,0.6,0.2c0.4,0.1,0.8,0,1.2-0.1
			c0.2-0.1,0.4-0.1,0.7-0.2c0.2-0.1,0.5-0.2,0.8-0.2c0.3-0.1,0.6,0,0.9,0c0.3,0.1,0.5,0.2,0.7,0.3C21.1,53,21.6,53,22.1,53.1
			L22.1,53.1z"/>
	</g>
	
		<path fill="none" stroke="#FFFFFF" stroke-width="0.6884" stroke-linecap="round" stroke-linejoin="round" stroke-miterlimit="10" d="
		M17.1,76.2c0,0,0.5,0.8,1.9,1.4l2.7,12.9"/>
	<path fill="#231F20" d="M142.1,103.1c3.6-1.5,10.4-3.1,14.2,2.4c5.5,7.9,1.3,15.7,1.3,15.7s-3.6,8.5-16,8.4
		c-12.4-0.1-9.9-18.2-9.9-18.2L142.1,103.1z"/>
	
		<path fill="none" stroke="#FFFFFF" stroke-width="0.6884" stroke-linecap="round" stroke-linejoin="round" stroke-miterlimit="10" d="
		M131.7,111.5l10.4-8.4c3.6-1.5,10.7-3.1,14.6,2.4"/>
	<path fill="#59595C" d="M141.6,126.6L141.6,126.6c-0.8,0.6-1.4,0.7-1.4,0.7s-2.6,0.1-3.6-4.1l0.2-0.4L141.6,126.6z"/>
	<path fill="none" stroke="#EC1E24" stroke-width="6.963600e-02" stroke-miterlimit="10" d="M143.4,106c-0.1,0.5-0.3,1.1-0.6,1.7"/>
	<path fill="none" stroke="#EC1E24" stroke-width="6.963600e-02" stroke-miterlimit="10" d="M134.4,117.4l9-11.4c0,0,3.6,5-0.3,10.1
		"/>
	<path fill="none" stroke="#EC1E24" stroke-width="6.963600e-02" stroke-miterlimit="10" d="M141.3,109.5c0,0-0.3,1-1.8,1.5
		c0,0-0.6,2.2-3,2.8c0,0-0.4,1.7-2.5,2.6"/>
	<path fill="#FFFFFF" d="M109.5,53.9l-2.4,14l0,0l-9-10.4l11.1-6.2C109.7,52.3,109.5,53.9,109.5,53.9z"/>
	<g>
		<path fill="#ADC6D0" d="M107.1,68c0,0-2.3-2.6-4.5-5.2c-2.2-2.6-4.5-5.2-4.5-5.2l0.1,0c0,0,0.2,0.1,0.5,0.4c0.3,0.3,0.7,0.6,1.2,1
			c1,0.9,2.2,2.1,3.3,3.4c1.1,1.3,2.2,2.7,2.9,3.8c0.4,0.5,0.6,1,0.8,1.3C107.1,67.8,107.2,68,107.1,68L107.1,68z"/>
	</g>
	<polygon fill="#FFFFFF" points="82.1,45.2 94.8,57.1 82.9,68.9 	"/>
	<g>
		<path fill="#ADC6D0" d="M94.8,57.2c0,0-3,2.9-5.9,5.9c-3,2.9-6,5.8-6,5.8l-0.1-0.1c0,0,0.1-0.2,0.4-0.6c0.3-0.4,0.7-0.9,1.2-1.5
			c0.5-0.6,1.1-1.3,1.8-2c0.7-0.7,1.4-1.5,2.1-2.2c0.8-0.7,1.5-1.4,2.2-2.1c0.7-0.7,1.4-1.2,2-1.7c0.6-0.5,1.1-0.9,1.5-1.2
			C94.6,57.3,94.8,57.1,94.8,57.2L94.8,57.2z"/>
	</g>
	<polygon fill="#F58C4E" points="76.8,28.2 77,28.7 78.6,28.7 78.3,27 77.5,27 	"/>
	<path fill="#F58C4E" d="M76.8,28.3c-0.8-2.8-1-6.7-0.5-9.9c0.5-3.5,2.4-3.7,2.4-3.7h3l0.5,0.4l-0.7,22.6l-0.4,0.3l-3-9.7H76.8z"/>
	<path fill="#F8A97A" d="M76.3,18.3c0.5-3.5,2.4-3.7,2.4-3.7h3l0.5,0.4l-0.1,2.7c-0.4,0-1.7,0.1-2.9,1.6c-1,1.3-1.9,3.5-3.2,5.2
		C76,22.5,76,20.3,76.3,18.3z"/>
	<path fill="#F47E37" d="M81.6,37.6l-0.4,0.3l-3-9.7l0.1,0.5l0.9-0.5c1.6-2.9,2.8-3.1,2.8-3.1L81.6,37.6z"/>
	<path fill="#E1837D" d="M112.5,29.5c0,0,0.7-0.3,0.6,0.9c-0.1,1.2-0.6,6.1-0.6,6.1s-0.5,1.7-1.7,2l0.8-9.1L112.5,29.5z"/>
	<path fill="#F9B790" stroke="#FFFFFF" stroke-width="3.751200e-02" stroke-opacity="0" d="M111.9,31.8l-3.4-10.7l2.9-1.3
		c0,0,2.1,0.3,2,2.5C113.2,24.6,112.9,31.7,111.9,31.8z"/>
	<path fill="#F58F6B" d="M111.9,31.8L111,44.6c0,0,0.6,9.2-7.2,13.4c0,0-6.6,4.2-11.7,0.7c-4.2-2.8-7.2-6-9.1-10.1c0,0-2-4.3-2-7.1
		l0.7-26.9l28.5,5.6L111.9,31.8z"/>
	<path fill="#F59386" d="M79.2,28.3h-2.3c0,0-1.6-0.1-1.6,1.5c0.1,1.5,1,5.2,1,5.2s0.9,4.6,2.7,5.4c1,0.4,2,0.4,2.9,0.1l-0.4-2.8
		L79.2,28.3z"/>
	<path fill="#F58C4E" stroke="#FFFFFF" stroke-width="3.751200e-02" stroke-opacity="0" d="M113.9,19l7.4-1.4c0,0-8.8,5.3-16.9,4.9
		c-2.4-0.1-5.2-0.9-7.9-1.9c0,0-4.9-2-6.6-2.8c-1.6-0.8-7.2-2.6-12.1-2.8c0,0-0.9-0.3-0.9-1.7c0-0.7,0.9-1.4,1.7-1.9
		c0,0,1.8-1,2.7-2.6c0.9-1.5,5.8-6.1,16.1-5.2c10.3,1,15.9,7.8,15.9,7.8s1.9,1.6,5.2,1.2c0,0-4.5,2-9.3,0.6c0,0,5,2.8,14.9,0.2
		C124.2,13.7,121.4,17,113.9,19z"/>
	<path fill="#FBD4BC" stroke="#FFFFFF" stroke-width="3.751200e-02" stroke-opacity="0" d="M109,26.6c0,0-0.7-1.8-3.6-1.9
		c-1.3-0.1-2.4,0.6-3.3,1.3c0,0-0.7,0.7-0.7,1.1c0,0-0.2,0.2,0.6,0.3c0.8,0.1,2.8,0,2.8,0s2.1-1.3,2.5-1.1c0.1,0.1,0.2,0.1,0.3,0.2
		l0.9,0.3C108.6,26.9,109.2,27.1,109,26.6z"/>
	<path fill="#FBD4BC" stroke="#FFFFFF" stroke-width="3.751200e-02" stroke-opacity="0" d="M94.6,23.1c0,0-0.6,0.4-1.4,0.4
		c-0.8,0.1-1.7,0.3-2.3,0.7c-0.6,0.4-1.8,1.2-3.2,1.2c-0.3,0-0.5-0.1-0.7-0.2c0,0,0.2-0.6,1.3-1.2c1.1-0.6,1.3-0.9,1.7-1.3
		c0.4-0.3,1.6-1.3,2.7-1.3C93.8,21.4,94.6,22,94.6,23.1z"/>
	<path fill="#FFFFFF" d="M107.6,29.1c0,0-1.3,0.9-2.3,1c-1,0.1-2.2-0.1-2.9-0.4l0.4-0.2c0,0,1.2-1.8,2.9-1.3
		C107.4,28.7,107.6,29.1,107.6,29.1z"/>
	<path fill="#7DB7C6" d="M104,29.4c0-0.7,0.7-0.9,0.7-0.9s0.5-0.2,1.1,0.3c0.4,0.4,0.3,1,0.3,1.2c-0.3,0.1-0.5,0.2-0.8,0.2
		c-0.4,0.1-0.7,0.1-1.1,0C104.1,30,104,29.7,104,29.4z"/>
	<path fill="#FFFFFF" d="M95.5,30.3c0,0-0.9,0.9-2.7,0.9c-0.8,0-1.4-0.2-1.7-0.4c0,0-0.7-0.3-1.2-0.2l-0.4,0c0,0,1.6-1.6,3.4-1.4
		C94.7,29.4,95.5,30.3,95.5,30.3z"/>
	<path fill="#7DB7C6" d="M91.7,29.5c0.2-0.1,1-0.2,1-0.2s0.8,0.2,0.9,0.9c0.1,0.5-0.1,0.8-0.3,1c-0.2,0-0.3,0-0.5,0
		c-0.7,0-1.2-0.1-1.5-0.3c-0.1-0.2-0.1-0.4-0.1-0.6C91.2,29.8,91.7,29.5,91.7,29.5z"/>
	<g>
		<path fill="#DC7970" d="M95.8,31.6c-0.5,0.9-1.3,1.6-2.3,2c-1,0.3-2.1,0.1-3.1-0.1l0,0c-0.4,0-0.8-0.1-1.2-0.4
			c-0.3-0.2-0.6-0.6-0.7-1l0.1,0c0.1,0.2,0.2,0.3,0.3,0.5c0.1,0.1,0.3,0.2,0.4,0.3c0.2,0.1,0.3,0.1,0.5,0.1c0.2,0,0.4,0,0.5,0l0,0
			l0.1,0c0.5,0.1,1,0.2,1.5,0.2l0.7,0c0.1,0,0.2,0,0.3,0c0.1,0,0.2,0,0.3-0.1c0.1,0,0.2-0.1,0.3-0.1l0.3-0.1
			c0.2-0.1,0.4-0.2,0.6-0.3C95,32.2,95.4,31.9,95.8,31.6L95.8,31.6z"/>
	</g>
	<g>
		<path fill="#DC7970" d="M108.3,30.6c0,0,0,0.5-0.5,1c-0.2,0.3-0.6,0.5-0.9,0.7c-0.4,0.2-0.8,0.4-1.2,0.5c-0.5,0.1-0.9,0-1.3-0.1
			c-0.4-0.1-0.8-0.4-1-0.6c-0.4-0.5-0.7-0.9-0.7-0.9l0,0c0,0,0.1,0.1,0.3,0.2c0.1,0.1,0.2,0.1,0.3,0.2c0.1,0.1,0.2,0.2,0.3,0.3
			c0.2,0.2,0.5,0.3,0.9,0.4c0.2,0,0.4,0.1,0.6,0.1c0.1,0,0.2,0,0.3,0c0.1,0,0.1,0,0.2,0c0.3,0,0.7-0.2,1.1-0.4
			c0.2-0.1,0.4-0.2,0.5-0.3c0.2-0.1,0.3-0.2,0.4-0.3c0.2-0.2,0.4-0.4,0.5-0.5C108.2,30.7,108.2,30.6,108.3,30.6L108.3,30.6z"/>
	</g>
	<path fill="#DC7970" d="M107.6,47c0,0-0.4-1.8-0.6-3.4c-0.2-1.6-0.4-2-0.9-2.6c-0.5-0.6-2.2-2.4-2.5-3.7c0,0,1.4,1.4,2.4,2
		c0.9,0.6,1.3,1.8,1.3,3.1C107.4,43.6,107.5,45.8,107.6,47z"/>
	<path fill="#DC7970" d="M96.6,38.6c0,0-2.8,1.1-4.4,3c-1.1,1.2-1.8,3.5-2.3,4.9c0,0,0.4-3.8,1.5-5.2c1.2-1.4,2.5-2.4,5-2.9
		L96.6,38.6z"/>
	<path fill="#3D282E" d="M93.4,44.2c0.2-0.3,0.8-0.1,0.8-0.1s1.9,0.7,5.5,0.3c3.6-0.4,4.8-1.1,4.8-1.1c0.5-0.3,0.4,0.1,0.2,0.6
		c0,0-0.3,0.6-0.9,1.3c0,0,0,0,0,0c-0.3,0.3-0.7,0.8-1.2,1.4c-1.1,1.3-3.8,1.1-3.8,1.1c-2.8-0.1-4.8-2.1-5.2-2.4
		C93.2,44.9,93.2,44.5,93.4,44.2z"/>
	<path fill="#FFFFFF" d="M96.2,46.7c0,0,0.9,0.5,2.9,0.6c2,0,2.7-0.7,2.7-0.7c0.2-0.2,0.4-0.1,0.4-0.1c0.1,0.1,0.2,0.3,0.3,0.4
		c-1.2,1.1-3.6,0.9-3.6,0.9c-1.3,0-2.4-0.5-3.3-1C95.9,46.5,96.2,46.7,96.2,46.7z"/>
	<path fill="#DC7970" d="M101.5,52.1c0,0-0.5-2.1-2.2-2c-1.7,0.1-2.4,0.8-3.3,1.8C95.9,51.9,99.5,50.6,101.5,52.1z"/>
	<path fill="#C66159" d="M92.7,45.6c1.7,2.2,3.6,4.2,7.1,4.2c3.5,0,5.2-4.2,5.2-4.2s-1.3,4.4-5.2,4.6C96,50.5,94,47.6,94,47.6
		L92.7,45.6z"/>
	<g>
		<path fill="#DC7970" d="M106.1,51.4c0,0-0.2,0.2-0.4,0.5c-0.3,0.3-0.6,0.8-0.9,1.5c-0.7,1.3-2.2,2.8-4.1,3.4
			c-0.9,0.3-1.9,0.4-2.9,0.4c-0.9-0.1-1.8-0.4-2.4-0.7c-0.7-0.3-1.2-0.7-1.5-1c-0.3-0.3-0.5-0.4-0.5-0.4l0-0.1c0,0,0.2,0.1,0.6,0.3
			c0.4,0.2,0.9,0.5,1.6,0.7c0.7,0.3,1.5,0.4,2.3,0.5c0.2,0,0.4,0,0.6,0l0.2,0l0.1,0l0.3,0c0.4-0.1,0.9-0.2,1.3-0.3
			c0.8-0.3,1.6-0.7,2.3-1.3c0.7-0.5,1.3-1.1,1.6-1.7c0.2-0.3,0.4-0.6,0.6-0.8c0.2-0.2,0.4-0.4,0.5-0.6
			C105.8,51.5,106,51.3,106.1,51.4L106.1,51.4z"/>
	</g>
	<path fill="#C66159" d="M103.6,58.1C102.7,58.6,100,60,97,60c-2.7-0.2-4.6-3.3-4.6-3.3c0.9,0.7,2.1,1.4,3.9,2
		C99.5,60,102.5,58.7,103.6,58.1z"/>
	<path fill="#F47E37" stroke="#FFFFFF" stroke-width="3.751200e-02" stroke-opacity="0" d="M78.6,11.6c0,0,0.2-0.1,0.4-0.3
		c9.2-3.7,17.2,4.7,22.8,6.8s12.1,0.9,12.1,0.9l7.4-1.4c0,0-8.8,5.3-16.9,4.9c-2.4-0.1-5.2-0.9-7.9-1.9c0,0-4.9-2-6.6-2.8
		c-1.6-0.8-7.2-2.6-12.1-2.8c0,0-0.9-0.3-0.9-1.7C76.9,12.7,77.8,12,78.6,11.6z"/>
	<path fill="#F79B64" d="M82.7,8.1c0,0-1.3,0.9-1.9,1.6c0,0,0,0,0,0C81,9.5,81.2,9.3,81.4,9c0.9-1.5,5.8-6.1,16.1-5.2
		c10.3,1,15.9,7.8,15.9,7.8s1.8,1.6,5.2,1.2c0,0-4.5,2-9.3,0.6c0,0-3-1.5-5.9-4C100.7,7.1,90.8,2.8,82.7,8.1z"/>
	<path fill="#8B4D4A" d="M105.1,27.9c-1-0.1-1.8,0.4-2,0.9c-0.3,0.6-1.1,0.8-1.1,0.8l0.1,0.3l0.5-0.1c0.5-0.1,0.8-0.7,0.8-0.7
		c0.3-0.3,0.8-0.6,1.5-0.7c1.6-0.2,3,1,3,1l0.5-0.1C108.4,29.4,107.5,28.2,105.1,27.9z"/>
	<path fill="#8B4D4A" d="M96,30.7c0,0-1.7-1.2-3.3-1.3c-1.3-0.1-2.8,1.3-3.2,1.7L89,30.8c0,0,1.5-1.6,3.7-1.7
		c1.3-0.1,2.7,0.7,3.7,1.4L96,30.7z"/>
	<path fill="#F47E37" stroke="#FFFFFF" stroke-width="3.751200e-02" stroke-opacity="0" d="M121.3,17.6c0,0-6,4.9-15.8,4.9l-3.7-1.6
		l12.9-0.9L121.3,17.6z"/>
	<path fill="#EF6C62" d="M100.3,39.9c0,0,2.1-0.5,2.8-0.9c0,0,0.6-0.5,0.1-1.6c-0.1-0.2-0.2-0.4-0.3-0.5c0,0-1.6-5.2-2.9-8.1
		c-0.3-0.6-0.6-0.9-1-0.9c0,0-0.6,0.1-0.7,0.8c-0.1,0.8-0.7,5.6-1.6,8.6c-0.1,0.2-0.1,0.4-0.2,0.5c0,0-0.6,1.1,0.7,1.7
		C98.5,40,100.3,39.9,100.3,39.9z"/>
	<path fill="#FFFFFF" d="M133,121.4l0.7-0.4c0,0,0.8-0.3,0.7-0.9l-0.7-2.8l9.6-11.9c3.8,1.3,3,10.5,3,10.5
		c-1.2,6.9-3.3,9.5-4.7,10.6l0,0l-8.6-4C133,122.6,132.1,122.2,133,121.4z"/>
	<path fill="#75939A" d="M135.1,119.9c-0.3-1-0.6-2-0.7-2.4l8.5-1.3c-1.5,1.9-5,3.8-8.6,5.4C134.4,121.6,135.5,121.1,135.1,119.9z"
		/>
	<path fill="#D67B75" d="M133.7,105.5c0,0-0.7,3-0.8,4.6l3.3-0.4l-0.1-2.1L133.7,105.5z"/>
	<path fill="#F58F6B" d="M121.7,114.4c0,0,1-1.6,4.3-0.8c0,0-1.3-0.5-0.6-1.9c0.7-1.3,4.7-1.7,7-1.9c0,0,0.7-0.3,1.7-0.5l-2.4,0
		c0,0-1.3-0.1-0.8-1.3c0.4-0.8,1.1-1.5,2.6-2.1c0,0,1-4.4,4.5-6.3c0,0,2.9-5.4,7.4-4.3c0,0,1.2,0.4,0.7,1.7
		c-0.4,1.2-1.6,2.6-3.2,3.6c0,0,1.2,2.3,0.4,5.3c0.2,0.2,3.4,5.1-0.3,10c-0.2,0.3-0.5,0.6-0.8,0.9c0,0-0.6,0.6-5.5,1.2
		c-2.2,0.2-4,0.3-5.3,0.2c0,0-5.5,0.5-8.5-0.1c0,0-5.4-0.4-5.5-2.6C117.4,114.7,119.5,114.4,121.7,114.4z"/>
	<g>
		<path fill="#C66159" d="M137.5,109.5c0,0-0.3,0-0.7,0.1c-0.2,0-0.5,0-0.7,0c-0.3,0-0.6,0-0.8,0c-0.6,0-1.1-0.1-1.6-0.1
			c-0.4,0-0.7-0.1-0.7-0.1s0.3-0.1,0.7-0.2c0.2,0,0.5-0.1,0.7-0.1c0.3,0,0.6,0,0.8,0c0.3,0,0.6,0,0.8,0.1c0.3,0,0.5,0.1,0.7,0.1
			C137.2,109.4,137.5,109.5,137.5,109.5z"/>
	</g>
	<g>
		<path fill="#C66159" d="M142.1,103.1c-0.5,0.1-1.1,0.3-1.6,0.4c-0.5,0.1-1,0.3-1.5,0.4c-0.5,0.1-1,0.4-1.4,0.6
			c-0.1,0.1-0.2,0.1-0.3,0.2c-0.1,0.1-0.2,0.1-0.3,0.2c-0.2,0.1-0.4,0.3-0.5,0.5l-0.1,0.1l-0.1,0c-0.2,0-0.4,0-0.6,0
			c-0.2,0-0.4,0.1-0.6,0.1c-0.4,0.1-0.8,0.2-1.3,0.3l0,0c0.8-0.4,1.6-0.7,2.5-0.7l0,0c0.2-0.2,0.4-0.4,0.6-0.6
			c0.2-0.2,0.5-0.3,0.7-0.4c0.5-0.3,1-0.4,1.5-0.6C139.9,103.3,141,103.2,142.1,103.1L142.1,103.1z"/>
	</g>
	<g>
		<path fill="#C66159" d="M126,113.5c0,0,0.5,0,1.2,0c0.3,0,0.8,0,1.2,0c0.4,0,0.9,0,1.3,0c0.5,0,0.9,0.1,1.3,0.1
			c0.4,0,0.8,0.1,1.2,0.1c0.7,0.1,1.2,0.2,1.2,0.2l0,0c0,0-1.9,0.1-3.7,0c-0.9-0.1-1.9-0.1-2.5-0.2C126.4,113.7,126,113.6,126,113.5
			L126,113.5z"/>
	</g>
	<g>
		<path fill="#C66159" d="M121.7,114.4c0,0,0,0.2,0,0.5c0.1,0.3,0.3,0.6,0.7,0.9c0.2,0.1,0.4,0.3,0.7,0.3c0.3,0.1,0.6,0.2,0.9,0.2
			c0.3,0.1,0.7,0.1,1,0.1c0.3,0,0.7,0.1,1,0.1c0.7,0.1,1.4,0.1,2,0.2c0.7,0,1.3,0.1,1.8,0.1c1,0.1,1.8,0.2,1.8,0.2l0,0
			c0,0-2.8,0.2-5.6-0.1c-0.7-0.1-1.4-0.2-2-0.3c-0.3-0.1-0.6-0.2-0.9-0.3c-0.3-0.1-0.5-0.3-0.7-0.4c-0.4-0.4-0.6-0.8-0.6-1.1
			C121.6,114.6,121.6,114.4,121.7,114.4L121.7,114.4z"/>
	</g>
	
		<line fill="none" stroke="#FFFFFF" stroke-width="0.6884" stroke-linecap="round" stroke-linejoin="round" stroke-miterlimit="10" x1="39.7" y1="89.2" x2="32.4" y2="59.8"/>
	
		<path fill="none" stroke="#FFFFFF" stroke-width="0.6884" stroke-linecap="round" stroke-linejoin="round" stroke-miterlimit="10" d="
		M56.1,95.9c0,0-3.1,4.9-8,9.1"/>
</g>
</svg>
