<?xml version="1.0" encoding="utf-8"?>
<!-- Generator: Adobe Illustrator 18.0.0, SVG Export Plug-In . SVG Version: 6.00 Build 0)  -->
<!DOCTYPE svg PUBLIC "-//W3C//DTD SVG 1.1//EN" "http://www.w3.org/Graphics/SVG/1.1/DTD/svg11.dtd">
<svg version="1.1" id="Layer_1" xmlns="http://www.w3.org/2000/svg" xmlns:xlink="http://www.w3.org/1999/xlink" x="0px" y="0px"
	 viewBox="0 0 70.1 80.6" enable-background="new 0 0 70.1 80.6" xml:space="preserve">
<g>
	<path fill="#F47D32" stroke="#FFFFFF" stroke-width="0.1033" stroke-opacity="0" d="M7.4,44.3c0,0-1-3.3-1-3.6c0,0-0.1-0.1-0.2-0.2
		c2.4-2.8,5.4-4.6,7.1-5.1c3.7-1,5.6-3.4,5.6-3.4l-2.4,10.9l-5.2-0.8l0.3,3.4L9.3,58.2l-2.6-1.2c-0.9-0.6-1.7-1.4-2.3-2.2
		c0.2-5.2,2.1-8.8,2.1-8.8L7.4,44.3z"/>
	<g>
		<g>
			<path fill="#F47D32" d="M2.3,50.7c0-4.3,1.7-7.7,3.9-10.3c0.1,0.1,0.2,0.2,0.2,0.2c0.1,0.3,1,3.6,1,3.6l-0.8,1.7
				c0,0-1.9,3.6-2.1,8.8c-0.7-1-1.2-1.8-1.2-1.8C2.9,52.2,2.6,51.5,2.3,50.7z"/>
		</g>
		<g>
			<path fill="#F47D32" d="M2.3,50.7c0-4.3,1.7-7.7,3.9-10.3c0.1,0.1,0.2,0.2,0.2,0.2c0.1,0.3,1,3.6,1,3.6l-0.8,1.7
				c0,0-1.9,3.6-2.1,8.8c-0.7-1-1.2-1.8-1.2-1.8C2.9,52.2,2.6,51.5,2.3,50.7z"/>
		</g>
		<g opacity="0">
			<path fill="none" stroke="#FFFFFF" stroke-width="0.1033" d="M2.3,50.7c0-4.3,1.7-7.7,3.9-10.3c0.1,0.1,0.2,0.2,0.2,0.2
				c0.1,0.3,1,3.6,1,3.6l-0.8,1.7c0,0-1.9,3.6-2.1,8.8c-0.7-1-1.2-1.8-1.2-1.8C2.9,52.2,2.6,51.5,2.3,50.7z"/>
		</g>
	</g>
	<path fill="#FAB383" stroke="#FFFFFF" stroke-width="0.1033" stroke-opacity="0" d="M49.4,16.5h4.8c0,0,6.3,7,0.9,19.2
		c-0.4,1-0.8,1.8-1.2,2.5C52.8,33.3,49.8,18.6,49.4,16.5z"/>
	<polygon fill="none" stroke="#ED1F24" stroke-width="8.604900e-02" stroke-miterlimit="10" points="7.6,59.3 9.5,63.4 9.5,63.4 	
		"/>
	<path fill="#F6906B" d="M9,60.2l25.1,17h5.3c0,0,6.1-3.5,9.7-7.5c0,0,0-0.1,0.1-0.2c4.3-2.3,5.1-6.8,5.1-6.8L56,45.6
		c0,0,0.9-5-0.5-8.6c0,0-1-1.8-0.6-4.6l0.7-3c0,0,1.2-2.3-2.4-8.5c-0.8-1.3-2.1-3.3-3.7-5.5l-32.3-2l-1,4.5L9,60.2z"/>
	<g>
		<path fill="#C66159" d="M34.1,65.9c0.5,1.1,2,2.3,2,2.3c2.2,1.6,4.8,2.7,7.7,2.6c2.2-0.1,4-0.6,5.4-1.3c-0.1,0.1-0.1,0.2-0.1,0.2
			c-0.3,0.3-0.6,0.6-0.9,1c-0.4,0.1-0.8,0.3-1.2,0.4l-1.5,0.3L44,71.5l-0.2,0l0,0l0,0l0,0l0,0l-0.1,0l-0.4,0c-0.2,0-0.5,0-0.7,0
			c-0.5-0.1-1-0.1-1.5-0.3c-0.5-0.1-1-0.3-1.4-0.4c-0.2-0.1-0.5-0.2-0.7-0.3c-0.2-0.1-0.4-0.2-0.7-0.3l-0.6-0.4
			c-0.2-0.1-0.4-0.3-0.6-0.4c-0.4-0.3-0.8-0.6-1.2-0.9l0,0c-0.2-0.2-0.4-0.4-0.5-0.6c-0.2-0.2-0.3-0.4-0.5-0.6
			c-0.1-0.1-0.2-0.2-0.2-0.3c-0.1-0.1-0.1-0.2-0.2-0.3c-0.1-0.1-0.1-0.2-0.2-0.4L34.1,65.9L34.1,65.9z"/>
		<polygon fill="#C66159" points="34.1,65.9 34.1,65.9 34.1,65.9 		"/>
	</g>
	<path fill="none" d="M0.3,33.1c0,0,1.5-12.9,2.3-14.8c0.8-1.9,2.3-1.5,2.3-1.5c2.3,0.3,6.5,1.9,6.5,1.9c1.3,0.5,2.7,0.9,4.1,1.1
		c2,0.3,4,0.5,6,0.6l-5,22.5l-5.2-0.8l0.3,3.4L9.3,58.2l-2.6-1.2c-2-1.3-3.4-4-3.4-4C-1.4,44.8,0.3,33.1,0.3,33.1z"/>
	<path fill="none" stroke="#ED1F24" stroke-width="8.604900e-02" stroke-miterlimit="10" d="M57.6,15.5c0,0-1.2,0.5-3.4,1"/>
	<path fill="#F05223" d="M42.8,47.1h4.9c0,0,0.4-0.1,0.7-0.3c0.3-0.2,1.7-1.3,1.7-1.3s1.5-0.8-0.3-4.9l-3-7.9c0,0-0.7-1.5-2.1-1.3
		c-1.5,0.3-1.3,2.2-1.3,2.2l0.3,5.9c0,0,0.1,2.3-0.3,2.8c0,0-0.5,0.5-0.8,0.7c-0.3,0.2-1.7,1.2-1.4,2.7
		C41.5,47.1,42.8,47.1,42.8,47.1z"/>
	<path fill="#FDD0AF" stroke="#FFFFFF" stroke-width="0.1033" stroke-opacity="0" d="M38,30.9c0,0-5.2-1.6-9.2,0.6
		c0,0,5.7-5.5,7.8-2.5c0,0,1.2-1.2,1.8-0.8c0.6,0.4,0.1,0.8,0.1,0.8s1.5-1,2-0.2c0.2,0.3,0,0.6-0.3,0.8L38,30.9z"/>
	<path fill="#FDD0AF" stroke="#FFFFFF" stroke-width="0.1033" stroke-opacity="0" d="M55.6,29.5c0,0,1-2.1,0-3.1
		c-0.2-0.2-0.5-0.1-0.9,0.3c0,0,0.1-1.8-2.1-0.9c-0.7,0.3-1.3,0.9-1.9,1.6c0,0,0.3-1.5-1-0.5c-1.3,1-2.6,3.5-3,5
		C46.8,31.9,51.9,26.2,55.6,29.5z"/>
	<g opacity="0.5">
		<path fill="#C66159" d="M51.9,37.4c0,0-0.3,0-0.6-0.2c-0.4-0.1-0.8-0.3-1.3-0.6c-0.4-0.3-0.8-0.7-1-1c-0.1-0.2-0.2-0.3-0.2-0.4
			C48.7,35,48.7,35,48.7,35l0,0c0,0,0.1,0,0.2,0.1c0.1,0.1,0.2,0.2,0.4,0.3c0.1,0.1,0.3,0.2,0.5,0.4c0.2,0.1,0.4,0.3,0.6,0.4
			c0.2,0.2,0.4,0.3,0.6,0.4c0.2,0.1,0.4,0.3,0.5,0.4C51.7,37.1,51.9,37.3,51.9,37.4L51.9,37.4z"/>
	</g>
	<g opacity="0.5">
		<path fill="#C66159" d="M39,36.5c0,0,0,0.1,0,0.4c0,0.3-0.1,0.6-0.2,1c-0.1,0.2-0.2,0.4-0.4,0.6c-0.2,0.2-0.3,0.4-0.6,0.6
			c-0.2,0.2-0.5,0.3-0.7,0.4c-0.3,0.1-0.5,0.2-0.8,0.3c-0.6,0.2-1.2,0.2-1.7,0c-0.5-0.1-1-0.4-1.3-0.6c-0.4-0.2-0.6-0.5-0.8-0.7
			c-0.2-0.2-0.3-0.3-0.3-0.3l0,0c0,0,0.1,0.1,0.3,0.2c0.2,0.1,0.5,0.3,0.9,0.5c0.4,0.2,0.8,0.4,1.3,0.5c0.2,0,0.5,0.1,0.7,0.1
			c0.1,0,0.2,0,0.4,0c0.1,0,0.3-0.1,0.4-0.1c0.3,0,0.5-0.1,0.8-0.2c0.2-0.1,0.5-0.2,0.7-0.3c0.2-0.1,0.4-0.3,0.5-0.4
			c0.2-0.2,0.3-0.3,0.4-0.5c0.2-0.3,0.3-0.7,0.4-0.9C38.9,36.6,38.9,36.5,39,36.5L39,36.5z"/>
	</g>
	<path fill="#FFFFFF" d="M53.8,33.2c0,0-0.4,1.8-2.2,1.7c-1.8-0.1-2.5-0.8-2.8-1.4c0,0,1.2-1.2,3.1-1C53.6,32.8,53.8,33.2,53.8,33.2
		z"/>
	<path fill="#7CB8C7" d="M52.9,32.9c0,0-0.3,1.5-1.4,1.4c-1.1,0-1.5-1.3-1.5-1.3S50.7,32.2,52.9,32.9z"/>
	<g opacity="0.5">
		<path fill="#C66159" d="M54.9,32c0,0-0.1,1-0.3,2c-0.1,0.5-0.3,1-0.5,1.3c-0.2,0.3-0.3,0.6-0.3,0.6l0,0c0,0,0-0.1,0-0.2
			c0-0.1,0-0.3,0.1-0.5c0-0.2,0-0.4,0.1-0.6c0.1-0.2,0.1-0.5,0.1-0.7c0.1-0.2,0.2-0.5,0.2-0.7c0.1-0.2,0.2-0.4,0.2-0.6
			c0.1-0.2,0.2-0.3,0.2-0.4C54.8,32,54.9,32,54.9,32L54.9,32z"/>
	</g>
	<path fill="#FFFFFF" d="M38.4,34.7c0,0-1.3,1.6-3.4,1.6c-1.7,0.1-2.9-1-3.3-1.3c0,0,2.1-1.2,4.6-1C38.8,34.3,38.4,34.7,38.4,34.7z"
		/>
	<path fill="#7CB8C7" d="M36.9,34.3c0,0-0.1,1.3-1.5,1.5c-1.4,0.2-2.1-1.3-2.1-1.3S35.6,33.9,36.9,34.3z"/>
	<g opacity="0.5">
		<path fill="#C66159" d="M50.1,47.3c0,0,0.8,0.8,1.4,1.8c0.3,0.5,0.5,1,0.6,1.4c0,0.2,0.1,0.4,0.1,0.5c0,0.1,0,0.2,0,0.2l-0.1,0
			c0,0,0-0.1-0.1-0.2c0-0.1-0.2-0.3-0.2-0.4c-0.1-0.2-0.2-0.4-0.3-0.6c-0.1-0.2-0.2-0.4-0.4-0.7c-0.1-0.2-0.2-0.5-0.4-0.7
			c-0.1-0.2-0.2-0.4-0.3-0.6c-0.1-0.2-0.2-0.4-0.2-0.5C50,47.4,50,47.3,50.1,47.3L50.1,47.3z"/>
	</g>
	<g opacity="0.5">
		<path fill="#C66159" d="M40.2,48.1c0,0-0.1,0.2-0.3,0.5c-0.2,0.3-0.5,0.8-0.8,1.3c-0.3,0.6-0.6,1.2-0.8,1.9
			c-0.1,0.4-0.1,0.7-0.2,1.1c0,0.4-0.1,0.8-0.1,1.2c-0.1,1.7-0.2,3.4-0.2,4.7c0,0.3,0,0.6,0,0.9c0,0.2,0.1,0.4,0.1,0.6
			c0.1,0.4,0.2,0.6,0.2,0.6l-0.1,0c0,0-0.1-0.2-0.3-0.5c-0.1-0.2-0.2-0.4-0.3-0.6c-0.1-0.3-0.1-0.6-0.2-0.9c-0.2-1.3-0.2-3-0.1-4.8
			c0.1-0.9,0.1-1.7,0.4-2.5c0.3-0.8,0.7-1.4,1.1-2C39.5,48.6,40.1,48,40.2,48.1L40.2,48.1z"/>
	</g>
	<g opacity="0.5">
		<path fill="#C66159" d="M45.1,72c0,0-2.1,0.9-4.4,1.2c-1.1,0.1-2.3-0.1-3.1-0.3c-0.8-0.3-1.3-0.5-1.3-0.5l0,0c0,0,0.6,0.1,1.4,0.2
			c0.2,0,0.4,0.1,0.7,0.1c0.2,0,0.5,0,0.7,0.1c0.5,0,1,0,1.6-0.1c0.5,0,1.1-0.1,1.6-0.2c0.5-0.1,1-0.2,1.4-0.2
			c0.4-0.1,0.8-0.1,1-0.2C45,72,45.1,72,45.1,72L45.1,72z"/>
	</g>
	<g opacity="0.5">
		<path fill="#C66159" d="M33.9,74.4c0,0-0.8-0.3-1.9-1c-1.1-0.7-2.4-1.9-3.3-3.3c-0.2-0.4-0.4-0.7-0.6-1.1
			c-0.2-0.4-0.3-0.8-0.5-1.1c-0.2-0.4-0.2-0.8-0.3-1.1c-0.1-0.4-0.1-0.7-0.2-1c0-0.3-0.1-0.6-0.1-0.9c0-0.3,0-0.5,0-0.7
			c0-0.4,0-0.6,0-0.6l0.1,0c0,0,0,0.2,0.1,0.6c0,0.2,0,0.4,0.1,0.7c0,0.3,0.1,0.5,0.2,0.8c0.1,0.3,0.1,0.6,0.2,1
			c0.1,0.3,0.2,0.7,0.4,1c0.2,0.4,0.3,0.7,0.5,1.1c0.2,0.4,0.4,0.7,0.6,1c0.2,0.4,0.4,0.7,0.7,1c0.2,0.3,0.5,0.6,0.8,0.9
			c0.3,0.3,0.5,0.5,0.8,0.8c0.3,0.2,0.5,0.5,0.8,0.7c0.5,0.4,0.9,0.7,1.2,0.9C33.7,74.3,33.9,74.4,33.9,74.4L33.9,74.4z"/>
	</g>
	<g opacity="0.5">
		<path fill="#C66159" d="M27.1,66.5c0,0-0.3-0.2-0.7-0.6c-0.4-0.4-0.9-0.9-1.4-1.5c-0.5-0.6-0.9-1.2-1.1-1.8
			c-0.1-0.3-0.2-0.5-0.3-0.6c-0.1-0.2-0.1-0.2-0.1-0.2s0,0.1,0.1,0.2c0.1,0.2,0.2,0.4,0.3,0.6c0.3,0.5,0.7,1.1,1.2,1.6
			c0.5,0.5,1.1,1,1.5,1.4c0.4,0.3,0.7,0.5,0.7,0.5L27.1,66.5z"/>
	</g>
	<g>
		<path fill="#C66159" d="M15,53.2c0,0,0.1,0.2,0.1,0.5c0.1,0.3,0.2,0.8,0.2,1.4c0,0.3,0.1,0.6,0.1,0.9l0,0.3l0,0.2
			c0,0.2,0.1,0.3,0.1,0.5c0.2,0.7,0.3,1.4,0.6,2.1c0.1,0.4,0.2,0.7,0.4,1c0.1,0.3,0.3,0.7,0.4,1c0.3,0.6,0.6,1.2,0.8,1.8
			c0.3,0.5,0.5,1,0.7,1.2c0.2,0.3,0.2,0.5,0.2,0.5l-0.1,0.1c0,0-0.1-0.1-0.3-0.4c-0.2-0.3-0.5-0.6-0.9-1.1c-0.3-0.5-0.7-1.1-1-1.7
			c-0.3-0.6-0.6-1.4-0.9-2.1c-0.2-0.7-0.4-1.5-0.5-2.2c-0.1-0.7-0.1-1.4-0.1-2C14.9,54,14.9,53.2,15,53.2L15,53.2z"/>
	</g>
	<g>
		<g>
			<g>
				<path fill="#F47D32" d="M0.1,35.4C0.1,35.4,0.1,35.4,0.1,35.4L0.1,35.4c0.1-1.4,0.2-2.3,0.2-2.3s0.3-2.5,0.7-5.5
					c3-4.7,6.8-7.4,6.8-7.4c1.2-0.8,2.2-1.3,3.1-1.7c0.3,0.1,0.5,0.2,0.5,0.2c1.3,0.5,2.7,0.9,4.1,1.1c0.1,0,0.1,0,0.2,0
					c-1,0.3-2,0.7-3.2,1.3c0,0-8.9,5.2-12.2,13.7C0.2,35,0.1,35.2,0.1,35.4z"/>
				<path fill="#F47D32" d="M0.1,35.4C0.1,35.4,0.1,35.4,0.1,35.4L0.1,35.4c0.1-1.4,0.2-2.3,0.2-2.3s0.3-2.5,0.7-5.5
					c3-4.7,6.8-7.4,6.8-7.4c1.2-0.8,2.2-1.3,3.1-1.7c0.3,0.1,0.5,0.2,0.5,0.2c1.3,0.5,2.7,0.9,4.1,1.1c0.1,0,0.1,0,0.2,0
					c-1,0.3-2,0.7-3.2,1.3c0,0-8.9,5.2-12.2,13.7C0.2,35,0.1,35.2,0.1,35.4z"/>
			</g>
		</g>
		<g>
			<g>
				<path fill="#F9A56F" d="M0.1,35.4C0.1,35.4,0.1,35.4,0.1,35.4L0.1,35.4c0.1-1.4,0.2-2.3,0.2-2.3s0.3-2.5,0.7-5.5
					c3-4.7,6.8-7.4,6.8-7.4c1.2-0.8,2.2-1.3,3.1-1.7c0.3,0.1,0.5,0.2,0.5,0.2c1.3,0.5,2.7,0.9,4.1,1.1c0.1,0,0.1,0,0.2,0
					c-1,0.3-2,0.7-3.2,1.3c0,0-8.9,5.2-12.2,13.7C0.2,35,0.1,35.2,0.1,35.4z"/>
				<path opacity="0" fill="none" stroke="#FFFFFF" stroke-width="0.1033" d="M0.1,35.4C0.1,35.4,0.1,35.4,0.1,35.4L0.1,35.4
					c0.1-1.4,0.2-2.3,0.2-2.3s0.3-2.5,0.7-5.5c3-4.7,6.8-7.4,6.8-7.4c1.2-0.8,2.2-1.3,3.1-1.7c0.3,0.1,0.5,0.2,0.5,0.2
					c1.3,0.5,2.7,0.9,4.1,1.1c0.1,0,0.1,0,0.2,0c-1,0.3-2,0.7-3.2,1.3c0,0-8.9,5.2-12.2,13.7C0.2,35,0.1,35.2,0.1,35.4z"/>
			</g>
		</g>
		<g opacity="0">
			<g>
				<path fill="none" stroke="#FFFFFF" stroke-width="0.1033" d="M0.1,35.4C0.1,35.4,0.1,35.4,0.1,35.4L0.1,35.4
					c0.1-1.4,0.2-2.3,0.2-2.3s0.3-2.5,0.7-5.5c3-4.7,6.8-7.4,6.8-7.4c1.2-0.8,2.2-1.3,3.1-1.7c0.3,0.1,0.5,0.2,0.5,0.2
					c1.3,0.5,2.7,0.9,4.1,1.1c0.1,0,0.1,0,0.2,0c-1,0.3-2,0.7-3.2,1.3c0,0-8.9,5.2-12.2,13.7C0.2,35,0.1,35.2,0.1,35.4z"/>
				<path fill="none" stroke="#FFFFFF" stroke-width="0.1033" d="M0.1,35.4C0.1,35.4,0.1,35.4,0.1,35.4L0.1,35.4
					c0.1-1.4,0.2-2.3,0.2-2.3s0.3-2.5,0.7-5.5c3-4.7,6.8-7.4,6.8-7.4c1.2-0.8,2.2-1.3,3.1-1.7c0.3,0.1,0.5,0.2,0.5,0.2
					c1.3,0.5,2.7,0.9,4.1,1.1c0.1,0,0.1,0,0.2,0c-1,0.3-2,0.7-3.2,1.3c0,0-8.9,5.2-12.2,13.7C0.2,35,0.1,35.2,0.1,35.4z"/>
			</g>
		</g>
	</g>
	<path fill="#FAA33A" stroke="#FFFBC8" stroke-width="0.1033" stroke-opacity="0" d="M4.9,16.8c1.8,0.2,4.8,1.3,6,1.7
		C10,18.9,9,19.4,7.8,20.2c0,0-3.9,2.7-6.8,7.4l0,0c0.5-3.8,1.1-8.3,1.6-9.3C3.4,16.4,4.9,16.8,4.9,16.8z"/>
	<path fill="#F7975B" d="M21.4,20.4c-1.9-0.1-3.9-0.2-5.9-0.6c-1.5-0.2-2.8-0.6-4.1-1.1c0,0-4.2-1.6-6.5-1.9c0,0,5-14,22.8-15.1
		c8-0.5,14.7,1.6,19.5,4h-2.4c0,0,1.8,1.4,3.1,3.1c0,0,1.2,0.9,2.9,1.5c1.7,0.6,7.4,2.9,10.8,7.5c0,0-2.7,1.1-5.9,1.4
		c-0.8-1.7-1.6-2.6-1.6-2.6c-5,1.2-15.1,2.6-27.7-0.5c0,0,3.4,1.8,9.6,2.8C36.1,18.9,29.7,20.6,21.4,20.4L21.4,20.4z"/>
	<path fill="#F47D20" stroke="#FFFBC8" stroke-width="0.1033" stroke-opacity="0" d="M21.4,20.4L21.4,20.4c-1.9-0.1-3.9-0.2-5.9-0.6
		c-1.5-0.2-2.8-0.6-4.1-1.1c0,0-4.2-1.6-6.5-1.9c3.4-3.3,9.6-2.1,16.4,0c6.9,2.1,14.8,2.1,14.8,2.1S29.7,20.6,21.4,20.4z"/>
	<g>
		<g>
			<path fill="#F7975B" d="M24.7,7.5C19.4,7.1,15.3,7.8,12,9c-1.1,0.4-2.2,0.9-3.3,1.5l0,0C13.1,7.4,19.5,4.7,28.2,5
				c16.5,0.7,23.9,8.9,25.6,11c-0.7,0-1.5,0.1-2.4,0.1C49.5,14.5,41.3,8.5,24.7,7.5z"/>
		</g>
		<g opacity="0">
			<path fill="none" stroke="#FFFFFF" stroke-width="0.1033" d="M24.7,7.5C19.4,7.1,15.3,7.8,12,9c-1.1,0.4-2.2,0.9-3.3,1.5l0,0
				C13.1,7.4,19.5,4.7,28.2,5c16.5,0.7,23.9,8.9,25.6,11c-0.7,0-1.5,0.1-2.4,0.1C49.5,14.5,41.3,8.5,24.7,7.5z"/>
		</g>
	</g>
	<path fill="#8C4D4A" d="M54.5,33.8c0,0-1-0.9-3.2-0.9c-1,0-2.1,0.4-3.1,0.9v-0.5c0,0,2.1-1.5,4.7-0.9c0.8,0.2,1.4,0.6,1.8,1.2
		L54.5,33.8z"/>
	<path fill="#8C4D4A" d="M38.9,35.3c0,0-0.7-0.9-3.1-1c-1,0-2.2,0.3-3.2,0.7c0,0-1,0.4-1.8,0.5V35c0.8-0.1,1.8-0.5,1.8-0.5
		c1.2-0.6,2.1-0.9,3.2-0.9c1.7,0,2.6,0.6,2.9,0.9l0.6,0.5L38.9,35.3z"/>
	<path d="M49,55.4c0,0,1.7-3.2-0.3-3.2c-2,0-7.1,2.5-7.1,4.6c-0.1,2.1,3.5,3.1,4.7,2.7C47.4,59,50.2,58.9,49,55.4z"/>
	<path fill="#E6E7E8" d="M48,52.7v0.7c0,0,0,0.2-0.2,0.2c0,0-3.2,0.3-3.5,0.6L44.1,54C44.1,54,46.3,52.2,48,52.7z"/>
	<path fill="#FFFFFF" d="M42.2,56.3c0.9-0.3,2.3-0.4,3.5-0.4c1.2,0,2.3-0.3,2.3-0.3c0.2,0.3,0.3,0.9,0.3,0.9s0,0,0,0l0.4,1
		c-0.3,0.2-0.7,0.3-1.2,0.6c-3.4,1.3-5.5-1.4-5.5-1.4L42.2,56.3z"/>
	<path fill="#ED1F24" d="M49.5,54.7c0,0,3.1,4.2-1.6,6.2c-4.7,2.1-7.3-3.7-6.9-4.7l1-0.1c0,0,1.5,1.7,3.3,2c0,0,1.3,0.2,2.4-0.6
		c0,0,0.7-0.4,0.7-1.1c0-0.7,0-1,0.4-1.5L49.5,54.7z"/>
	<path fill="#D71F26" d="M48.7,54.9c0.6-1,0.7-2.1-0.7-2.1c-2.7-0.1-6.1,3.4-6.1,3.4h0l-1,0.1c1-2.2,4.1-3.9,4.6-4.1
		c0.5-0.2,3.3-1.4,4.3-0.4c1.1,1-0.5,3-0.5,3L48.7,54.9z"/>
	<path fill="#F47D20" stroke="#FFFBC8" stroke-width="0.1033" stroke-opacity="0" d="M4.9,16.8c0,0,0.2-0.5,0.6-1.3
		c6.2-5,21,0.6,21,0.6s3.4,1.8,9.6,2.8c0,0-7.9,0-14.8-2.1C14.5,14.6,8.3,13.5,4.9,16.8z"/>
	<g opacity="0.5">
		<path fill="#C66159" d="M10.4,51.8c0,0,0.1,0,0.3,0.1c0.2,0.1,0.5,0.1,0.8,0.2c0.6,0.2,1.5,0.3,2.4,0.4c0.2,0,0.4,0.1,0.7,0.1
			c0.1,0,0.3,0,0.3,0c0.1,0,0.2,0,0.2,0c0.3,0,0.5-0.1,0.7-0.2c0.2-0.2,0.3-0.4,0.3-0.6c0-0.2,0.1-0.3,0.1-0.3l0.1,0
			c0,0,0,0.1,0.1,0.3c0,0.2,0.1,0.5-0.1,0.9c-0.2,0.3-0.5,0.6-1,0.7c-0.5,0.1-0.9,0-1.4-0.1c-0.9-0.1-1.8-0.4-2.5-0.8
			C10.7,52.2,10.4,51.8,10.4,51.8L10.4,51.8z"/>
	</g>
	<path fill="#F6891F" stroke="#FFFBC8" stroke-width="0.1033" stroke-opacity="0" d="M21.4,20.4L21.4,20.4
		C21.4,20.4,21.4,20.4,21.4,20.4L21.4,20.4l-5,22.5l-4.4-0.7l3.9-22.3C17.8,20.1,19.7,20.3,21.4,20.4z"/>
	<path fill="#F47D32" stroke="#FFFFFF" stroke-width="0.1033" stroke-opacity="0" d="M18.9,32c0,0-1.9,2.4-5.6,3.4
		c-1.6,0.5-4.3,2-6.7,4.6c0,0,0,0,0,0c1.2-2.6,2.7-4.9,4.8-5.9c2.8-1.4,5.7-2.9,7.9-4L18.9,32z"/>
	<path fill="#F47D20" stroke="#FFFBC8" stroke-width="0.1033" stroke-opacity="0" d="M2.3,50.7C1.8,45.9,5,38.6,5,38.6
		s3.6-6.8,8.9-8.5c5.4-1.8,6.2-3.8,6.2-3.8L19.3,30c-2.2,1.2-5.1,2.7-7.9,4c-2.1,1-3.6,3.4-4.8,5.9c0,0,0,0,0,0
		c-0.1,0.2-0.3,0.3-0.4,0.5c0,0,0,0,0,0C6,40.6,5.9,40.8,5.8,41c0,0,0,0,0,0c-0.1,0.2-0.3,0.3-0.4,0.5c0,0,0,0,0,0
		C5.2,41.7,5.1,41.9,5,42c0,0,0,0,0,0.1c-0.1,0.2-0.2,0.3-0.3,0.5c0,0,0,0.1-0.1,0.1c-0.1,0.2-0.2,0.3-0.3,0.5c0,0,0,0.1-0.1,0.1
		c-0.1,0.2-0.2,0.3-0.3,0.5c0,0-0.1,0.1-0.1,0.1c-0.1,0.2-0.2,0.3-0.2,0.5c0,0.1-0.1,0.1-0.1,0.2c-0.1,0.2-0.1,0.3-0.2,0.5
		c0,0.1-0.1,0.1-0.1,0.2c-0.1,0.2-0.1,0.3-0.2,0.5C3.1,45.9,3,45.9,3,46c0,0.2-0.1,0.3-0.1,0.5c0,0.1-0.1,0.2-0.1,0.3
		c0,0.2-0.1,0.3-0.1,0.5c0,0.1,0,0.2-0.1,0.3c0,0.2-0.1,0.3-0.1,0.5c0,0.1,0,0.2-0.1,0.3c0,0.2,0,0.3-0.1,0.5c0,0.1,0,0.2,0,0.3
		c0,0.2,0,0.4,0,0.5c0,0.1,0,0.2,0,0.3C2.3,50.2,2.3,50.4,2.3,50.7C2.3,50.7,2.3,50.7,2.3,50.7L2.3,50.7z"/>
	<path fill="#F47D20" stroke="#FFFBC8" stroke-width="0.1033" stroke-opacity="0" d="M13.3,35.4c3.7-1,5.6-3.4,5.6-3.4l-1,4.5
		c0,0-1.9,1.6-5,2.1l-1.4-2.5C12.2,35.8,12.8,35.5,13.3,35.4z"/>
	<path fill="#F6891F" stroke="#FFFBC8" stroke-width="0.1033" stroke-opacity="0" d="M0.1,40.1c0.1,2,0.3,4.2,0.8,6.4
		C0.9,46.2,1,46,1,45.8c0,0.2-0.1,0.5-0.1,0.8c0.3,1.4,0.8,2.9,1.3,4.2C1.8,45.9,5,38.6,5,38.6s3.6-6.8,8.9-8.5
		c5.4-1.8,6.2-3.8,6.2-3.8l0.8-3.7c0,0-7.2,0.6-13.1,7.2c-1.2,1.3-2.3,2.7-3.4,4.2c-0.1,0.1-0.3,0.6-0.7,1.4
		c0.4-0.8,0.7-1.3,0.7-1.4c1.1-1.5,2.3-2.9,3.4-4.2c5.9-6.6,13.1-7.2,13.1-7.2l0.5-2.3c-1.9-0.1-3.8-0.2-5.8-0.5
		c-1,0.3-2,0.7-3.2,1.3c0,0-8.9,5.2-12.2,13.7c-0.1,0.2-0.1,0.3-0.2,0.5C0,36.6,0,38.2,0.1,40.1z M1.3,43.6c0.4-2.2,0.8-4,1.3-5.4
		C2.2,39.6,1.7,41.4,1.3,43.6z M2.6,38.1c0.4-1.1,0.7-2,1-2.7C3.4,36.1,3,37,2.6,38.1z M1,45.7c0.1-0.7,0.2-1.4,0.3-2
		C1.2,44.3,1.1,45,1,45.7z"/>
	<path fill="#F6906B" d="M16.2,51.5l-4-15.5c0,0-3.2-0.7-5.7,0.1c-2.5,0.7-1.2,6.4-1.2,6.4s1.8,6.3,5.1,9.4c1.1,1,2.7,1.4,4.4,1.5
		C14.8,53.3,16.7,53.4,16.2,51.5z"/>
	<path fill="#F69487" d="M12.2,36c0,0,0.7,0.1,1.1,0.2l-0.4,2.4l-1.2-2.2L12.2,36z"/>
	<path fill="#F89623" d="M55.7,19.1c0,0,9.7-0.9,16.2-8.1c0,0-11.7,3.2-23.7-2C48.2,8.9,54.4,14.2,55.7,19.1z"/>
	<path fill="#F89623" d="M13.3,6.4c0,0,18.3-13.5,40-1.4c1.6,0.9,3,1.8,4.3,2.7c0,0-6.8,2.3-18.7-1C27,3.5,21.7,4.2,21.7,4.2
		L13.3,6.4z"/>
	<path fill="#F6891F" stroke="#FFFBC8" stroke-width="0.1033" stroke-opacity="0" d="M5.5,15.5c6.2-5,21,0.6,21,0.6
		c12.6,3.1,22.7,1.6,27.7,0.5c2.2-0.5,3.4-1,3.4-1s-3.9,0.9-9.3,0.5c1.1,0.1,2.1,0.1,3.1,0.1c-1.9-1.6-10.1-7.6-26.7-8.7
		C19.4,7.1,15.3,7.8,12,9c-1.1,0.4-2.2,0.9-3.3,1.5c-0.5,0.6-1,1.2-1.4,1.7C6.5,13.6,5.9,14.7,5.5,15.5z M13,8.7
		C13,8.7,13,8.7,13,8.7C13,8.7,13,8.7,13,8.7z M14,8.4C14,8.4,14,8.4,14,8.4C14,8.4,14,8.4,14,8.4z M15,8.2C15,8.2,15,8.2,15,8.2
		C15,8.2,15,8.2,15,8.2z M16,8C16,8,16,8,16,8C16,8,16,8,16,8z M17,7.9C17,7.9,17,7.9,17,7.9C17,7.9,17,7.9,17,7.9z M18.9,7.8
		C18.9,7.8,18.9,7.8,18.9,7.8C18.9,7.8,18.9,7.8,18.9,7.8z M19.9,7.8C19.8,7.8,19.8,7.8,19.9,7.8C19.8,7.8,19.8,7.8,19.9,7.8z
		 M20.8,7.8C20.8,7.8,20.7,7.8,20.8,7.8C20.7,7.8,20.8,7.8,20.8,7.8z M21.7,7.9C21.7,7.9,21.6,7.9,21.7,7.9
		C21.6,7.9,21.7,7.9,21.7,7.9z M23.4,8.1C23.4,8.1,23.4,8.1,23.4,8.1C23.4,8.1,23.4,8.1,23.4,8.1z M24.3,8.3
		C24.3,8.3,24.2,8.3,24.3,8.3C24.2,8.3,24.3,8.3,24.3,8.3z M25.1,8.4C25.1,8.4,25.1,8.4,25.1,8.4C25.1,8.4,25.1,8.4,25.1,8.4z
		 M25.9,8.6C25.9,8.6,25.9,8.6,25.9,8.6C25.9,8.6,25.9,8.6,25.9,8.6z M27.4,9C27.4,9,27.4,9,27.4,9C27.4,9,27.4,9,27.4,9z M28.1,9.2
		C28.1,9.2,28.1,9.2,28.1,9.2C28.1,9.2,28.1,9.2,28.1,9.2z M28.8,9.5C28.8,9.4,28.7,9.4,28.8,9.5C28.7,9.4,28.8,9.4,28.8,9.5z
		 M29.4,9.7C29.4,9.7,29.4,9.7,29.4,9.7C29.4,9.7,29.4,9.7,29.4,9.7z M31,10.3C31,10.3,31,10.3,31,10.3C31,10.3,31,10.3,31,10.3z
		 M31.5,10.5C31.5,10.5,31.5,10.5,31.5,10.5C31.5,10.5,31.5,10.5,31.5,10.5z M31.9,10.7C31.9,10.7,31.9,10.7,31.9,10.7
		C31.9,10.7,31.9,10.7,31.9,10.7z M32.3,10.9C32.3,10.9,32.3,10.9,32.3,10.9C32.3,10.9,32.3,10.9,32.3,10.9z M32.6,11
		C32.6,11,32.6,11,32.6,11C32.6,11,32.6,11,32.6,11z M32.9,11.2C32.9,11.2,32.8,11.2,32.9,11.2C32.8,11.2,32.9,11.2,32.9,11.2z
		 M33.1,11.3C33.1,11.3,33.1,11.3,33.1,11.3C33.1,11.3,33.1,11.3,33.1,11.3z M33.2,11.4C33.2,11.3,33.2,11.3,33.2,11.4
		C33.2,11.3,33.2,11.3,33.2,11.4z M33.3,11.4C33.3,11.4,33.3,11.4,33.3,11.4C33.3,11.4,33.3,11.4,33.3,11.4z M48.1,16
		c-0.2,0-0.3,0-0.5,0C47.8,16,48,16,48.1,16z M40.9,14.7c-0.1,0-0.2-0.1-0.3-0.1C40.7,14.6,40.8,14.6,40.9,14.7z M41.8,14.9
		c-0.1,0-0.2-0.1-0.3-0.1C41.6,14.8,41.7,14.9,41.8,14.9z M42.7,15.1c-0.1,0-0.2-0.1-0.4-0.1C42.4,15.1,42.5,15.1,42.7,15.1z
		 M43.5,15.3c-0.1,0-0.2-0.1-0.4-0.1C43.2,15.3,43.4,15.3,43.5,15.3z M44.3,15.5c-0.1,0-0.3,0-0.4-0.1C44,15.4,44.2,15.5,44.3,15.5z
		 M45.1,15.6c-0.1,0-0.3,0-0.4-0.1C44.8,15.6,45,15.6,45.1,15.6z M45.9,15.7c-0.1,0-0.3,0-0.4-0.1C45.6,15.7,45.7,15.7,45.9,15.7z
		 M46.6,15.8c-0.1,0-0.3,0-0.4-0.1C46.4,15.8,46.5,15.8,46.6,15.8z M47.4,15.9c-0.1,0-0.3,0-0.4,0C47.1,15.9,47.3,15.9,47.4,15.9z"
		/>
	<path fill="#F6891F" stroke="#FFFBC8" stroke-width="0.1033" stroke-opacity="0" d="M57.6,15.5c0,0-25.5-16.9-49.2-4.6l17.3,0.9
		l22,5.2L57.6,15.5z"/>
</g>
</svg>
