<?xml version="1.0" encoding="utf-8"?>
<!-- Generator: Adobe Illustrator 18.0.0, SVG Export Plug-In . SVG Version: 6.00 Build 0)  -->
<!DOCTYPE svg PUBLIC "-//W3C//DTD SVG 1.1//EN" "http://www.w3.org/Graphics/SVG/1.1/DTD/svg11.dtd">
<svg version="1.1" id="Layer_1" xmlns="http://www.w3.org/2000/svg" xmlns:xlink="http://www.w3.org/1999/xlink" x="0px" y="0px"
	 viewBox="0 0 160 130" enable-background="new 0 0 160 130" xml:space="preserve">
<g>
	<path fill="#231F20" d="M14.2,130.1v-10c-4.7-4-5.1-9.5-5.1-9.5l-1.8-24c0,0,3-22.9,3.6-25.6c0.7-2.7,2.4-3.5,2.4-3.5
		c1.8-0.9,5.5-2.3,11.1-4c5.7-1.6,10.1-3.7,10.1-3.7l12.1-6.8l1.4,3l0,0l8.6,18.6c0,0,8.6,21.4,10.3,30.6c1.7,9.3,3.4,34.8,3.4,34.8
		H41H14.2z"/>
	<path fill="none" stroke="#FFFFFF" stroke-width="0.7572" stroke-miterlimit="10" d="M8.6,111.2c0,0,1.4,11.9,16.7,12.9
		c0,0,20.5-15.6,23.2-18.5c2.7-2.9,6.8-7.8,2.4-17.3"/>
	<path fill="#231F20" d="M56.7,64.7L48,46.1l20.6,5c15.6,1.8,31,14.6,31,14.6c0.8,1.3,0.7,4.6,0.7,4.6c0.1,2.4,0.4,5,1,7.5
		c2.7,11.1,10.5,21.2,10.5,21.2c7.3-2.8,13.4-7.4,13.4-7.4l11.9,6.8c0,0,2.5,10.9,3.7,14c0,0,0.5,0.9-0.3,1.3
		c-0.8,0.4-14.6,6.8-23.2,9.8c0,0-3.6,1-5.9,1.1c-2.1,0-7.8-0.2-11.6-1.7v7.4H70.4c0,0-1.8-25.5-3.4-34.8
		C65.3,86,56.7,64.7,56.7,64.7z"/>
	
		<path fill="none" stroke="#FFFFFF" stroke-width="0.6884" stroke-linecap="round" stroke-linejoin="round" stroke-miterlimit="10" d="
		M83.2,118.8l3.6-42.5l-7-6.7l3.9-2.1c0,0-6.7-8.5-10.5-14.9"/>
	<path fill="#F47E37" stroke="#FFFFFF" stroke-width="0.1033" stroke-opacity="0" d="M46.5,32.4c0,0-0.7-2.4-0.7-2.6
		c0,0-0.1-0.1-0.1-0.2c1.7-2,3.8-3.3,5.1-3.6c2.6-0.7,4-2.5,4-2.5L53,31.3l-3.7-0.5l0.2,2.4l-1.6,9.1l-1.8-0.9
		c-0.6-0.4-1.2-1-1.6-1.6c0.1-3.8,1.5-6.3,1.5-6.3L46.5,32.4z"/>
	<g>
		<g>
			<path fill="#F47E37" d="M42.9,37c0-3,1.2-5.5,2.8-7.3c0.1,0.1,0.1,0.1,0.1,0.2c0,0.2,0.7,2.6,0.7,2.6L46,33.5
				c0,0-1.4,2.6-1.5,6.3c-0.5-0.7-0.8-1.3-0.8-1.3C43.3,38,43.1,37.5,42.9,37z"/>
		</g>
		<g>
			<path fill="#F47E37" d="M42.9,37c0-3,1.2-5.5,2.8-7.3c0.1,0.1,0.1,0.1,0.1,0.2c0,0.2,0.7,2.6,0.7,2.6L46,33.5
				c0,0-1.4,2.6-1.5,6.3c-0.5-0.7-0.8-1.3-0.8-1.3C43.3,38,43.1,37.5,42.9,37z"/>
		</g>
		<g opacity="0">
			<path fill="none" stroke="#FFFFFF" stroke-width="0.1033" d="M42.9,37c0-3,1.2-5.5,2.8-7.3c0.1,0.1,0.1,0.1,0.1,0.2
				c0,0.2,0.7,2.6,0.7,2.6L46,33.5c0,0-1.4,2.6-1.5,6.3c-0.5-0.7-0.8-1.3-0.8-1.3C43.3,38,43.1,37.5,42.9,37z"/>
		</g>
	</g>
	<path fill="#F9B790" stroke="#FFFFFF" stroke-width="0.1033" stroke-opacity="0" d="M76.6,12.5H80c0,0,4.5,5,0.6,13.7
		C80.3,27,80,27.5,79.8,28C79,24.5,76.9,14,76.6,12.5z"/>
	<path fill="#59595C" d="M45,104.9c0,0,4.4,0.9,6-6.5c0.6-2.7-0.3-5.9-1.7-8.8l-6.4-3.7c0,0-3.4-2.3-4.1,1.7
		C38.1,91.6,40.6,104.1,45,104.9z"/>
	<path fill="#FFFFFF" d="M44,104.5c-3.5-2.2-5.6-12.2-5.2-16.3c0,0,0,0,0,0c0,0,0,0,0,0c0.1-0.9,0.3-1.5,0.5-2c0,0,0,0,0,0
		c0,0,0,0,0-0.1c1.2-1.9,3.6-0.2,3.6-0.2v-0.2l7.8,2.7c1.2,3.5-1.2,6.4-1.2,6.4L44,104.5z"/>
	<path fill="none" d="M39.3,86.1C39.3,86.1,39.3,86.1,39.3,86.1c1.2-1.9,3.6-0.3,3.6-0.3v-0.2l7.8,2.7c1.2,3.5-1.2,6.4-1.2,6.4
		l0,0.1c0,0-1,1.3-2.8,2.3c-1.7,1-1.8,2-2.4,3.3c-0.1,0.2-0.2,0.4-0.3,0.7c0,0-0.3,0.6-0.7,0.3c-0.3-0.2-0.2-0.6-0.1-0.9
		c-0.2,0.3-0.5,0.7-0.9,0.2c-0.1-0.1-0.1-0.3,0-0.6c0,0,1.2-3.7-1.2-6.2c0,0-2.6-2.4-2.4-5.9C38.8,87.2,39,86.6,39.3,86.1
		C39.3,86.1,39.3,86.1,39.3,86.1z"/>
	<path fill="none" stroke="#FFFFFF" stroke-width="0.6884" stroke-linecap="round" stroke-miterlimit="10" d="M41.6,83.9
		c0,0-1.4-0.4-2.2,0.2l-19.5,15"/>
	<path fill="#FFFFFF" d="M56.7,64.7L48,46.1l20.6,5c1.2,0.1,2.5,0.4,3.7,0.6c2.3,8.4,7.4,30.9,7.4,30.9c1.3,11,4.9,47.6,4.9,47.6
		H70.4c0,0-1.8-25.5-3.4-34.8C65.3,86,56.7,64.7,56.7,64.7z"/>
	<path fill="#EC1E24" d="M69.8,62.9l12.1,67.2H70.4c0,0-1.5-21.5-3-32.2l0-0.8l-1.6-33.9L69.8,62.9z"/>
	<path fill="#D71F26" d="M71.2,59c0,0-0.6,2.2-1.3,4l-4.1,0.3c0,0-2.4-2.6-3.8-3.7L61,59l4.6-5.4l3.7,0.1l2.4,3.2L71.2,59z"/>
	<path fill="#FFFFFF" d="M66.1,50.4l2.5,0.6c1.2,0.1,2.5,0.4,3.7,0.6c1,3.6,2.5,9.9,4,15.9L66.1,50.4z"/>
	<polygon fill="#FFFFFF" points="56.7,64.7 48,46.1 46.7,43.1 52.7,47.2 63.6,49.8 66.8,54.8 	"/>
	<g>
		<path fill="#ADC6D0" d="M66.8,54.8c0,0-2.5,2.5-5,5c-2.5,2.5-5.1,4.9-5.1,4.9l0,0c0,0,0.1-0.2,0.4-0.5c0.2-0.3,0.6-0.8,1-1.3
			c0.4-0.5,0.9-1.1,1.5-1.7c0.6-0.6,1.2-1.2,1.8-1.9c0.6-0.6,1.3-1.2,1.9-1.8c0.6-0.6,1.2-1,1.8-1.5c0.5-0.4,1-0.7,1.3-1
			C66.6,54.9,66.8,54.8,66.8,54.8L66.8,54.8z"/>
	</g>
	<g>
		<path fill="#ADC6D0" d="M76.2,67.5c0,0-2.6-4.3-5.1-8.5c-2.5-4.3-5.1-8.6-5.1-8.6l0.1,0c0,0,0.2,0.2,0.5,0.7
			c0.3,0.4,0.8,1.1,1.3,1.8c0.5,0.8,1.2,1.7,1.8,2.7c0.6,1,1.3,2,1.9,3.1c0.6,1.1,1.2,2.2,1.8,3.2c0.6,1,1,2,1.5,2.8
			c0.4,0.8,0.7,1.6,1,2C76.2,67.2,76.3,67.5,76.2,67.5L76.2,67.5z"/>
	</g>
	<path fill="none" stroke="#EC1E24" stroke-width="8.604900e-02" stroke-miterlimit="10" d="M133.3,96.8"/>
	<path fill="none" stroke="#EC1E24" stroke-width="8.604900e-02" stroke-miterlimit="10" d="M100,122.8c-0.2-0.1-0.5-0.2-0.7-0.3"/>
	
		<line fill="none" stroke="#FFFFFF" stroke-width="0.6884" stroke-linecap="square" stroke-linejoin="round" stroke-miterlimit="10" x1="69.5" y1="122.4" x2="52" y2="86.6"/>
	<line fill="none" stroke="#FFFFFF" stroke-width="0.6884" stroke-miterlimit="10" x1="41.3" y1="46.1" x2="41.3" y2="60"/>
	<g>
		<g>
			<path fill="#58595B" d="M137,113.1c0,0-0.2,0-3.3-2.8l2.1-2.1C136.1,109.8,136.5,111.5,137,113.1z"/>
			<path fill="#58595B" d="M133.6,110.3C133.6,110.3,133.6,110.3,133.6,110.3C133.6,110.3,133.6,110.3,133.6,110.3z"/>
		</g>
		<g>
			<path fill="none" stroke="#EC1E24" stroke-width="8.604900e-02" stroke-miterlimit="10" d="M133.6,110.3
				C133.6,110.3,133.6,110.3,133.6,110.3C133.6,110.3,133.6,110.3,133.6,110.3z"/>
		</g>
	</g>
	
		<path fill="none" stroke="#FFFFFF" stroke-width="0.6884" stroke-linecap="round" stroke-linejoin="round" stroke-miterlimit="10" d="
		M111.9,98.6c0,0-0.7,0.3-1.9,0.7c-1.3,0.4-3.2,1-5.3,1.4"/>
	
		<line fill="none" stroke="#FFFFFF" stroke-width="0.6884" stroke-linecap="square" stroke-linejoin="round" stroke-miterlimit="10" x1="108.5" y1="101" x2="99.6" y2="116.5"/>
	
		<line fill="none" stroke="#FFFFFF" stroke-width="0.6884" stroke-linecap="square" stroke-linejoin="round" stroke-miterlimit="10" x1="107.1" y1="101.3" x2="99.6" y2="108"/>
	<polygon fill="none" stroke="#EC1E24" stroke-width="8.604900e-02" stroke-miterlimit="10" points="46.7,43.1 48,46.1 48,46.1 	"/>
	<path fill="#F58F6B" d="M36.1,67.7c0,1,0.4,4.2,1.2,6.9c0.8,2.7,2.4,6.1,2.4,6.1s0.3,1.3,0.9,2.8l-0.9,4.9c0,0,0,2.3,1.4,3.9
		c1.4,1.6,2.9,3.5,2.6,5.5c-0.1,1-0.2,1.9-0.3,2.5c0,0,0.8-2.5,1.6-3.2c0.8-0.7,3.3-1.6,4.2-3.6l1.6-4.5c0,0,2.9-2.9,3.7-5.4
		c0,0,2.2-2.6,3.3-7.3c0,0,1.9-4.3,1.1-6.3c-0.2-0.4-0.6-0.9-1.1-1.5c0,0-0.5-0.8-1.3-1.5c0-0.4-0.1-0.8-0.5-1.4
		c-1.3-1.6-5.6-3.1-5.6-3.1s-1.5-0.5-2.2,0c-0.7,0.5-1,1.8-1,1.8s-0.4,1.3-0.7,1.7c-0.1-0.5-0.2-1.2-0.3-2.3c0,0,0.6-2.8,0.6-4.3
		c0,0,1.7-2.9,0.6-4.7c-1.1-1.7-3,2-3,2S43.5,58.4,43,60c0,0,0.2-1.9-0.9-2.2c-1.1-0.3-2.6,3.3-2.6,3.3s-1.3,2.9-1.7,4.5
		c0,0-0.4-0.5-1.1-0.4C36.2,65.4,36.1,66.7,36.1,67.7z M49.9,68.8c0,0,0.2-1.4,0.3-2.4c0,0,2.2,1.1,3.9,1.5c0,0.1,0,0.1,0,0.2
		c-0.1,1.1-0.3,2.3,0.1,3.2c0,0-0.5,1-0.6,2.5C53.5,73.8,51.6,70.6,49.9,68.8z"/>
	<g>
		<path fill="#C66159" d="M43.1,60c-0.3,1.2-0.7,2.5-1.2,3.7l0,0c0.1,0.8,0.2,1.6,0.2,2.5c0,0.8,0.1,1.6,0,2.5l-0.1,0l-0.1-0.6
			c0-0.2-0.1-0.4-0.1-0.6c-0.1-0.4-0.1-0.8-0.2-1.2c-0.1-0.4-0.1-0.8-0.2-1.2c-0.1-0.4-0.1-0.8-0.1-1.2l0-0.2l0.1-0.1
			c0.3-0.5,0.5-1.1,0.8-1.7c0.2-0.3,0.3-0.6,0.4-0.9C42.7,60.5,42.8,60.2,43.1,60L43.1,60z"/>
	</g>
	<g>
		<path fill="#C66159" d="M42.5,68.3C42.5,68.3,42.5,68.4,42.5,68.3c-0.1,0.1-0.1,0.2-0.1,0.3c0,0.1-0.1,0.2-0.1,0.2
			c-0.1,0.1-0.1,0.1-0.2,0.2c-0.1,0-0.1,0.1-0.2,0.1c-0.1,0-0.2,0-0.2,0c-0.1,0-0.2,0-0.2,0c-0.1,0-0.1,0-0.1,0l0,0
			c0,0,0.2-0.3,0.5-0.5C42.2,68.4,42.5,68.3,42.5,68.3L42.5,68.3z"/>
	</g>
	<g>
		<path fill="#C66159" d="M41.7,74.6c-0.2-0.4-0.3-0.8-0.5-1.1c-0.2-0.4-0.4-0.7-0.6-1c-0.2-0.3-0.4-0.6-0.7-0.9
			c-0.2-0.3-0.5-0.5-0.7-0.8l-0.2-0.1l0-0.2c-0.1-0.4-0.1-0.8-0.2-1.2c-0.1-0.4-0.2-0.8-0.3-1.2c-0.1-0.4-0.2-0.8-0.3-1.2
			c-0.1-0.4-0.2-0.8-0.3-1.3l0.1,0c0.8,1.5,1.4,3.1,1.7,4.8l0,0C40.9,71.4,41.6,73,41.7,74.6L41.7,74.6z"/>
	</g>
	<g>
		<path fill="#C66159" d="M44.7,87.8c0,0-0.4,0.2-1,0c-0.3-0.1-0.6-0.2-0.9-0.4c-0.3-0.2-0.6-0.5-0.8-0.9c-0.2-0.4-0.4-0.7-0.5-1.1
			c-0.2-0.3-0.3-0.7-0.4-0.9c-0.2-0.6-0.4-0.9-0.4-0.9l0.1,0c0,0,0.1,0.1,0.2,0.2c0.1,0.1,0.3,0.3,0.5,0.6c0.2,0.3,0.4,0.5,0.6,0.9
			c0.1,0.2,0.2,0.3,0.3,0.5c0.1,0.1,0.2,0.3,0.3,0.4c0.2,0.3,0.4,0.6,0.6,0.8c0.2,0.2,0.4,0.4,0.7,0.5c0.2,0.1,0.5,0.2,0.6,0.2
			C44.6,87.7,44.7,87.7,44.7,87.8L44.7,87.8z"/>
	</g>
	<path fill="#F58F6B" d="M47.7,43.8L65.6,56h3.8c0,0,4.4-2.5,7-5.4c0,0,0-0.1,0.1-0.2c3.1-1.6,3.6-4.9,3.6-4.9l1.3-12.2
		c0,0,0.6-3.5-0.4-6.1c0,0-0.8-1.3-0.4-3.3l0.5-2.1c0,0,0.8-1.6-1.7-6c-0.6-1-1.5-2.4-2.7-4l-23.1-1.4l-0.7,3.2L47.7,43.8z"/>
	<g>
		<path fill="#C66159" d="M65.6,47.8c0.3,0.8,1.4,1.7,1.4,1.7c1.6,1.1,3.5,1.9,5.5,1.9c1.6,0,2.9-0.4,3.9-0.9
			c-0.1,0.1-0.1,0.2-0.1,0.2c-0.2,0.2-0.4,0.5-0.7,0.7c-0.3,0.1-0.6,0.2-0.8,0.3l-1,0.2l-1.1,0.1l-0.1,0l0,0l0,0l0,0l0,0l-0.1,0
			l-0.3,0c-0.2,0-0.3,0-0.5,0c-0.4,0-0.7-0.1-1.1-0.2c-0.3-0.1-0.7-0.2-1-0.3c-0.2-0.1-0.3-0.1-0.5-0.2c-0.2-0.1-0.3-0.1-0.5-0.2
			l-0.5-0.3c-0.2-0.1-0.3-0.2-0.4-0.3c-0.3-0.2-0.6-0.4-0.8-0.6l0,0c-0.1-0.1-0.3-0.3-0.4-0.4c-0.1-0.1-0.2-0.3-0.4-0.4
			c-0.1-0.1-0.1-0.2-0.2-0.2c-0.1-0.1-0.1-0.2-0.1-0.2c0-0.1-0.1-0.2-0.1-0.3L65.6,47.8L65.6,47.8z"/>
		<polygon fill="#C66159" points="65.7,47.8 65.6,47.8 65.7,47.8 		"/>
	</g>
	<path fill="none" d="M41.5,24.4c0,0,1-9.3,1.6-10.6c0.6-1.3,1.7-1.1,1.7-1.1c1.6,0.2,4.6,1.4,4.6,1.4c0.9,0.4,1.9,0.6,3,0.8
		c1.5,0.2,2.9,0.4,4.3,0.4L53,31.3l-3.7-0.5l0.2,2.4l-1.6,9.1l-1.8-0.9c-1.5-0.9-2.4-2.9-2.4-2.9C40.3,32.7,41.5,24.4,41.5,24.4z"/>
	<path fill="none" stroke="#EC1E24" stroke-width="8.604900e-02" stroke-miterlimit="10" d="M82.4,11.8c0,0-0.9,0.3-2.5,0.7"/>
	<path fill="#EF5223" d="M71.8,34.4h3.5c0,0,0.3-0.1,0.5-0.2c0.2-0.1,1.2-1,1.2-1s1.1-0.6-0.2-3.5l-2.2-5.7c0,0-0.5-1.1-1.5-0.9
		c-1,0.2-0.9,1.6-0.9,1.6l0.2,4.2c0,0,0.1,1.6-0.2,2c0,0-0.4,0.4-0.5,0.5c-0.2,0.1-1.2,0.8-1,2C70.9,34.4,71.8,34.4,71.8,34.4z"/>
	<path fill="#FBD4BC" stroke="#FFFFFF" stroke-width="0.1033" stroke-opacity="0" d="M68.5,22.8c0,0-3.7-1.2-6.6,0.5
		c0,0,4-3.9,5.6-1.8c0,0,0.9-0.8,1.3-0.6c0.4,0.3,0.1,0.5,0.1,0.5s1.1-0.7,1.4-0.2c0.1,0.2,0,0.4-0.2,0.6L68.5,22.8z"/>
	<path fill="#FBD4BC" stroke="#FFFFFF" stroke-width="0.1033" stroke-opacity="0" d="M81,21.8c0,0,0.7-1.5,0-2.2
		c-0.2-0.2-0.4,0-0.7,0.2c0,0,0.1-1.3-1.5-0.6c-0.5,0.2-1,0.6-1.3,1.1c0,0,0.2-1.1-0.7-0.3c-0.9,0.7-1.8,2.5-2.1,3.6
		C74.7,23.5,78.4,19.4,81,21.8z"/>
	<g opacity="0.5">
		<path fill="#C66159" d="M78.4,27.4c0,0-0.7-0.1-1.4-0.6c-0.3-0.2-0.6-0.5-0.7-0.7c-0.2-0.2-0.2-0.4-0.2-0.4l0,0c0,0,0.1,0,0.1,0.1
			c0.1,0.1,0.2,0.1,0.3,0.2c0.1,0.1,0.3,0.1,0.4,0.2c0.1,0.1,0.2,0.2,0.4,0.3c0.1,0.1,0.2,0.2,0.4,0.3c0.1,0.1,0.2,0.2,0.3,0.3
			c0.1,0.1,0.2,0.2,0.3,0.2C78.3,27.3,78.4,27.4,78.4,27.4L78.4,27.4z"/>
	</g>
	<g opacity="0.5">
		<path fill="#C66159" d="M69.1,26.8c0,0,0.1,0.4-0.2,1c-0.1,0.3-0.3,0.6-0.7,0.8c-0.2,0.1-0.3,0.2-0.5,0.3
			c-0.2,0.1-0.4,0.2-0.6,0.2c-0.4,0.1-0.8,0.1-1.2,0c-0.4-0.1-0.7-0.3-1-0.5c-0.5-0.4-0.8-0.7-0.8-0.7l0,0c0,0,0.1,0,0.3,0.1
			c0.2,0.1,0.4,0.2,0.7,0.3c0.3,0.1,0.6,0.2,0.9,0.3c0.2,0,0.3,0,0.5,0c0.1,0,0.1,0,0.3,0c0.1,0,0.2,0,0.3-0.1
			c0.2,0,0.4-0.1,0.5-0.1c0.2-0.1,0.3-0.1,0.4-0.2c0.1-0.1,0.3-0.2,0.4-0.3c0.1-0.1,0.2-0.2,0.3-0.3c0.1-0.2,0.3-0.5,0.3-0.6
			C69.1,26.9,69.1,26.8,69.1,26.8L69.1,26.8z"/>
	</g>
	<path fill="#FFFFFF" d="M79.7,24.4c0,0-0.3,1.3-1.6,1.2c-1.3-0.1-1.8-0.5-2-1c0,0,0.9-0.9,2.2-0.7C79.6,24.1,79.7,24.4,79.7,24.4z"
		/>
	<path fill="#7DB7C6" d="M79.1,24.2c0,0-0.2,1-1,1c-0.8,0-1-0.9-1-0.9S77.5,23.7,79.1,24.2z"/>
	<g opacity="0.5">
		<path fill="#C66159" d="M80.5,23.6c0,0-0.1,0.7-0.2,1.4c-0.1,0.4-0.2,0.7-0.3,1c-0.1,0.2-0.2,0.4-0.2,0.4l0,0c0,0,0-0.1,0-0.2
			c0-0.1,0-0.2,0-0.3c0-0.1,0-0.3,0-0.5c0-0.2,0.1-0.3,0.1-0.5c0.1-0.2,0.1-0.3,0.2-0.5c0-0.2,0.2-0.3,0.2-0.4
			c0.1-0.1,0.2-0.2,0.2-0.3C80.4,23.6,80.5,23.6,80.5,23.6L80.5,23.6z"/>
	</g>
	<path fill="#FFFFFF" d="M68.7,25.5c0,0-0.9,1.1-2.4,1.2c-1.2,0-2.1-0.7-2.3-1c0,0,1.5-0.9,3.3-0.7C69,25.2,68.7,25.5,68.7,25.5z"/>
	<path fill="#7DB7C6" d="M67.6,25.2c0,0-0.1,0.9-1,1.1c-1,0.1-1.5-0.9-1.5-0.9S66.7,24.9,67.6,25.2z"/>
	<g opacity="0.5">
		<path fill="#C66159" d="M77.1,34.5c0,0,0.6,0.5,1,1.2c0.2,0.4,0.3,0.7,0.4,1c0.1,0.3,0.1,0.5,0.1,0.5l-0.1,0c0,0,0,0-0.1-0.1
			c0-0.1-0.1-0.2-0.2-0.3c-0.1-0.1-0.2-0.3-0.3-0.4c-0.1-0.1-0.2-0.3-0.3-0.4c-0.1-0.2-0.2-0.3-0.2-0.5c-0.1-0.1-0.1-0.3-0.2-0.5
			c-0.1-0.1-0.1-0.3-0.1-0.4C77,34.6,77,34.5,77.1,34.5L77.1,34.5z"/>
	</g>
	<g opacity="0.5">
		<path fill="#C66159" d="M70,35.1c0,0-0.1,0.1-0.2,0.4c-0.1,0.2-0.3,0.6-0.5,1c-0.2,0.4-0.4,0.9-0.5,1.4c-0.1,0.3-0.1,0.4-0.1,0.8
			c0,0.3-0.1,0.6-0.1,0.9c-0.1,1.2-0.1,2.4-0.2,3.3c0,0.2,0,0.4,0,0.6c0,0.2,0,0.3,0.1,0.4c0.1,0.3,0.1,0.4,0.1,0.4l-0.1,0
			c0,0-0.1-0.1-0.2-0.4c-0.2-0.2-0.3-0.6-0.3-1.1c-0.1-0.9-0.2-2.2-0.1-3.4c0-0.6,0.1-1.3,0.3-1.8c0.2-0.6,0.5-1,0.8-1.4
			C69.5,35.5,70,35,70,35.1L70,35.1z"/>
	</g>
	<g opacity="0.5">
		<path fill="#C66159" d="M73.5,52.2c0,0-1.5,0.7-3.1,0.8c-0.8,0.1-1.6,0-2.2-0.2c-0.6-0.2-1-0.4-1-0.4l0,0c0,0,0.1,0,0.3,0
			c0.2,0,0.4,0,0.7,0.1c0.1,0,0.3,0,0.5,0c0.2,0,0.3,0,0.5,0c0.3,0,0.7,0,1.1-0.1c0.4,0,0.8-0.1,1.1-0.1c0.4-0.1,0.7-0.1,1-0.1
			c0.3-0.1,0.6-0.1,0.7-0.1C73.4,52.2,73.5,52.2,73.5,52.2L73.5,52.2z"/>
	</g>
	<g opacity="0.5">
		<path fill="#C66159" d="M65.5,53.9c0,0-0.6-0.2-1.3-0.7c-0.8-0.5-1.7-1.3-2.4-2.4c-0.2-0.3-0.3-0.5-0.4-0.8
			c-0.1-0.3-0.2-0.6-0.3-0.8c-0.1-0.3-0.1-0.5-0.2-0.8c-0.1-0.3-0.1-0.5-0.1-0.7c0-0.2-0.1-0.4-0.1-0.6c0-0.2,0-0.3,0-0.5
			c0-0.3,0-0.4,0-0.4l0.1,0c0,0,0,0.2,0.1,0.4c0,0.1,0,0.3,0.1,0.5c0,0.2,0.1,0.4,0.1,0.6c0,0.2,0.1,0.4,0.2,0.7
			c0.1,0.2,0.2,0.5,0.3,0.7c0.1,0.2,0.2,0.5,0.3,0.8c0.1,0.2,0.3,0.5,0.4,0.7c0.1,0.3,0.3,0.5,0.5,0.7c0.2,0.2,0.4,0.4,0.5,0.6
			c0.2,0.2,0.4,0.4,0.5,0.6c0.2,0.2,0.4,0.3,0.5,0.5C65,53.5,65.5,53.9,65.5,53.9L65.5,53.9z"/>
	</g>
	<g opacity="0.5">
		<path fill="#C66159" d="M60.6,48.3c0,0-0.9-0.7-1.5-1.6c-0.3-0.4-0.6-0.9-0.8-1.3c-0.2-0.4-0.2-0.6-0.2-0.6s0.1,0.2,0.3,0.6
			c0.2,0.3,0.5,0.8,0.9,1.1c0.4,0.4,0.8,0.7,1.1,1c0.3,0.2,0.5,0.4,0.5,0.4L60.6,48.3z"/>
	</g>
	<g>
		<path fill="#C66159" d="M52,38.7c0,0,0.1,0.1,0.1,0.4c0.1,0.2,0.2,0.6,0.2,1c0,0.2,0.1,0.4,0.1,0.7l0,0.2l0,0.1
			c0,0.1,0,0.2,0.1,0.3c0.1,0.5,0.2,1,0.4,1.5c0.1,0.3,0.2,0.5,0.2,0.7c0.1,0.2,0.2,0.5,0.3,0.7c0.2,0.5,0.4,0.9,0.5,1.3
			c0.2,0.4,0.3,0.7,0.4,0.9c0.1,0.2,0.2,0.4,0.2,0.4L54.6,47c0,0-0.1-0.1-0.3-0.3c-0.2-0.2-0.4-0.5-0.6-0.8c-0.5-0.7-1-1.7-1.4-2.7
			c-0.2-0.5-0.3-1.1-0.4-1.6c-0.1-0.5,0-1,0-1.4C51.9,39.3,51.9,38.7,52,38.7L52,38.7z"/>
	</g>
	<g>
		<g>
			<g>
				<path fill="#F47E37" d="M41.3,26C41.3,26,41.3,26,41.3,26L41.3,26c0.1-1,0.1-1.6,0.1-1.6s0.2-1.8,0.5-3.9
					c2.1-3.4,4.9-5.3,4.9-5.3c0.8-0.6,1.6-1,2.2-1.2c0.2,0.1,0.3,0.1,0.3,0.1c0.9,0.4,1.9,0.6,3,0.8c0,0,0.1,0,0.1,0
					c-0.7,0.2-1.5,0.5-2.3,1c0,0-6.3,3.7-8.7,9.8C41.4,25.8,41.4,25.9,41.3,26z"/>
				<path fill="#F47E37" d="M41.3,26C41.3,26,41.3,26,41.3,26L41.3,26c0.1-1,0.1-1.6,0.1-1.6s0.2-1.8,0.5-3.9
					c2.1-3.4,4.9-5.3,4.9-5.3c0.8-0.6,1.6-1,2.2-1.2c0.2,0.1,0.3,0.1,0.3,0.1c0.9,0.4,1.9,0.6,3,0.8c0,0,0.1,0,0.1,0
					c-0.7,0.2-1.5,0.5-2.3,1c0,0-6.3,3.7-8.7,9.8C41.4,25.8,41.4,25.9,41.3,26z"/>
			</g>
		</g>
		<g>
			<g>
				<path fill="#F8A97A" d="M41.3,26C41.3,26,41.3,26,41.3,26L41.3,26c0.1-1,0.1-1.6,0.1-1.6s0.2-1.8,0.5-3.9
					c2.1-3.4,4.9-5.3,4.9-5.3c0.8-0.6,1.6-1,2.2-1.2c0.2,0.1,0.3,0.1,0.3,0.1c0.9,0.4,1.9,0.6,3,0.8c0,0,0.1,0,0.1,0
					c-0.7,0.2-1.5,0.5-2.3,1c0,0-6.3,3.7-8.7,9.8C41.4,25.8,41.4,25.9,41.3,26z"/>
				<path opacity="0" fill="none" stroke="#FFFFFF" stroke-width="0.1033" d="M41.3,26C41.3,26,41.3,26,41.3,26L41.3,26
					c0.1-1,0.1-1.6,0.1-1.6s0.2-1.8,0.5-3.9c2.1-3.4,4.9-5.3,4.9-5.3c0.8-0.6,1.6-1,2.2-1.2c0.2,0.1,0.3,0.1,0.3,0.1
					c0.9,0.4,1.9,0.6,3,0.8c0,0,0.1,0,0.1,0c-0.7,0.2-1.5,0.5-2.3,1c0,0-6.3,3.7-8.7,9.8C41.4,25.8,41.4,25.9,41.3,26z"/>
			</g>
		</g>
		<g opacity="0">
			<g>
				<path fill="none" stroke="#FFFFFF" stroke-width="0.1033" d="M41.3,26C41.3,26,41.3,26,41.3,26L41.3,26c0.1-1,0.1-1.6,0.1-1.6
					s0.2-1.8,0.5-3.9c2.1-3.4,4.9-5.3,4.9-5.3c0.8-0.6,1.6-1,2.2-1.2c0.2,0.1,0.3,0.1,0.3,0.1c0.9,0.4,1.9,0.6,3,0.8
					c0,0,0.1,0,0.1,0c-0.7,0.2-1.5,0.5-2.3,1c0,0-6.3,3.7-8.7,9.8C41.4,25.8,41.4,25.9,41.3,26z"/>
				<path fill="none" stroke="#FFFFFF" stroke-width="0.1033" d="M41.3,26C41.3,26,41.3,26,41.3,26L41.3,26c0.1-1,0.1-1.6,0.1-1.6
					s0.2-1.8,0.5-3.9c2.1-3.4,4.9-5.3,4.9-5.3c0.8-0.6,1.6-1,2.2-1.2c0.2,0.1,0.3,0.1,0.3,0.1c0.9,0.4,1.9,0.6,3,0.8
					c0,0,0.1,0,0.1,0c-0.7,0.2-1.5,0.5-2.3,1c0,0-6.3,3.7-8.7,9.8C41.4,25.8,41.4,25.9,41.3,26z"/>
			</g>
		</g>
	</g>
	<path fill="#F9A23A" stroke="#FFFAC7" stroke-width="0.1033" stroke-opacity="0" d="M44.7,12.7c1.3,0.2,3.5,0.9,4.3,1.2
		c-0.6,0.3-1.4,0.7-2.2,1.2c0,0-2.8,1.9-4.9,5.3l0,0c0.4-2.7,0.8-5.9,1.1-6.7C43.7,12.4,44.7,12.7,44.7,12.7z"/>
	<path fill="#F79B64" d="M56.6,15.3c-1.4,0-2.8-0.2-4.3-0.4c-1-0.2-2-0.4-3-0.8c0,0-3-1.2-4.6-1.4c0,0,3.5-10,16.3-10.8
		C66.8,1.5,71.5,3,75,4.7h-1.7c0,0,1.3,1,2.2,2.2c0,0,0.8,0.6,2,1c1.2,0.4,5.3,2.1,7.8,5.3c0,0-1.9,0.8-4.2,1
		c-0.6-1.2-1.1-1.8-1.1-1.8c-3.6,0.8-10.8,1.9-19.8-0.3c0,0,2.5,1.3,6.9,2C67.1,14.2,62.5,15.5,56.6,15.3L56.6,15.3z"/>
	<path fill="#F37C20" stroke="#FFFAC7" stroke-width="0.1033" stroke-opacity="0" d="M56.6,15.3L56.6,15.3c-1.4,0-2.8-0.2-4.3-0.4
		c-1-0.2-2-0.4-3-0.8c0,0-3-1.2-4.6-1.4c2.5-2.3,6.8-1.5,11.8,0c4.9,1.5,10.6,1.5,10.6,1.5S62.5,15.5,56.6,15.3z"/>
	<g>
		<g>
			<path fill="#F79B64" d="M58.9,6c-3.8-0.2-6.7,0.3-9,1.1c-0.8,0.3-1.6,0.6-2.4,1.1l0,0C50.6,6,55.2,4,61.4,4.3
				c11.8,0.5,17.1,6.3,18.3,7.9c-0.5,0-1.1,0.1-1.7,0.1C76.6,11,70.8,6.8,58.9,6z"/>
		</g>
		<g opacity="0">
			<path fill="none" stroke="#FFFFFF" stroke-width="0.1033" d="M58.9,6c-3.8-0.2-6.7,0.3-9,1.1c-0.8,0.3-1.6,0.6-2.4,1.1l0,0
				C50.6,6,55.2,4,61.4,4.3c11.8,0.5,17.1,6.3,18.3,7.9c-0.5,0-1.1,0.1-1.7,0.1C76.6,11,70.8,6.8,58.9,6z"/>
		</g>
	</g>
	<g>
		<g>
			<path fill="#F58F6B" d="M137.9,70.8c0.9-1.3,3.7-5.4,4.4-6.3c0.9-1.1,2.9-3.2,3.9-2.7c1,0.5,1.2,1.3,0,3.6c-1.2,2.4-6,9.8-6,9.8
				l0.3,0.3l5.1-6.3c0,0,2.6-3.8,4.1-2.5c1.5,1.3-1.5,4.3-1.5,4.3l-5.3,7.6l0.7,1.1L147,77l2.8-2.2c0,0,1.8-1.6,2.7-0.3
				c0.8,1.3-0.6,2.9-0.6,2.9l-2.4,1.8c-1,1.1-3,2.6-3,2.6s-2.6,6.2-3.1,7.7c-0.6,1.4-1.2,2.5-1.2,2.5s-6.4,9.3-11.3,12l-3.5-4.1
				c0,0-3.5-4.6-2-8.4l1-1.1c0,0-0.2-7.8,3.9-14.8c2.9-4.9,5.5-5.3,6.7-5.2C136.9,70.4,137.6,70.5,137.9,70.8
				C137.9,70.8,137.9,70.8,137.9,70.8z"/>
		</g>
	</g>
	<g>
		<path fill="#C66159" d="M138,70.8c0.4,0.3,0.8,0.8,0.8,1.3c0,0.5,0,1,0.1,1.5l-0.2,0c-0.1-0.5-0.2-1-0.2-1.5
			C138.4,71.7,138.2,71.3,138,70.8L138,70.8c0.4,0.3,0.8,0.8,0.9,1.3c0.1,0.5,0.1,1,0,1.5l-0.2,0c0-0.5-0.1-1-0.2-1.5
			C138.4,71.7,138.2,71.3,138,70.8L138,70.8z"/>
	</g>
	<g>
		<path fill="#C66159" d="M133.2,96.8c0.8-0.9,1.4-1.8,2-2.8c0.3-0.5,0.5-1,0.6-1.6c0.1-0.3,0.1-0.5,0.1-0.8c0-0.3,0-0.6,0.1-0.9
			c0-1.1,0-2.3,0-3.4c-0.1-1.1-0.2-2.3-0.3-3.4l0,0l0,0c-0.1-0.8-0.1-1.5,0-2.3l0-0.1l0.1-0.1c0.3-0.4,0.6-0.8,0.9-1.1
			c0.3-0.4,0.7-0.8,1-1.1c0.2-0.3,0.5-0.6,0.7-1c0.2-0.4,0.4-0.7,0.6-1.1c0.3-0.8,0.5-1.6,0.3-2.2c-0.1-0.3-0.4-0.6-0.5-0.6
			c-0.2,0-0.6,0.1-1,0.3c-0.7,0.4-1.5,0.9-2.1,1.5c-0.7,0.6-1.4,1.2-2,1.8c-1.3,1.2-2.6,2.6-3.8,3.9l0,0c-0.2,0.3-0.5,0.6-0.6,0.9
			c-0.2,0.3-0.3,0.7-0.4,1.1l-0.7,2.2l-0.1,0l0.6-2.3c0.1-0.4,0.2-0.8,0.4-1.1c0.2-0.4,0.4-0.7,0.6-1l0,0c1.2-1.4,2.4-2.8,3.7-4
			c0.6-0.6,1.3-1.3,2-1.9c0.7-0.6,1.4-1.2,2.2-1.6c0.4-0.2,0.9-0.4,1.3-0.4c0.3,0,0.5,0.2,0.6,0.4c0.2,0.2,0.3,0.4,0.4,0.6
			c0.3,0.9,0.1,1.9-0.2,2.7c-0.4,0.8-0.9,1.6-1.5,2.3c-0.7,0.6-1.2,1.3-1.8,2.1l0,0c-0.1,0.7-0.1,1.4,0,2.2l0,0
			c0.2,1.2,0.3,2.3,0.3,3.5c0,1.2,0,2.3-0.1,3.5c0,0.6-0.1,1.2-0.2,1.7c-0.2,0.6-0.4,1.1-0.7,1.6C134.8,95.1,134.1,96,133.2,96.8
			L133.2,96.8z"/>
	</g>
	<g>
		<path fill="#C66159" d="M136.3,74.7c0,0-0.2-0.1-0.4-0.2c-0.2-0.1-0.6-0.4-0.8-0.8c-0.3-0.7-0.6-1.4-0.6-1.4l0.1,0
			c0,0,0.1,0,0.2,0.1c0.1,0.1,0.2,0.1,0.3,0.2c0.1,0.1,0.3,0.2,0.4,0.4c0.1,0.1,0.2,0.3,0.3,0.5c0,0.1,0.1,0.2,0.1,0.3
			c0.1,0.1,0.1,0.3,0.2,0.4c0.1,0.1,0.1,0.3,0.2,0.3C136.3,74.6,136.3,74.7,136.3,74.7L136.3,74.7z"/>
	</g>
	<path fill="#FFFFFF" d="M125.3,91.5c0,0-1.3,4.8,5,9.5c1.5,1.1,3.5,2.4,5.8,3.7c0,0-0.8-1.7-0.3-3.3c0.4-1.4,0.6-1.5,0.5-2.1
		c0.1-0.1,0.2-0.3,0.4-0.4c0.7,0.7,0.3,2.3,0.3,2.3c-0.7,1.4,0.1,3.9,0.7,5.2l-3.9,3.9c-2.8-2.8-6.6-7.4-8.6-12.8
		c-0.6-1.6-0.8-2.8-0.8-3.8C124.3,93.6,124.3,92.5,125.3,91.5z"/>
	<g>
		<path fill="#C66159" d="M49.9,68.8C49.9,68.8,49.9,68.8,49.9,68.8c-0.1,0.1-0.2,0.1-0.2,0.1c0,0-0.1,0-0.2,0c0,0-0.1,0-0.1,0
			c0,0,0-0.1,0-0.1c0,0,0-0.1,0-0.2c0,0,0.1-0.1,0.1-0.2c0,0,0-0.1,0-0.1l0,0c0,0,0.1,0.1,0.2,0.2C49.9,68.6,50,68.8,49.9,68.8
			L49.9,68.8z"/>
	</g>
	<g>
		<path fill="#C66159" d="M54.2,71.3c0.2,0.1,0.3,0.3,0.4,0.4c0.1,0.1,0.3,0.2,0.4,0.3c0.1,0,0.1,0.1,0.2,0.1c0,0,0.1,0,0.1,0l0.1,0
			c0.2,0.1,0.3,0.1,0.5,0.2l-0.3,0c0.1,0,0.2,0,0.4-0.1c0.1,0,0.2-0.1,0.4-0.1c0.1,0,0.2-0.1,0.4-0.1c0.1,0,0.3-0.1,0.4-0.2l0,0
			c-0.3,0.5-0.9,0.8-1.5,1l0,0l0,0l-0.5-0.2c-0.2-0.1-0.3-0.2-0.5-0.3C54.5,72,54.2,71.6,54.2,71.3L54.2,71.3z"/>
	</g>
	<g>
		<path fill="#C66159" d="M56.2,77.3c0,0-0.3-0.2-0.6-0.5c-0.1-0.2-0.3-0.3-0.5-0.5c-0.2-0.2-0.3-0.4-0.5-0.6
			c-0.1-0.2-0.3-0.5-0.4-0.7c-0.1-0.2-0.2-0.4-0.3-0.6c-0.1-0.2-0.2-0.3-0.2-0.4c-0.1-0.1-0.1-0.2-0.1-0.2l0,0c0,0,0.3,0.1,0.5,0.5
			c0.3,0.3,0.6,0.7,1,1.2C55.7,76.3,56.2,77.3,56.2,77.3L56.2,77.3z"/>
	</g>
	<g>
		<path fill="#C66159" d="M50.2,66.4l-0.7-0.3c-0.2-0.1-0.5-0.2-0.7-0.4l0,0l0,0l-0.4-1.3l0,0c0.2,0.2,0.4,0.3,0.5,0.5
			c0.2,0.2,0.2,0.4,0.3,0.6l-0.1-0.2c0,0,0,0,0.1,0l0.1,0.1c0.1,0.1,0.2,0.1,0.3,0.2l0.3,0.3C50,66.1,50.1,66.2,50.2,66.4L50.2,66.4
			z"/>
	</g>
	<g>
		<path fill="#C66159" d="M48.8,86.6c0.3-0.8,0.5-1.6,0.6-2.3c0-0.4,0-0.8,0-1.1c0-0.4-0.1-0.7-0.2-1.1c0-0.2-0.1-0.4-0.2-0.5
			c0-0.2-0.1-0.4-0.2-0.5c-0.2-0.3-0.3-0.7-0.5-1.1c-0.4-0.7-0.8-1.3-1.3-1.9l-0.1-0.1l0,0c-0.2-0.6-0.4-1.1-0.7-1.7
			c-0.2-0.6-0.5-1.1-0.7-1.7l0.1,0c0.8,1,1.3,2.1,1.9,3.2l0,0c0.6,0.6,1.1,1.3,1.5,2c0.2,0.4,0.4,0.7,0.5,1.1
			c0.2,0.4,0.3,0.8,0.4,1.2C50.2,83.5,49.8,85.3,48.8,86.6L48.8,86.6z"/>
	</g>
	<g>
		<path fill="#C66159" d="M46.3,65.9c0,0,0,0,0,0.1c0,0.1,0,0.2,0,0.3c0,0.1-0.1,0.2-0.1,0.3c-0.1,0.1-0.1,0.2-0.2,0.3
			c-0.1,0.1-0.2,0.1-0.3,0.2c-0.1,0.1-0.2,0.1-0.3,0.1c-0.1,0-0.2,0-0.3,0c-0.1,0-0.1,0-0.1,0l0,0c0,0,0.3-0.3,0.6-0.6
			C45.9,66.1,46.3,65.9,46.3,65.9L46.3,65.9z"/>
	</g>
	<g>
		<path fill="#C66159" d="M46.3,65.9l0.1,0.4l0,0c0.3,0.3,0.5,0.6,0.9,0.8l0,0c-0.2,0-0.4-0.1-0.6-0.3c-0.1-0.1-0.2-0.1-0.2-0.2
			c-0.1-0.1-0.1-0.2-0.2-0.2l0-0.1l0,0C46.2,66.2,46.2,66,46.3,65.9L46.3,65.9z"/>
	</g>
	<path fill="#C66159" d="M55.2,68.4C55.2,68.4,55.2,68.4,55.2,68.4c-0.2,0-0.9-0.1-1.1-0.2c0,0,0-0.2,0-0.3c0,0,0,0,0,0l0,0
		c0.1,0,0.3,0,0.4,0.1c0.1,0,0.3,0,0.4,0c0.1,0,0.3,0,0.4,0c0.1,0,0.1,0,0.2,0c0.1,0,0.1,0,0.2,0c0.1,0,0.2-0.1,0.2-0.2
		c0,0,0.1-0.1,0.1-0.1c0,0,0.1-0.1,0.1-0.1l0.1-0.1c0,0,0-0.1,0.1-0.1c0.1-0.1,0.1-0.2,0.1-0.3l0,0c0,0.1,0,0.1,0,0.2
		c0,0.1,0,0.1,0,0.2c0,0.1,0,0.2-0.1,0.4c0,0.1-0.1,0.1-0.1,0.2c0,0.1-0.1,0.1-0.1,0.1c0,0-0.1,0.1-0.1,0.1c-0.1,0-0.1,0.1-0.2,0.1
		l0,0l0,0c-0.1,0-0.2,0.1-0.3,0.1c-0.1,0-0.2,0-0.2,0C55.3,68.4,55.2,68.4,55.2,68.4L55.2,68.4C55.2,68.4,55.2,68.4,55.2,68.4z"/>
	<path fill="#8B4D4A" d="M80.2,24.9c0,0-0.7-0.7-2.3-0.7c-0.7,0-1.5,0.3-2.2,0.7v-0.4c0,0,1.5-1.1,3.4-0.7c0.6,0.1,1,0.5,1.3,0.8
		L80.2,24.9z"/>
	<path fill="#8B4D4A" d="M69.1,26c0,0-0.5-0.7-2.3-0.7c-0.7,0-1.6,0.2-2.3,0.5c0,0-0.7,0.3-1.3,0.3v-0.4c0.6-0.1,1.3-0.4,1.3-0.4
		c0.9-0.4,1.5-0.6,2.3-0.6c1.2,0,1.8,0.4,2.1,0.7l0.4,0.4L69.1,26z"/>
	<path fill="#231F20" d="M76.3,40.3c0,0,1.2-2.3-0.2-2.3c-1.4,0-5.1,1.8-5.1,3.3c0,1.5,2.5,2.2,3.3,1.9
		C75.2,42.9,77.2,42.8,76.3,40.3z"/>
	<path fill="#E6E7E8" d="M75.6,38.4v0.5c0,0,0,0.1-0.1,0.1c0,0-2.3,0.2-2.5,0.4l-0.2-0.1C72.8,39.3,74.4,38,75.6,38.4z"/>
	<path fill="#FFFFFF" d="M71.4,41c0.6-0.2,1.7-0.3,2.5-0.3c0.9,0,1.7-0.2,1.7-0.2c0.1,0.2,0.2,0.7,0.2,0.7s0,0,0,0l0.3,0.7
		c-0.2,0.1-0.5,0.2-0.9,0.4c-2.4,0.9-3.9-1-3.9-1L71.4,41z"/>
	<path fill="#EC1E24" d="M76.6,39.8c0,0,2.2,3-1.1,4.5c-3.3,1.5-5.2-2.7-4.9-3.3l0.7-0.1c0,0,1.1,1.2,2.4,1.4c0,0,0.9,0.1,1.7-0.5
		c0,0,0.5-0.3,0.5-0.8c0-0.5,0-0.7,0.3-1.1L76.6,39.8z"/>
	<path fill="#D71F26" d="M76.1,39.9c0.4-0.7,0.5-1.5-0.5-1.5c-1.9-0.1-4.4,2.4-4.4,2.4h0l-0.7,0.1c0.7-1.6,2.9-2.8,3.3-3
		c0.3-0.2,2.4-1,3.1-0.3c0.8,0.7-0.4,2.2-0.4,2.2L76.1,39.9z"/>
	<path fill="#F37C20" stroke="#FFFAC7" stroke-width="0.1033" stroke-opacity="0" d="M44.7,12.7c0,0,0.1-0.3,0.4-0.9
		c4.4-3.6,15,0.4,15,0.4s2.5,1.3,6.9,2c0,0-5.6,0-10.6-1.5C51.6,11.2,47.2,10.3,44.7,12.7z"/>
	<g opacity="0.5">
		<path fill="#C66159" d="M48.7,37.7c0,0,0.1,0,0.3,0.1c0.1,0,0.4,0.1,0.6,0.1c0.5,0.1,1.1,0.1,1.7,0.2c0.2,0,0.3,0.1,0.5,0.1
			c0.1,0,0.2,0,0.2,0c0,0,0.1,0,0.1,0c0.2,0,0.3,0,0.4,0c0.1-0.1,0.2-0.3,0.3-0.4c0-0.1,0.1-0.2,0.1-0.2l0.1,0c0,0,0,0.1,0,0.2
			c0,0.1,0,0.4-0.1,0.6c-0.1,0.2-0.4,0.4-0.7,0.5c-0.3,0.1-0.7,0-1,0c-0.7-0.1-1.3-0.3-1.8-0.6C48.9,38,48.7,37.8,48.7,37.7
			L48.7,37.7z"/>
	</g>
	<path fill="#F5881F" stroke="#FFFAC7" stroke-width="0.1033" stroke-opacity="0" d="M56.6,15.3L56.6,15.3
		C56.6,15.3,56.6,15.3,56.6,15.3L56.6,15.3L53,31.3l-3.1-0.5l2.8-16C54,15.1,55.3,15.2,56.6,15.3z"/>
	<path fill="#F47E37" stroke="#FFFFFF" stroke-width="0.1033" stroke-opacity="0" d="M54.7,23.6c0,0-1.4,1.7-4,2.5
		c-1.2,0.3-3.1,1.4-4.8,3.3c0,0,0,0,0,0c0.8-1.9,2-3.5,3.4-4.3c2-1,4-2,5.6-2.9L54.7,23.6z"/>
	<path fill="#F37C20" stroke="#FFFAC7" stroke-width="0.1033" stroke-opacity="0" d="M42.9,37c-0.3-3.5,2-8.7,2-8.7s2.5-4.8,6.4-6.1
		c3.8-1.3,4.4-2.7,4.4-2.7l-0.6,2.6C53.5,23,51.4,24,49.4,25c-1.5,0.7-2.6,2.4-3.4,4.3c0,0,0,0,0,0c-0.1,0.1-0.2,0.2-0.3,0.3
		c0,0,0,0,0,0c-0.1,0.1-0.2,0.2-0.3,0.4c0,0,0,0,0,0c-0.1,0.1-0.2,0.2-0.3,0.4c0,0,0,0,0,0c-0.1,0.1-0.2,0.2-0.3,0.4c0,0,0,0,0,0
		c-0.1,0.1-0.2,0.2-0.2,0.4c0,0,0,0,0,0.1c-0.1,0.1-0.1,0.2-0.2,0.4c0,0,0,0.1,0,0.1c-0.1,0.1-0.1,0.2-0.2,0.4c0,0,0,0.1-0.1,0.1
		c-0.1,0.1-0.1,0.2-0.2,0.4c0,0,0,0.1-0.1,0.1c0,0.1-0.1,0.2-0.1,0.3c0,0,0,0.1-0.1,0.1c0,0.1-0.1,0.2-0.1,0.3c0,0.1,0,0.1-0.1,0.2
		c0,0.1-0.1,0.2-0.1,0.3c0,0.1,0,0.1-0.1,0.2c0,0.1-0.1,0.2-0.1,0.3c0,0.1,0,0.1-0.1,0.2c0,0.1,0,0.2-0.1,0.3c0,0.1,0,0.1,0,0.2
		c0,0.1,0,0.2,0,0.3c0,0.1,0,0.1,0,0.2c0,0.1,0,0.3,0,0.4c0,0.1,0,0.1,0,0.2C42.9,36.6,42.9,36.8,42.9,37C42.9,37,42.9,37,42.9,37
		L42.9,37z"/>
	<path fill="#F37C20" stroke="#FFFAC7" stroke-width="0.1033" stroke-opacity="0" d="M50.7,26c2.6-0.7,4-2.5,4-2.5L54,26.8
		c0,0-1.4,1.1-3.6,1.5l-1-1.8C49.9,26.3,50.4,26.1,50.7,26z"/>
	<path fill="#F5881F" stroke="#FFFAC7" stroke-width="0.1033" stroke-opacity="0" d="M41.3,29.4c0.1,1.4,0.2,3,0.6,4.6
		c0-0.2,0-0.4,0.1-0.5c0,0.2,0,0.4-0.1,0.5c0.2,1,0.5,2,1,3c-0.3-3.5,2-8.7,2-8.7s2.5-4.8,6.4-6.1c3.8-1.3,4.4-2.7,4.4-2.7l0.6-2.6
		c0,0-5.1,0.4-9.4,5.2c-0.8,0.9-1.7,2-2.5,3c0,0.1-0.2,0.4-0.5,1c0.3-0.6,0.5-0.9,0.5-1c0.8-1.1,1.6-2.1,2.5-3
		c4.2-4.7,9.4-5.2,9.4-5.2l0.4-1.6c-1.3,0-2.7-0.2-4.1-0.4c-0.7,0.2-1.5,0.5-2.3,1c0,0-6.3,3.7-8.7,9.8c0,0.1-0.1,0.2-0.1,0.4
		C41.3,26.9,41.2,28.1,41.3,29.4z M42.2,31.8c0.3-1.6,0.6-2.8,0.9-3.9C42.8,29,42.5,30.3,42.2,31.8z M43.1,28
		c0.3-0.8,0.5-1.5,0.7-1.9C43.7,26.5,43.4,27.1,43.1,28z M42,33.4c0.1-0.5,0.1-1,0.2-1.4C42.1,32.4,42,32.9,42,33.4z"/>
	<path fill="#F58F6B" d="M52.8,37.5L50,26.4c0,0-2.3-0.5-4.1,0.1C44.1,27,45,31,45,31s1.3,4.5,3.7,6.7c0.8,0.7,1.9,1,3.1,1.1
		C51.8,38.8,53.2,38.9,52.8,37.5z"/>
	<path fill="#F59386" d="M50,26.4c0,0,0.5,0.1,0.8,0.2l-0.3,1.7l-0.9-1.5L50,26.4z"/>
	<path fill="#F79523" d="M81.1,14.4c0,0,7-0.7,11.6-5.8c0,0-8.4,2.3-16.9-1.5C75.8,7.1,80.1,10.9,81.1,14.4z"/>
	<path fill="#F79523" d="M50.8,5.3c0,0,13.1-9.6,28.6-1c1.1,0.6,2.1,1.3,3.1,1.9c0,0-4.9,1.6-13.4-0.7c-8.5-2.3-12.3-1.8-12.3-1.8
		L50.8,5.3z"/>
	<path fill="#F5881F" stroke="#FFFAC7" stroke-width="0.1033" stroke-opacity="0" d="M45.2,11.8c4.4-3.6,15,0.4,15,0.4
		c9,2.2,16.2,1.2,19.8,0.3c1.6-0.4,2.5-0.7,2.5-0.7s-2.8,0.6-6.6,0.3c0.8,0.1,1.5,0.1,2.2,0.1C76.6,11,70.8,6.8,58.9,6
		c-3.8-0.2-6.7,0.3-9,1.1c-0.8,0.3-1.6,0.6-2.4,1.1c-0.4,0.4-0.7,0.8-1,1.2C45.9,10.4,45.4,11.2,45.2,11.8z M50.6,6.9
		C50.6,6.9,50.6,6.9,50.6,6.9C50.6,6.9,50.6,6.9,50.6,6.9z M51.3,6.7C51.3,6.7,51.3,6.7,51.3,6.7C51.3,6.7,51.3,6.7,51.3,6.7z
		 M52,6.6C52,6.6,52,6.6,52,6.6C52,6.6,52,6.6,52,6.6z M52.7,6.4C52.7,6.4,52.7,6.5,52.7,6.4C52.7,6.5,52.7,6.4,52.7,6.4z M53.4,6.4
		C53.4,6.4,53.4,6.4,53.4,6.4C53.4,6.4,53.4,6.4,53.4,6.4z M54.8,6.3C54.8,6.3,54.7,6.3,54.8,6.3C54.7,6.3,54.8,6.3,54.8,6.3z
		 M55.5,6.3C55.4,6.3,55.4,6.3,55.5,6.3C55.4,6.3,55.4,6.3,55.5,6.3z M56.1,6.3C56.1,6.3,56.1,6.3,56.1,6.3
		C56.1,6.3,56.1,6.3,56.1,6.3z M56.7,6.3C56.7,6.3,56.7,6.3,56.7,6.3C56.7,6.3,56.7,6.3,56.7,6.3z M58,6.5C58,6.5,58,6.5,58,6.5
		C58,6.5,58,6.5,58,6.5z M58.6,6.6C58.6,6.6,58.6,6.6,58.6,6.6C58.6,6.6,58.6,6.6,58.6,6.6z M59.2,6.7C59.2,6.7,59.2,6.7,59.2,6.7
		C59.2,6.7,59.2,6.7,59.2,6.7z M59.8,6.9C59.8,6.9,59.8,6.9,59.8,6.9C59.8,6.9,59.8,6.9,59.8,6.9z M60.8,7.1
		C60.8,7.1,60.8,7.1,60.8,7.1C60.8,7.1,60.8,7.1,60.8,7.1z M61.4,7.3C61.3,7.3,61.3,7.3,61.4,7.3C61.3,7.3,61.3,7.3,61.4,7.3z
		 M61.8,7.5C61.8,7.4,61.8,7.4,61.8,7.5C61.8,7.4,61.8,7.4,61.8,7.5z M62.3,7.6C62.3,7.6,62.3,7.6,62.3,7.6
		C62.3,7.6,62.3,7.6,62.3,7.6z M63.5,8.1C63.4,8.1,63.4,8.1,63.5,8.1C63.4,8.1,63.4,8.1,63.5,8.1z M63.8,8.2
		C63.8,8.2,63.8,8.2,63.8,8.2C63.8,8.2,63.8,8.2,63.8,8.2z M64.1,8.4C64.1,8.3,64.1,8.3,64.1,8.4C64.1,8.3,64.1,8.3,64.1,8.4z
		 M64.3,8.5C64.3,8.5,64.3,8.5,64.3,8.5C64.3,8.5,64.3,8.5,64.3,8.5z M64.6,8.6C64.6,8.6,64.6,8.6,64.6,8.6
		C64.6,8.6,64.6,8.6,64.6,8.6z M64.8,8.7C64.8,8.7,64.7,8.7,64.8,8.7C64.7,8.7,64.8,8.7,64.8,8.7z M64.9,8.8
		C64.9,8.8,64.9,8.8,64.9,8.8C64.9,8.8,64.9,8.8,64.9,8.8z M65,8.8C65,8.8,65,8.8,65,8.8C65,8.8,65,8.8,65,8.8z M65.1,8.8
		C65.1,8.8,65.1,8.8,65.1,8.8C65.1,8.8,65.1,8.8,65.1,8.8z M75.7,12.1c-0.1,0-0.2,0-0.3,0C75.5,12.1,75.6,12.1,75.7,12.1z
		 M70.5,11.2c-0.1,0-0.1,0-0.2-0.1C70.4,11.1,70.5,11.2,70.5,11.2z M71.2,11.4c-0.1,0-0.2,0-0.2-0.1C71,11.3,71.1,11.3,71.2,11.4z
		 M71.8,11.5c-0.1,0-0.2,0-0.3-0.1C71.6,11.5,71.7,11.5,71.8,11.5z M72.4,11.6c-0.1,0-0.2,0-0.3-0.1C72.2,11.6,72.3,11.6,72.4,11.6z
		 M72.9,11.8c-0.1,0-0.2,0-0.3-0.1C72.8,11.7,72.8,11.7,72.9,11.8z M73.5,11.9c-0.1,0-0.2,0-0.3,0C73.3,11.8,73.4,11.8,73.5,11.9z
		 M74.1,12c-0.1,0-0.2,0-0.3,0C73.9,11.9,74,11.9,74.1,12z M74.6,12c-0.1,0-0.2,0-0.3,0C74.4,12,74.5,12,74.6,12z M75.2,12.1
		c-0.1,0-0.2,0-0.3,0C75,12.1,75.1,12.1,75.2,12.1z"/>
	<path fill="#F5881F" stroke="#FFFAC7" stroke-width="0.1033" stroke-opacity="0" d="M82.4,11.8c0,0-18.3-12.1-35.2-3.3l12.4,0.7
		l15.7,3.7L82.4,11.8z"/>
</g>
</svg>
